G04 EAGLE Gerber RS-274X export*
G75*
%MOMM*%
%FSLAX34Y34*%
%LPD*%
%INSilkscreen Bottom*%
%IPPOS*%
%AMOC8*
5,1,8,0,0,1.08239X$1,22.5*%
G01*
%ADD10C,0.127000*%


D10*
X-80010Y-175260D02*
X-79757Y-175506D01*
X-79499Y-175746D01*
X-79235Y-175980D01*
X-78965Y-176207D01*
X-78690Y-176427D01*
X-78409Y-176640D01*
X-78123Y-176847D01*
X-77832Y-177047D01*
X-77537Y-177239D01*
X-77237Y-177424D01*
X-76932Y-177601D01*
X-76623Y-177771D01*
X-76310Y-177934D01*
X-75993Y-178089D01*
X-75673Y-178235D01*
X-75348Y-178374D01*
X-75021Y-178505D01*
X-74690Y-178628D01*
X-74357Y-178743D01*
X-74021Y-178849D01*
X-73682Y-178948D01*
X-73341Y-179037D01*
X-72998Y-179119D01*
X-72653Y-179192D01*
X-72306Y-179256D01*
X-71958Y-179312D01*
X-71609Y-179360D01*
X-71258Y-179399D01*
X-70907Y-179429D01*
X-70555Y-179451D01*
X-70203Y-179464D01*
X-69850Y-179468D01*
X-69497Y-179464D01*
X-69145Y-179451D01*
X-68793Y-179429D01*
X-68442Y-179399D01*
X-68091Y-179360D01*
X-67742Y-179312D01*
X-67394Y-179256D01*
X-67047Y-179192D01*
X-66702Y-179119D01*
X-66359Y-179037D01*
X-66018Y-178948D01*
X-65679Y-178849D01*
X-65343Y-178743D01*
X-65010Y-178628D01*
X-64679Y-178505D01*
X-64352Y-178374D01*
X-64027Y-178235D01*
X-63707Y-178089D01*
X-63390Y-177934D01*
X-63077Y-177771D01*
X-62768Y-177601D01*
X-62463Y-177424D01*
X-62163Y-177239D01*
X-61868Y-177047D01*
X-61577Y-176847D01*
X-61291Y-176640D01*
X-61010Y-176427D01*
X-60735Y-176207D01*
X-60465Y-175980D01*
X-60201Y-175746D01*
X-59943Y-175506D01*
X-59690Y-175260D01*
X-59444Y-175007D01*
X-59204Y-174749D01*
X-58970Y-174485D01*
X-58743Y-174215D01*
X-58523Y-173940D01*
X-58310Y-173659D01*
X-58103Y-173373D01*
X-57903Y-173082D01*
X-57711Y-172787D01*
X-57526Y-172487D01*
X-57349Y-172182D01*
X-57179Y-171873D01*
X-57016Y-171560D01*
X-56861Y-171243D01*
X-56715Y-170923D01*
X-56576Y-170598D01*
X-56445Y-170271D01*
X-56322Y-169940D01*
X-56207Y-169607D01*
X-56101Y-169271D01*
X-56002Y-168932D01*
X-55913Y-168591D01*
X-55831Y-168248D01*
X-55758Y-167903D01*
X-55694Y-167556D01*
X-55638Y-167208D01*
X-55590Y-166859D01*
X-55551Y-166508D01*
X-55521Y-166157D01*
X-55499Y-165805D01*
X-55486Y-165453D01*
X-55482Y-165100D01*
X-55486Y-164747D01*
X-55499Y-164395D01*
X-55521Y-164043D01*
X-55551Y-163692D01*
X-55590Y-163341D01*
X-55638Y-162992D01*
X-55694Y-162644D01*
X-55758Y-162297D01*
X-55831Y-161952D01*
X-55913Y-161609D01*
X-56002Y-161268D01*
X-56101Y-160929D01*
X-56207Y-160593D01*
X-56322Y-160260D01*
X-56445Y-159929D01*
X-56576Y-159602D01*
X-56715Y-159277D01*
X-56861Y-158957D01*
X-57016Y-158640D01*
X-57179Y-158327D01*
X-57349Y-158018D01*
X-57526Y-157713D01*
X-57711Y-157413D01*
X-57903Y-157118D01*
X-58103Y-156827D01*
X-58310Y-156541D01*
X-58523Y-156260D01*
X-58743Y-155985D01*
X-58970Y-155715D01*
X-59204Y-155451D01*
X-59444Y-155193D01*
X-59690Y-154940D01*
X-59943Y-154694D01*
X-60201Y-154454D01*
X-60465Y-154220D01*
X-60735Y-153993D01*
X-61010Y-153773D01*
X-61291Y-153560D01*
X-61577Y-153353D01*
X-61868Y-153153D01*
X-62163Y-152961D01*
X-62463Y-152776D01*
X-62768Y-152599D01*
X-63077Y-152429D01*
X-63390Y-152266D01*
X-63707Y-152111D01*
X-64027Y-151965D01*
X-64352Y-151826D01*
X-64679Y-151695D01*
X-65010Y-151572D01*
X-65343Y-151457D01*
X-65679Y-151351D01*
X-66018Y-151252D01*
X-66359Y-151163D01*
X-66702Y-151081D01*
X-67047Y-151008D01*
X-67394Y-150944D01*
X-67742Y-150888D01*
X-68091Y-150840D01*
X-68442Y-150801D01*
X-68793Y-150771D01*
X-69145Y-150749D01*
X-69497Y-150736D01*
X-69850Y-150732D01*
X-70203Y-150736D01*
X-70555Y-150749D01*
X-70907Y-150771D01*
X-71258Y-150801D01*
X-71609Y-150840D01*
X-71958Y-150888D01*
X-72306Y-150944D01*
X-72653Y-151008D01*
X-72998Y-151081D01*
X-73341Y-151163D01*
X-73682Y-151252D01*
X-74021Y-151351D01*
X-74357Y-151457D01*
X-74690Y-151572D01*
X-75021Y-151695D01*
X-75348Y-151826D01*
X-75673Y-151965D01*
X-75993Y-152111D01*
X-76310Y-152266D01*
X-76623Y-152429D01*
X-76932Y-152599D01*
X-77237Y-152776D01*
X-77537Y-152961D01*
X-77832Y-153153D01*
X-78123Y-153353D01*
X-78409Y-153560D01*
X-78690Y-153773D01*
X-78965Y-153993D01*
X-79235Y-154220D01*
X-79499Y-154454D01*
X-79757Y-154694D01*
X-80010Y-154940D01*
X-77470Y-165100D02*
X-97790Y-165100D01*
X-81280Y-167640D02*
X-77470Y-165100D01*
X-81280Y-162560D01*
X-71120Y-165100D02*
X-68580Y-165100D01*
X-69850Y-163830D01*
X-71120Y-165100D01*
X-69850Y-166370D01*
X-68580Y-165100D01*
X-80010Y-175260D02*
X-79757Y-175506D01*
X-79499Y-175746D01*
X-79235Y-175980D01*
X-78965Y-176207D01*
X-78690Y-176427D01*
X-78409Y-176640D01*
X-78123Y-176847D01*
X-77832Y-177047D01*
X-77537Y-177239D01*
X-77237Y-177424D01*
X-76932Y-177601D01*
X-76623Y-177771D01*
X-76310Y-177934D01*
X-75993Y-178089D01*
X-75673Y-178235D01*
X-75348Y-178374D01*
X-75021Y-178505D01*
X-74690Y-178628D01*
X-74357Y-178743D01*
X-74021Y-178849D01*
X-73682Y-178948D01*
X-73341Y-179037D01*
X-72998Y-179119D01*
X-72653Y-179192D01*
X-72306Y-179256D01*
X-71958Y-179312D01*
X-71609Y-179360D01*
X-71258Y-179399D01*
X-70907Y-179429D01*
X-70555Y-179451D01*
X-70203Y-179464D01*
X-69850Y-179468D01*
X-69497Y-179464D01*
X-69145Y-179451D01*
X-68793Y-179429D01*
X-68442Y-179399D01*
X-68091Y-179360D01*
X-67742Y-179312D01*
X-67394Y-179256D01*
X-67047Y-179192D01*
X-66702Y-179119D01*
X-66359Y-179037D01*
X-66018Y-178948D01*
X-65679Y-178849D01*
X-65343Y-178743D01*
X-65010Y-178628D01*
X-64679Y-178505D01*
X-64352Y-178374D01*
X-64027Y-178235D01*
X-63707Y-178089D01*
X-63390Y-177934D01*
X-63077Y-177771D01*
X-62768Y-177601D01*
X-62463Y-177424D01*
X-62163Y-177239D01*
X-61868Y-177047D01*
X-61577Y-176847D01*
X-61291Y-176640D01*
X-61010Y-176427D01*
X-60735Y-176207D01*
X-60465Y-175980D01*
X-60201Y-175746D01*
X-59943Y-175506D01*
X-59690Y-175260D01*
X-59444Y-175007D01*
X-59204Y-174749D01*
X-58970Y-174485D01*
X-58743Y-174215D01*
X-58523Y-173940D01*
X-58310Y-173659D01*
X-58103Y-173373D01*
X-57903Y-173082D01*
X-57711Y-172787D01*
X-57526Y-172487D01*
X-57349Y-172182D01*
X-57179Y-171873D01*
X-57016Y-171560D01*
X-56861Y-171243D01*
X-56715Y-170923D01*
X-56576Y-170598D01*
X-56445Y-170271D01*
X-56322Y-169940D01*
X-56207Y-169607D01*
X-56101Y-169271D01*
X-56002Y-168932D01*
X-55913Y-168591D01*
X-55831Y-168248D01*
X-55758Y-167903D01*
X-55694Y-167556D01*
X-55638Y-167208D01*
X-55590Y-166859D01*
X-55551Y-166508D01*
X-55521Y-166157D01*
X-55499Y-165805D01*
X-55486Y-165453D01*
X-55482Y-165100D01*
X-55486Y-164747D01*
X-55499Y-164395D01*
X-55521Y-164043D01*
X-55551Y-163692D01*
X-55590Y-163341D01*
X-55638Y-162992D01*
X-55694Y-162644D01*
X-55758Y-162297D01*
X-55831Y-161952D01*
X-55913Y-161609D01*
X-56002Y-161268D01*
X-56101Y-160929D01*
X-56207Y-160593D01*
X-56322Y-160260D01*
X-56445Y-159929D01*
X-56576Y-159602D01*
X-56715Y-159277D01*
X-56861Y-158957D01*
X-57016Y-158640D01*
X-57179Y-158327D01*
X-57349Y-158018D01*
X-57526Y-157713D01*
X-57711Y-157413D01*
X-57903Y-157118D01*
X-58103Y-156827D01*
X-58310Y-156541D01*
X-58523Y-156260D01*
X-58743Y-155985D01*
X-58970Y-155715D01*
X-59204Y-155451D01*
X-59444Y-155193D01*
X-59690Y-154940D01*
X-59943Y-154694D01*
X-60201Y-154454D01*
X-60465Y-154220D01*
X-60735Y-153993D01*
X-61010Y-153773D01*
X-61291Y-153560D01*
X-61577Y-153353D01*
X-61868Y-153153D01*
X-62163Y-152961D01*
X-62463Y-152776D01*
X-62768Y-152599D01*
X-63077Y-152429D01*
X-63390Y-152266D01*
X-63707Y-152111D01*
X-64027Y-151965D01*
X-64352Y-151826D01*
X-64679Y-151695D01*
X-65010Y-151572D01*
X-65343Y-151457D01*
X-65679Y-151351D01*
X-66018Y-151252D01*
X-66359Y-151163D01*
X-66702Y-151081D01*
X-67047Y-151008D01*
X-67394Y-150944D01*
X-67742Y-150888D01*
X-68091Y-150840D01*
X-68442Y-150801D01*
X-68793Y-150771D01*
X-69145Y-150749D01*
X-69497Y-150736D01*
X-69850Y-150732D01*
X-70203Y-150736D01*
X-70555Y-150749D01*
X-70907Y-150771D01*
X-71258Y-150801D01*
X-71609Y-150840D01*
X-71958Y-150888D01*
X-72306Y-150944D01*
X-72653Y-151008D01*
X-72998Y-151081D01*
X-73341Y-151163D01*
X-73682Y-151252D01*
X-74021Y-151351D01*
X-74357Y-151457D01*
X-74690Y-151572D01*
X-75021Y-151695D01*
X-75348Y-151826D01*
X-75673Y-151965D01*
X-75993Y-152111D01*
X-76310Y-152266D01*
X-76623Y-152429D01*
X-76932Y-152599D01*
X-77237Y-152776D01*
X-77537Y-152961D01*
X-77832Y-153153D01*
X-78123Y-153353D01*
X-78409Y-153560D01*
X-78690Y-153773D01*
X-78965Y-153993D01*
X-79235Y-154220D01*
X-79499Y-154454D01*
X-79757Y-154694D01*
X-80010Y-154940D01*
X-54610Y-165100D02*
X-31750Y-165100D01*
X-50800Y-167640D02*
X-54610Y-165100D01*
X-50800Y-162560D01*
X-100330Y-165100D02*
X-110490Y-165100D01*
X-105410Y-160020D02*
X-105410Y-170180D01*
X-29210Y-165100D02*
X-19050Y-165100D01*
X-76689Y-165100D02*
X-76687Y-164932D01*
X-76681Y-164764D01*
X-76670Y-164597D01*
X-76656Y-164430D01*
X-76638Y-164263D01*
X-76615Y-164097D01*
X-76588Y-163931D01*
X-76558Y-163766D01*
X-76523Y-163602D01*
X-76484Y-163438D01*
X-76441Y-163276D01*
X-76395Y-163115D01*
X-76344Y-162955D01*
X-76289Y-162796D01*
X-76231Y-162639D01*
X-76168Y-162483D01*
X-76102Y-162329D01*
X-76032Y-162176D01*
X-75959Y-162025D01*
X-75881Y-161876D01*
X-75801Y-161729D01*
X-75716Y-161584D01*
X-75628Y-161441D01*
X-75536Y-161300D01*
X-75441Y-161162D01*
X-75343Y-161026D01*
X-75242Y-160892D01*
X-75137Y-160761D01*
X-75029Y-160633D01*
X-74917Y-160507D01*
X-74803Y-160384D01*
X-74686Y-160264D01*
X-74566Y-160147D01*
X-74443Y-160033D01*
X-74317Y-159921D01*
X-74189Y-159813D01*
X-74058Y-159708D01*
X-73924Y-159607D01*
X-73788Y-159509D01*
X-73650Y-159414D01*
X-73509Y-159322D01*
X-73366Y-159234D01*
X-73221Y-159149D01*
X-73074Y-159069D01*
X-72925Y-158991D01*
X-72774Y-158918D01*
X-72621Y-158848D01*
X-72467Y-158782D01*
X-72311Y-158719D01*
X-72154Y-158661D01*
X-71995Y-158606D01*
X-71835Y-158555D01*
X-71674Y-158509D01*
X-71512Y-158466D01*
X-71348Y-158427D01*
X-71184Y-158392D01*
X-71019Y-158362D01*
X-70853Y-158335D01*
X-70687Y-158312D01*
X-70520Y-158294D01*
X-70353Y-158280D01*
X-70186Y-158269D01*
X-70018Y-158263D01*
X-69850Y-158261D01*
X-69682Y-158263D01*
X-69514Y-158269D01*
X-69347Y-158280D01*
X-69180Y-158294D01*
X-69013Y-158312D01*
X-68847Y-158335D01*
X-68681Y-158362D01*
X-68516Y-158392D01*
X-68352Y-158427D01*
X-68188Y-158466D01*
X-68026Y-158509D01*
X-67865Y-158555D01*
X-67705Y-158606D01*
X-67546Y-158661D01*
X-67389Y-158719D01*
X-67233Y-158782D01*
X-67079Y-158848D01*
X-66926Y-158918D01*
X-66775Y-158991D01*
X-66626Y-159069D01*
X-66479Y-159149D01*
X-66334Y-159234D01*
X-66191Y-159322D01*
X-66050Y-159414D01*
X-65912Y-159509D01*
X-65776Y-159607D01*
X-65642Y-159708D01*
X-65511Y-159813D01*
X-65383Y-159921D01*
X-65257Y-160033D01*
X-65134Y-160147D01*
X-65014Y-160264D01*
X-64897Y-160384D01*
X-64783Y-160507D01*
X-64671Y-160633D01*
X-64563Y-160761D01*
X-64458Y-160892D01*
X-64357Y-161026D01*
X-64259Y-161162D01*
X-64164Y-161300D01*
X-64072Y-161441D01*
X-63984Y-161584D01*
X-63899Y-161729D01*
X-63819Y-161876D01*
X-63741Y-162025D01*
X-63668Y-162176D01*
X-63598Y-162329D01*
X-63532Y-162483D01*
X-63469Y-162639D01*
X-63411Y-162796D01*
X-63356Y-162955D01*
X-63305Y-163115D01*
X-63259Y-163276D01*
X-63216Y-163438D01*
X-63177Y-163602D01*
X-63142Y-163766D01*
X-63112Y-163931D01*
X-63085Y-164097D01*
X-63062Y-164263D01*
X-63044Y-164430D01*
X-63030Y-164597D01*
X-63019Y-164764D01*
X-63013Y-164932D01*
X-63011Y-165100D01*
X-63013Y-165268D01*
X-63019Y-165436D01*
X-63030Y-165603D01*
X-63044Y-165770D01*
X-63062Y-165937D01*
X-63085Y-166103D01*
X-63112Y-166269D01*
X-63142Y-166434D01*
X-63177Y-166598D01*
X-63216Y-166762D01*
X-63259Y-166924D01*
X-63305Y-167085D01*
X-63356Y-167245D01*
X-63411Y-167404D01*
X-63469Y-167561D01*
X-63532Y-167717D01*
X-63598Y-167871D01*
X-63668Y-168024D01*
X-63741Y-168175D01*
X-63819Y-168324D01*
X-63899Y-168471D01*
X-63984Y-168616D01*
X-64072Y-168759D01*
X-64164Y-168900D01*
X-64259Y-169038D01*
X-64357Y-169174D01*
X-64458Y-169308D01*
X-64563Y-169439D01*
X-64671Y-169567D01*
X-64783Y-169693D01*
X-64897Y-169816D01*
X-65014Y-169936D01*
X-65134Y-170053D01*
X-65257Y-170167D01*
X-65383Y-170279D01*
X-65511Y-170387D01*
X-65642Y-170492D01*
X-65776Y-170593D01*
X-65912Y-170691D01*
X-66050Y-170786D01*
X-66191Y-170878D01*
X-66334Y-170966D01*
X-66479Y-171051D01*
X-66626Y-171131D01*
X-66775Y-171209D01*
X-66926Y-171282D01*
X-67079Y-171352D01*
X-67233Y-171418D01*
X-67389Y-171481D01*
X-67546Y-171539D01*
X-67705Y-171594D01*
X-67865Y-171645D01*
X-68026Y-171691D01*
X-68188Y-171734D01*
X-68352Y-171773D01*
X-68516Y-171808D01*
X-68681Y-171838D01*
X-68847Y-171865D01*
X-69013Y-171888D01*
X-69180Y-171906D01*
X-69347Y-171920D01*
X-69514Y-171931D01*
X-69682Y-171937D01*
X-69850Y-171939D01*
X-70018Y-171937D01*
X-70186Y-171931D01*
X-70353Y-171920D01*
X-70520Y-171906D01*
X-70687Y-171888D01*
X-70853Y-171865D01*
X-71019Y-171838D01*
X-71184Y-171808D01*
X-71348Y-171773D01*
X-71512Y-171734D01*
X-71674Y-171691D01*
X-71835Y-171645D01*
X-71995Y-171594D01*
X-72154Y-171539D01*
X-72311Y-171481D01*
X-72467Y-171418D01*
X-72621Y-171352D01*
X-72774Y-171282D01*
X-72925Y-171209D01*
X-73074Y-171131D01*
X-73221Y-171051D01*
X-73366Y-170966D01*
X-73509Y-170878D01*
X-73650Y-170786D01*
X-73788Y-170691D01*
X-73924Y-170593D01*
X-74058Y-170492D01*
X-74189Y-170387D01*
X-74317Y-170279D01*
X-74443Y-170167D01*
X-74566Y-170053D01*
X-74686Y-169936D01*
X-74803Y-169816D01*
X-74917Y-169693D01*
X-75029Y-169567D01*
X-75137Y-169439D01*
X-75242Y-169308D01*
X-75343Y-169174D01*
X-75441Y-169038D01*
X-75536Y-168900D01*
X-75628Y-168759D01*
X-75716Y-168616D01*
X-75801Y-168471D01*
X-75881Y-168324D01*
X-75959Y-168175D01*
X-76032Y-168024D01*
X-76102Y-167871D01*
X-76168Y-167717D01*
X-76231Y-167561D01*
X-76289Y-167404D01*
X-76344Y-167245D01*
X-76395Y-167085D01*
X-76441Y-166924D01*
X-76484Y-166762D01*
X-76523Y-166598D01*
X-76558Y-166434D01*
X-76588Y-166269D01*
X-76615Y-166103D01*
X-76638Y-165937D01*
X-76656Y-165770D01*
X-76670Y-165603D01*
X-76681Y-165436D01*
X-76687Y-165268D01*
X-76689Y-165100D01*
X-71646Y-165100D02*
X-71644Y-165016D01*
X-71638Y-164932D01*
X-71628Y-164848D01*
X-71615Y-164765D01*
X-71597Y-164683D01*
X-71575Y-164601D01*
X-71550Y-164521D01*
X-71521Y-164442D01*
X-71488Y-164364D01*
X-71452Y-164288D01*
X-71412Y-164214D01*
X-71369Y-164142D01*
X-71323Y-164072D01*
X-71273Y-164004D01*
X-71220Y-163938D01*
X-71164Y-163875D01*
X-71105Y-163815D01*
X-71043Y-163758D01*
X-70979Y-163703D01*
X-70912Y-163652D01*
X-70843Y-163604D01*
X-70772Y-163559D01*
X-70699Y-163517D01*
X-70624Y-163479D01*
X-70547Y-163445D01*
X-70469Y-163414D01*
X-70389Y-163387D01*
X-70308Y-163363D01*
X-70226Y-163344D01*
X-70143Y-163328D01*
X-70060Y-163316D01*
X-69976Y-163308D01*
X-69892Y-163304D01*
X-69808Y-163304D01*
X-69724Y-163308D01*
X-69640Y-163316D01*
X-69557Y-163328D01*
X-69474Y-163344D01*
X-69392Y-163363D01*
X-69311Y-163387D01*
X-69231Y-163414D01*
X-69153Y-163445D01*
X-69076Y-163479D01*
X-69001Y-163517D01*
X-68928Y-163559D01*
X-68857Y-163604D01*
X-68788Y-163652D01*
X-68721Y-163703D01*
X-68657Y-163758D01*
X-68595Y-163815D01*
X-68536Y-163875D01*
X-68480Y-163938D01*
X-68427Y-164004D01*
X-68377Y-164072D01*
X-68331Y-164142D01*
X-68288Y-164214D01*
X-68248Y-164288D01*
X-68212Y-164364D01*
X-68179Y-164442D01*
X-68150Y-164521D01*
X-68125Y-164601D01*
X-68103Y-164683D01*
X-68085Y-164765D01*
X-68072Y-164848D01*
X-68062Y-164932D01*
X-68056Y-165016D01*
X-68054Y-165100D01*
X-68056Y-165184D01*
X-68062Y-165268D01*
X-68072Y-165352D01*
X-68085Y-165435D01*
X-68103Y-165517D01*
X-68125Y-165599D01*
X-68150Y-165679D01*
X-68179Y-165758D01*
X-68212Y-165836D01*
X-68248Y-165912D01*
X-68288Y-165986D01*
X-68331Y-166058D01*
X-68377Y-166128D01*
X-68427Y-166196D01*
X-68480Y-166262D01*
X-68536Y-166325D01*
X-68595Y-166385D01*
X-68657Y-166442D01*
X-68721Y-166497D01*
X-68788Y-166548D01*
X-68857Y-166596D01*
X-68928Y-166641D01*
X-69001Y-166683D01*
X-69076Y-166721D01*
X-69153Y-166755D01*
X-69231Y-166786D01*
X-69311Y-166813D01*
X-69392Y-166837D01*
X-69474Y-166856D01*
X-69557Y-166872D01*
X-69640Y-166884D01*
X-69724Y-166892D01*
X-69808Y-166896D01*
X-69892Y-166896D01*
X-69976Y-166892D01*
X-70060Y-166884D01*
X-70143Y-166872D01*
X-70226Y-166856D01*
X-70308Y-166837D01*
X-70389Y-166813D01*
X-70469Y-166786D01*
X-70547Y-166755D01*
X-70624Y-166721D01*
X-70699Y-166683D01*
X-70772Y-166641D01*
X-70843Y-166596D01*
X-70912Y-166548D01*
X-70979Y-166497D01*
X-71043Y-166442D01*
X-71105Y-166385D01*
X-71164Y-166325D01*
X-71220Y-166262D01*
X-71273Y-166196D01*
X-71323Y-166128D01*
X-71369Y-166058D01*
X-71412Y-165986D01*
X-71452Y-165912D01*
X-71488Y-165836D01*
X-71521Y-165758D01*
X-71550Y-165679D01*
X-71575Y-165599D01*
X-71597Y-165517D01*
X-71615Y-165435D01*
X-71628Y-165352D01*
X-71638Y-165268D01*
X-71644Y-165184D01*
X-71646Y-165100D01*
X-112815Y-165100D02*
X-112813Y-164918D01*
X-112806Y-164737D01*
X-112795Y-164555D01*
X-112779Y-164374D01*
X-112759Y-164194D01*
X-112735Y-164013D01*
X-112706Y-163834D01*
X-112673Y-163655D01*
X-112635Y-163478D01*
X-112593Y-163301D01*
X-112547Y-163125D01*
X-112496Y-162950D01*
X-112441Y-162777D01*
X-112382Y-162605D01*
X-112319Y-162435D01*
X-112251Y-162266D01*
X-112180Y-162099D01*
X-112104Y-161934D01*
X-112024Y-161771D01*
X-111941Y-161609D01*
X-111853Y-161450D01*
X-111761Y-161293D01*
X-111666Y-161138D01*
X-111567Y-160986D01*
X-111464Y-160836D01*
X-111358Y-160689D01*
X-111248Y-160544D01*
X-111134Y-160402D01*
X-111017Y-160263D01*
X-110897Y-160127D01*
X-110773Y-159994D01*
X-110646Y-159864D01*
X-110516Y-159737D01*
X-110383Y-159613D01*
X-110247Y-159493D01*
X-110108Y-159376D01*
X-109966Y-159262D01*
X-109821Y-159152D01*
X-109674Y-159046D01*
X-109524Y-158943D01*
X-109372Y-158844D01*
X-109217Y-158749D01*
X-109060Y-158657D01*
X-108901Y-158569D01*
X-108739Y-158486D01*
X-108576Y-158406D01*
X-108411Y-158330D01*
X-108244Y-158259D01*
X-108075Y-158191D01*
X-107905Y-158128D01*
X-107733Y-158069D01*
X-107560Y-158014D01*
X-107385Y-157963D01*
X-107209Y-157917D01*
X-107032Y-157875D01*
X-106855Y-157837D01*
X-106676Y-157804D01*
X-106497Y-157775D01*
X-106316Y-157751D01*
X-106136Y-157731D01*
X-105955Y-157715D01*
X-105773Y-157704D01*
X-105592Y-157697D01*
X-105410Y-157695D01*
X-105228Y-157697D01*
X-105047Y-157704D01*
X-104865Y-157715D01*
X-104684Y-157731D01*
X-104504Y-157751D01*
X-104323Y-157775D01*
X-104144Y-157804D01*
X-103965Y-157837D01*
X-103788Y-157875D01*
X-103611Y-157917D01*
X-103435Y-157963D01*
X-103260Y-158014D01*
X-103087Y-158069D01*
X-102915Y-158128D01*
X-102745Y-158191D01*
X-102576Y-158259D01*
X-102409Y-158330D01*
X-102244Y-158406D01*
X-102081Y-158486D01*
X-101919Y-158569D01*
X-101760Y-158657D01*
X-101603Y-158749D01*
X-101448Y-158844D01*
X-101296Y-158943D01*
X-101146Y-159046D01*
X-100999Y-159152D01*
X-100854Y-159262D01*
X-100712Y-159376D01*
X-100573Y-159493D01*
X-100437Y-159613D01*
X-100304Y-159737D01*
X-100174Y-159864D01*
X-100047Y-159994D01*
X-99923Y-160127D01*
X-99803Y-160263D01*
X-99686Y-160402D01*
X-99572Y-160544D01*
X-99462Y-160689D01*
X-99356Y-160836D01*
X-99253Y-160986D01*
X-99154Y-161138D01*
X-99059Y-161293D01*
X-98967Y-161450D01*
X-98879Y-161609D01*
X-98796Y-161771D01*
X-98716Y-161934D01*
X-98640Y-162099D01*
X-98569Y-162266D01*
X-98501Y-162435D01*
X-98438Y-162605D01*
X-98379Y-162777D01*
X-98324Y-162950D01*
X-98273Y-163125D01*
X-98227Y-163301D01*
X-98185Y-163478D01*
X-98147Y-163655D01*
X-98114Y-163834D01*
X-98085Y-164013D01*
X-98061Y-164194D01*
X-98041Y-164374D01*
X-98025Y-164555D01*
X-98014Y-164737D01*
X-98007Y-164918D01*
X-98005Y-165100D01*
X-98007Y-165282D01*
X-98014Y-165463D01*
X-98025Y-165645D01*
X-98041Y-165826D01*
X-98061Y-166006D01*
X-98085Y-166187D01*
X-98114Y-166366D01*
X-98147Y-166545D01*
X-98185Y-166722D01*
X-98227Y-166899D01*
X-98273Y-167075D01*
X-98324Y-167250D01*
X-98379Y-167423D01*
X-98438Y-167595D01*
X-98501Y-167765D01*
X-98569Y-167934D01*
X-98640Y-168101D01*
X-98716Y-168266D01*
X-98796Y-168429D01*
X-98879Y-168591D01*
X-98967Y-168750D01*
X-99059Y-168907D01*
X-99154Y-169062D01*
X-99253Y-169214D01*
X-99356Y-169364D01*
X-99462Y-169511D01*
X-99572Y-169656D01*
X-99686Y-169798D01*
X-99803Y-169937D01*
X-99923Y-170073D01*
X-100047Y-170206D01*
X-100174Y-170336D01*
X-100304Y-170463D01*
X-100437Y-170587D01*
X-100573Y-170707D01*
X-100712Y-170824D01*
X-100854Y-170938D01*
X-100999Y-171048D01*
X-101146Y-171154D01*
X-101296Y-171257D01*
X-101448Y-171356D01*
X-101603Y-171451D01*
X-101760Y-171543D01*
X-101919Y-171631D01*
X-102081Y-171714D01*
X-102244Y-171794D01*
X-102409Y-171870D01*
X-102576Y-171941D01*
X-102745Y-172009D01*
X-102915Y-172072D01*
X-103087Y-172131D01*
X-103260Y-172186D01*
X-103435Y-172237D01*
X-103611Y-172283D01*
X-103788Y-172325D01*
X-103965Y-172363D01*
X-104144Y-172396D01*
X-104323Y-172425D01*
X-104504Y-172449D01*
X-104684Y-172469D01*
X-104865Y-172485D01*
X-105047Y-172496D01*
X-105228Y-172503D01*
X-105410Y-172505D01*
X-105592Y-172503D01*
X-105773Y-172496D01*
X-105955Y-172485D01*
X-106136Y-172469D01*
X-106316Y-172449D01*
X-106497Y-172425D01*
X-106676Y-172396D01*
X-106855Y-172363D01*
X-107032Y-172325D01*
X-107209Y-172283D01*
X-107385Y-172237D01*
X-107560Y-172186D01*
X-107733Y-172131D01*
X-107905Y-172072D01*
X-108075Y-172009D01*
X-108244Y-171941D01*
X-108411Y-171870D01*
X-108576Y-171794D01*
X-108739Y-171714D01*
X-108901Y-171631D01*
X-109060Y-171543D01*
X-109217Y-171451D01*
X-109372Y-171356D01*
X-109524Y-171257D01*
X-109674Y-171154D01*
X-109821Y-171048D01*
X-109966Y-170938D01*
X-110108Y-170824D01*
X-110247Y-170707D01*
X-110383Y-170587D01*
X-110516Y-170463D01*
X-110646Y-170336D01*
X-110773Y-170206D01*
X-110897Y-170073D01*
X-111017Y-169937D01*
X-111134Y-169798D01*
X-111248Y-169656D01*
X-111358Y-169511D01*
X-111464Y-169364D01*
X-111567Y-169214D01*
X-111666Y-169062D01*
X-111761Y-168907D01*
X-111853Y-168750D01*
X-111941Y-168591D01*
X-112024Y-168429D01*
X-112104Y-168266D01*
X-112180Y-168101D01*
X-112251Y-167934D01*
X-112319Y-167765D01*
X-112382Y-167595D01*
X-112441Y-167423D01*
X-112496Y-167250D01*
X-112547Y-167075D01*
X-112593Y-166899D01*
X-112635Y-166722D01*
X-112673Y-166545D01*
X-112706Y-166366D01*
X-112735Y-166187D01*
X-112759Y-166006D01*
X-112779Y-165826D01*
X-112795Y-165645D01*
X-112806Y-165463D01*
X-112813Y-165282D01*
X-112815Y-165100D01*
X-31535Y-165100D02*
X-31533Y-164918D01*
X-31526Y-164737D01*
X-31515Y-164555D01*
X-31499Y-164374D01*
X-31479Y-164194D01*
X-31455Y-164013D01*
X-31426Y-163834D01*
X-31393Y-163655D01*
X-31355Y-163478D01*
X-31313Y-163301D01*
X-31267Y-163125D01*
X-31216Y-162950D01*
X-31161Y-162777D01*
X-31102Y-162605D01*
X-31039Y-162435D01*
X-30971Y-162266D01*
X-30900Y-162099D01*
X-30824Y-161934D01*
X-30744Y-161771D01*
X-30661Y-161609D01*
X-30573Y-161450D01*
X-30481Y-161293D01*
X-30386Y-161138D01*
X-30287Y-160986D01*
X-30184Y-160836D01*
X-30078Y-160689D01*
X-29968Y-160544D01*
X-29854Y-160402D01*
X-29737Y-160263D01*
X-29617Y-160127D01*
X-29493Y-159994D01*
X-29366Y-159864D01*
X-29236Y-159737D01*
X-29103Y-159613D01*
X-28967Y-159493D01*
X-28828Y-159376D01*
X-28686Y-159262D01*
X-28541Y-159152D01*
X-28394Y-159046D01*
X-28244Y-158943D01*
X-28092Y-158844D01*
X-27937Y-158749D01*
X-27780Y-158657D01*
X-27621Y-158569D01*
X-27459Y-158486D01*
X-27296Y-158406D01*
X-27131Y-158330D01*
X-26964Y-158259D01*
X-26795Y-158191D01*
X-26625Y-158128D01*
X-26453Y-158069D01*
X-26280Y-158014D01*
X-26105Y-157963D01*
X-25929Y-157917D01*
X-25752Y-157875D01*
X-25575Y-157837D01*
X-25396Y-157804D01*
X-25217Y-157775D01*
X-25036Y-157751D01*
X-24856Y-157731D01*
X-24675Y-157715D01*
X-24493Y-157704D01*
X-24312Y-157697D01*
X-24130Y-157695D01*
X-23948Y-157697D01*
X-23767Y-157704D01*
X-23585Y-157715D01*
X-23404Y-157731D01*
X-23224Y-157751D01*
X-23043Y-157775D01*
X-22864Y-157804D01*
X-22685Y-157837D01*
X-22508Y-157875D01*
X-22331Y-157917D01*
X-22155Y-157963D01*
X-21980Y-158014D01*
X-21807Y-158069D01*
X-21635Y-158128D01*
X-21465Y-158191D01*
X-21296Y-158259D01*
X-21129Y-158330D01*
X-20964Y-158406D01*
X-20801Y-158486D01*
X-20639Y-158569D01*
X-20480Y-158657D01*
X-20323Y-158749D01*
X-20168Y-158844D01*
X-20016Y-158943D01*
X-19866Y-159046D01*
X-19719Y-159152D01*
X-19574Y-159262D01*
X-19432Y-159376D01*
X-19293Y-159493D01*
X-19157Y-159613D01*
X-19024Y-159737D01*
X-18894Y-159864D01*
X-18767Y-159994D01*
X-18643Y-160127D01*
X-18523Y-160263D01*
X-18406Y-160402D01*
X-18292Y-160544D01*
X-18182Y-160689D01*
X-18076Y-160836D01*
X-17973Y-160986D01*
X-17874Y-161138D01*
X-17779Y-161293D01*
X-17687Y-161450D01*
X-17599Y-161609D01*
X-17516Y-161771D01*
X-17436Y-161934D01*
X-17360Y-162099D01*
X-17289Y-162266D01*
X-17221Y-162435D01*
X-17158Y-162605D01*
X-17099Y-162777D01*
X-17044Y-162950D01*
X-16993Y-163125D01*
X-16947Y-163301D01*
X-16905Y-163478D01*
X-16867Y-163655D01*
X-16834Y-163834D01*
X-16805Y-164013D01*
X-16781Y-164194D01*
X-16761Y-164374D01*
X-16745Y-164555D01*
X-16734Y-164737D01*
X-16727Y-164918D01*
X-16725Y-165100D01*
X-16727Y-165282D01*
X-16734Y-165463D01*
X-16745Y-165645D01*
X-16761Y-165826D01*
X-16781Y-166006D01*
X-16805Y-166187D01*
X-16834Y-166366D01*
X-16867Y-166545D01*
X-16905Y-166722D01*
X-16947Y-166899D01*
X-16993Y-167075D01*
X-17044Y-167250D01*
X-17099Y-167423D01*
X-17158Y-167595D01*
X-17221Y-167765D01*
X-17289Y-167934D01*
X-17360Y-168101D01*
X-17436Y-168266D01*
X-17516Y-168429D01*
X-17599Y-168591D01*
X-17687Y-168750D01*
X-17779Y-168907D01*
X-17874Y-169062D01*
X-17973Y-169214D01*
X-18076Y-169364D01*
X-18182Y-169511D01*
X-18292Y-169656D01*
X-18406Y-169798D01*
X-18523Y-169937D01*
X-18643Y-170073D01*
X-18767Y-170206D01*
X-18894Y-170336D01*
X-19024Y-170463D01*
X-19157Y-170587D01*
X-19293Y-170707D01*
X-19432Y-170824D01*
X-19574Y-170938D01*
X-19719Y-171048D01*
X-19866Y-171154D01*
X-20016Y-171257D01*
X-20168Y-171356D01*
X-20323Y-171451D01*
X-20480Y-171543D01*
X-20639Y-171631D01*
X-20801Y-171714D01*
X-20964Y-171794D01*
X-21129Y-171870D01*
X-21296Y-171941D01*
X-21465Y-172009D01*
X-21635Y-172072D01*
X-21807Y-172131D01*
X-21980Y-172186D01*
X-22155Y-172237D01*
X-22331Y-172283D01*
X-22508Y-172325D01*
X-22685Y-172363D01*
X-22864Y-172396D01*
X-23043Y-172425D01*
X-23224Y-172449D01*
X-23404Y-172469D01*
X-23585Y-172485D01*
X-23767Y-172496D01*
X-23948Y-172503D01*
X-24130Y-172505D01*
X-24312Y-172503D01*
X-24493Y-172496D01*
X-24675Y-172485D01*
X-24856Y-172469D01*
X-25036Y-172449D01*
X-25217Y-172425D01*
X-25396Y-172396D01*
X-25575Y-172363D01*
X-25752Y-172325D01*
X-25929Y-172283D01*
X-26105Y-172237D01*
X-26280Y-172186D01*
X-26453Y-172131D01*
X-26625Y-172072D01*
X-26795Y-172009D01*
X-26964Y-171941D01*
X-27131Y-171870D01*
X-27296Y-171794D01*
X-27459Y-171714D01*
X-27621Y-171631D01*
X-27780Y-171543D01*
X-27937Y-171451D01*
X-28092Y-171356D01*
X-28244Y-171257D01*
X-28394Y-171154D01*
X-28541Y-171048D01*
X-28686Y-170938D01*
X-28828Y-170824D01*
X-28967Y-170707D01*
X-29103Y-170587D01*
X-29236Y-170463D01*
X-29366Y-170336D01*
X-29493Y-170206D01*
X-29617Y-170073D01*
X-29737Y-169937D01*
X-29854Y-169798D01*
X-29968Y-169656D01*
X-30078Y-169511D01*
X-30184Y-169364D01*
X-30287Y-169214D01*
X-30386Y-169062D01*
X-30481Y-168907D01*
X-30573Y-168750D01*
X-30661Y-168591D01*
X-30744Y-168429D01*
X-30824Y-168266D01*
X-30900Y-168101D01*
X-30971Y-167934D01*
X-31039Y-167765D01*
X-31102Y-167595D01*
X-31161Y-167423D01*
X-31216Y-167250D01*
X-31267Y-167075D01*
X-31313Y-166899D01*
X-31355Y-166722D01*
X-31393Y-166545D01*
X-31426Y-166366D01*
X-31455Y-166187D01*
X-31479Y-166006D01*
X-31499Y-165826D01*
X-31515Y-165645D01*
X-31526Y-165463D01*
X-31533Y-165282D01*
X-31535Y-165100D01*
X-76689Y-165100D02*
X-76687Y-164932D01*
X-76681Y-164764D01*
X-76670Y-164597D01*
X-76656Y-164430D01*
X-76638Y-164263D01*
X-76615Y-164097D01*
X-76588Y-163931D01*
X-76558Y-163766D01*
X-76523Y-163602D01*
X-76484Y-163438D01*
X-76441Y-163276D01*
X-76395Y-163115D01*
X-76344Y-162955D01*
X-76289Y-162796D01*
X-76231Y-162639D01*
X-76168Y-162483D01*
X-76102Y-162329D01*
X-76032Y-162176D01*
X-75959Y-162025D01*
X-75881Y-161876D01*
X-75801Y-161729D01*
X-75716Y-161584D01*
X-75628Y-161441D01*
X-75536Y-161300D01*
X-75441Y-161162D01*
X-75343Y-161026D01*
X-75242Y-160892D01*
X-75137Y-160761D01*
X-75029Y-160633D01*
X-74917Y-160507D01*
X-74803Y-160384D01*
X-74686Y-160264D01*
X-74566Y-160147D01*
X-74443Y-160033D01*
X-74317Y-159921D01*
X-74189Y-159813D01*
X-74058Y-159708D01*
X-73924Y-159607D01*
X-73788Y-159509D01*
X-73650Y-159414D01*
X-73509Y-159322D01*
X-73366Y-159234D01*
X-73221Y-159149D01*
X-73074Y-159069D01*
X-72925Y-158991D01*
X-72774Y-158918D01*
X-72621Y-158848D01*
X-72467Y-158782D01*
X-72311Y-158719D01*
X-72154Y-158661D01*
X-71995Y-158606D01*
X-71835Y-158555D01*
X-71674Y-158509D01*
X-71512Y-158466D01*
X-71348Y-158427D01*
X-71184Y-158392D01*
X-71019Y-158362D01*
X-70853Y-158335D01*
X-70687Y-158312D01*
X-70520Y-158294D01*
X-70353Y-158280D01*
X-70186Y-158269D01*
X-70018Y-158263D01*
X-69850Y-158261D01*
X-69682Y-158263D01*
X-69514Y-158269D01*
X-69347Y-158280D01*
X-69180Y-158294D01*
X-69013Y-158312D01*
X-68847Y-158335D01*
X-68681Y-158362D01*
X-68516Y-158392D01*
X-68352Y-158427D01*
X-68188Y-158466D01*
X-68026Y-158509D01*
X-67865Y-158555D01*
X-67705Y-158606D01*
X-67546Y-158661D01*
X-67389Y-158719D01*
X-67233Y-158782D01*
X-67079Y-158848D01*
X-66926Y-158918D01*
X-66775Y-158991D01*
X-66626Y-159069D01*
X-66479Y-159149D01*
X-66334Y-159234D01*
X-66191Y-159322D01*
X-66050Y-159414D01*
X-65912Y-159509D01*
X-65776Y-159607D01*
X-65642Y-159708D01*
X-65511Y-159813D01*
X-65383Y-159921D01*
X-65257Y-160033D01*
X-65134Y-160147D01*
X-65014Y-160264D01*
X-64897Y-160384D01*
X-64783Y-160507D01*
X-64671Y-160633D01*
X-64563Y-160761D01*
X-64458Y-160892D01*
X-64357Y-161026D01*
X-64259Y-161162D01*
X-64164Y-161300D01*
X-64072Y-161441D01*
X-63984Y-161584D01*
X-63899Y-161729D01*
X-63819Y-161876D01*
X-63741Y-162025D01*
X-63668Y-162176D01*
X-63598Y-162329D01*
X-63532Y-162483D01*
X-63469Y-162639D01*
X-63411Y-162796D01*
X-63356Y-162955D01*
X-63305Y-163115D01*
X-63259Y-163276D01*
X-63216Y-163438D01*
X-63177Y-163602D01*
X-63142Y-163766D01*
X-63112Y-163931D01*
X-63085Y-164097D01*
X-63062Y-164263D01*
X-63044Y-164430D01*
X-63030Y-164597D01*
X-63019Y-164764D01*
X-63013Y-164932D01*
X-63011Y-165100D01*
X-63013Y-165268D01*
X-63019Y-165436D01*
X-63030Y-165603D01*
X-63044Y-165770D01*
X-63062Y-165937D01*
X-63085Y-166103D01*
X-63112Y-166269D01*
X-63142Y-166434D01*
X-63177Y-166598D01*
X-63216Y-166762D01*
X-63259Y-166924D01*
X-63305Y-167085D01*
X-63356Y-167245D01*
X-63411Y-167404D01*
X-63469Y-167561D01*
X-63532Y-167717D01*
X-63598Y-167871D01*
X-63668Y-168024D01*
X-63741Y-168175D01*
X-63819Y-168324D01*
X-63899Y-168471D01*
X-63984Y-168616D01*
X-64072Y-168759D01*
X-64164Y-168900D01*
X-64259Y-169038D01*
X-64357Y-169174D01*
X-64458Y-169308D01*
X-64563Y-169439D01*
X-64671Y-169567D01*
X-64783Y-169693D01*
X-64897Y-169816D01*
X-65014Y-169936D01*
X-65134Y-170053D01*
X-65257Y-170167D01*
X-65383Y-170279D01*
X-65511Y-170387D01*
X-65642Y-170492D01*
X-65776Y-170593D01*
X-65912Y-170691D01*
X-66050Y-170786D01*
X-66191Y-170878D01*
X-66334Y-170966D01*
X-66479Y-171051D01*
X-66626Y-171131D01*
X-66775Y-171209D01*
X-66926Y-171282D01*
X-67079Y-171352D01*
X-67233Y-171418D01*
X-67389Y-171481D01*
X-67546Y-171539D01*
X-67705Y-171594D01*
X-67865Y-171645D01*
X-68026Y-171691D01*
X-68188Y-171734D01*
X-68352Y-171773D01*
X-68516Y-171808D01*
X-68681Y-171838D01*
X-68847Y-171865D01*
X-69013Y-171888D01*
X-69180Y-171906D01*
X-69347Y-171920D01*
X-69514Y-171931D01*
X-69682Y-171937D01*
X-69850Y-171939D01*
X-70018Y-171937D01*
X-70186Y-171931D01*
X-70353Y-171920D01*
X-70520Y-171906D01*
X-70687Y-171888D01*
X-70853Y-171865D01*
X-71019Y-171838D01*
X-71184Y-171808D01*
X-71348Y-171773D01*
X-71512Y-171734D01*
X-71674Y-171691D01*
X-71835Y-171645D01*
X-71995Y-171594D01*
X-72154Y-171539D01*
X-72311Y-171481D01*
X-72467Y-171418D01*
X-72621Y-171352D01*
X-72774Y-171282D01*
X-72925Y-171209D01*
X-73074Y-171131D01*
X-73221Y-171051D01*
X-73366Y-170966D01*
X-73509Y-170878D01*
X-73650Y-170786D01*
X-73788Y-170691D01*
X-73924Y-170593D01*
X-74058Y-170492D01*
X-74189Y-170387D01*
X-74317Y-170279D01*
X-74443Y-170167D01*
X-74566Y-170053D01*
X-74686Y-169936D01*
X-74803Y-169816D01*
X-74917Y-169693D01*
X-75029Y-169567D01*
X-75137Y-169439D01*
X-75242Y-169308D01*
X-75343Y-169174D01*
X-75441Y-169038D01*
X-75536Y-168900D01*
X-75628Y-168759D01*
X-75716Y-168616D01*
X-75801Y-168471D01*
X-75881Y-168324D01*
X-75959Y-168175D01*
X-76032Y-168024D01*
X-76102Y-167871D01*
X-76168Y-167717D01*
X-76231Y-167561D01*
X-76289Y-167404D01*
X-76344Y-167245D01*
X-76395Y-167085D01*
X-76441Y-166924D01*
X-76484Y-166762D01*
X-76523Y-166598D01*
X-76558Y-166434D01*
X-76588Y-166269D01*
X-76615Y-166103D01*
X-76638Y-165937D01*
X-76656Y-165770D01*
X-76670Y-165603D01*
X-76681Y-165436D01*
X-76687Y-165268D01*
X-76689Y-165100D01*
X-71646Y-165100D02*
X-71644Y-165016D01*
X-71638Y-164932D01*
X-71628Y-164848D01*
X-71615Y-164765D01*
X-71597Y-164683D01*
X-71575Y-164601D01*
X-71550Y-164521D01*
X-71521Y-164442D01*
X-71488Y-164364D01*
X-71452Y-164288D01*
X-71412Y-164214D01*
X-71369Y-164142D01*
X-71323Y-164072D01*
X-71273Y-164004D01*
X-71220Y-163938D01*
X-71164Y-163875D01*
X-71105Y-163815D01*
X-71043Y-163758D01*
X-70979Y-163703D01*
X-70912Y-163652D01*
X-70843Y-163604D01*
X-70772Y-163559D01*
X-70699Y-163517D01*
X-70624Y-163479D01*
X-70547Y-163445D01*
X-70469Y-163414D01*
X-70389Y-163387D01*
X-70308Y-163363D01*
X-70226Y-163344D01*
X-70143Y-163328D01*
X-70060Y-163316D01*
X-69976Y-163308D01*
X-69892Y-163304D01*
X-69808Y-163304D01*
X-69724Y-163308D01*
X-69640Y-163316D01*
X-69557Y-163328D01*
X-69474Y-163344D01*
X-69392Y-163363D01*
X-69311Y-163387D01*
X-69231Y-163414D01*
X-69153Y-163445D01*
X-69076Y-163479D01*
X-69001Y-163517D01*
X-68928Y-163559D01*
X-68857Y-163604D01*
X-68788Y-163652D01*
X-68721Y-163703D01*
X-68657Y-163758D01*
X-68595Y-163815D01*
X-68536Y-163875D01*
X-68480Y-163938D01*
X-68427Y-164004D01*
X-68377Y-164072D01*
X-68331Y-164142D01*
X-68288Y-164214D01*
X-68248Y-164288D01*
X-68212Y-164364D01*
X-68179Y-164442D01*
X-68150Y-164521D01*
X-68125Y-164601D01*
X-68103Y-164683D01*
X-68085Y-164765D01*
X-68072Y-164848D01*
X-68062Y-164932D01*
X-68056Y-165016D01*
X-68054Y-165100D01*
X-68056Y-165184D01*
X-68062Y-165268D01*
X-68072Y-165352D01*
X-68085Y-165435D01*
X-68103Y-165517D01*
X-68125Y-165599D01*
X-68150Y-165679D01*
X-68179Y-165758D01*
X-68212Y-165836D01*
X-68248Y-165912D01*
X-68288Y-165986D01*
X-68331Y-166058D01*
X-68377Y-166128D01*
X-68427Y-166196D01*
X-68480Y-166262D01*
X-68536Y-166325D01*
X-68595Y-166385D01*
X-68657Y-166442D01*
X-68721Y-166497D01*
X-68788Y-166548D01*
X-68857Y-166596D01*
X-68928Y-166641D01*
X-69001Y-166683D01*
X-69076Y-166721D01*
X-69153Y-166755D01*
X-69231Y-166786D01*
X-69311Y-166813D01*
X-69392Y-166837D01*
X-69474Y-166856D01*
X-69557Y-166872D01*
X-69640Y-166884D01*
X-69724Y-166892D01*
X-69808Y-166896D01*
X-69892Y-166896D01*
X-69976Y-166892D01*
X-70060Y-166884D01*
X-70143Y-166872D01*
X-70226Y-166856D01*
X-70308Y-166837D01*
X-70389Y-166813D01*
X-70469Y-166786D01*
X-70547Y-166755D01*
X-70624Y-166721D01*
X-70699Y-166683D01*
X-70772Y-166641D01*
X-70843Y-166596D01*
X-70912Y-166548D01*
X-70979Y-166497D01*
X-71043Y-166442D01*
X-71105Y-166385D01*
X-71164Y-166325D01*
X-71220Y-166262D01*
X-71273Y-166196D01*
X-71323Y-166128D01*
X-71369Y-166058D01*
X-71412Y-165986D01*
X-71452Y-165912D01*
X-71488Y-165836D01*
X-71521Y-165758D01*
X-71550Y-165679D01*
X-71575Y-165599D01*
X-71597Y-165517D01*
X-71615Y-165435D01*
X-71628Y-165352D01*
X-71638Y-165268D01*
X-71644Y-165184D01*
X-71646Y-165100D01*
X-112815Y-165100D02*
X-112813Y-164918D01*
X-112806Y-164737D01*
X-112795Y-164555D01*
X-112779Y-164374D01*
X-112759Y-164194D01*
X-112735Y-164013D01*
X-112706Y-163834D01*
X-112673Y-163655D01*
X-112635Y-163478D01*
X-112593Y-163301D01*
X-112547Y-163125D01*
X-112496Y-162950D01*
X-112441Y-162777D01*
X-112382Y-162605D01*
X-112319Y-162435D01*
X-112251Y-162266D01*
X-112180Y-162099D01*
X-112104Y-161934D01*
X-112024Y-161771D01*
X-111941Y-161609D01*
X-111853Y-161450D01*
X-111761Y-161293D01*
X-111666Y-161138D01*
X-111567Y-160986D01*
X-111464Y-160836D01*
X-111358Y-160689D01*
X-111248Y-160544D01*
X-111134Y-160402D01*
X-111017Y-160263D01*
X-110897Y-160127D01*
X-110773Y-159994D01*
X-110646Y-159864D01*
X-110516Y-159737D01*
X-110383Y-159613D01*
X-110247Y-159493D01*
X-110108Y-159376D01*
X-109966Y-159262D01*
X-109821Y-159152D01*
X-109674Y-159046D01*
X-109524Y-158943D01*
X-109372Y-158844D01*
X-109217Y-158749D01*
X-109060Y-158657D01*
X-108901Y-158569D01*
X-108739Y-158486D01*
X-108576Y-158406D01*
X-108411Y-158330D01*
X-108244Y-158259D01*
X-108075Y-158191D01*
X-107905Y-158128D01*
X-107733Y-158069D01*
X-107560Y-158014D01*
X-107385Y-157963D01*
X-107209Y-157917D01*
X-107032Y-157875D01*
X-106855Y-157837D01*
X-106676Y-157804D01*
X-106497Y-157775D01*
X-106316Y-157751D01*
X-106136Y-157731D01*
X-105955Y-157715D01*
X-105773Y-157704D01*
X-105592Y-157697D01*
X-105410Y-157695D01*
X-105228Y-157697D01*
X-105047Y-157704D01*
X-104865Y-157715D01*
X-104684Y-157731D01*
X-104504Y-157751D01*
X-104323Y-157775D01*
X-104144Y-157804D01*
X-103965Y-157837D01*
X-103788Y-157875D01*
X-103611Y-157917D01*
X-103435Y-157963D01*
X-103260Y-158014D01*
X-103087Y-158069D01*
X-102915Y-158128D01*
X-102745Y-158191D01*
X-102576Y-158259D01*
X-102409Y-158330D01*
X-102244Y-158406D01*
X-102081Y-158486D01*
X-101919Y-158569D01*
X-101760Y-158657D01*
X-101603Y-158749D01*
X-101448Y-158844D01*
X-101296Y-158943D01*
X-101146Y-159046D01*
X-100999Y-159152D01*
X-100854Y-159262D01*
X-100712Y-159376D01*
X-100573Y-159493D01*
X-100437Y-159613D01*
X-100304Y-159737D01*
X-100174Y-159864D01*
X-100047Y-159994D01*
X-99923Y-160127D01*
X-99803Y-160263D01*
X-99686Y-160402D01*
X-99572Y-160544D01*
X-99462Y-160689D01*
X-99356Y-160836D01*
X-99253Y-160986D01*
X-99154Y-161138D01*
X-99059Y-161293D01*
X-98967Y-161450D01*
X-98879Y-161609D01*
X-98796Y-161771D01*
X-98716Y-161934D01*
X-98640Y-162099D01*
X-98569Y-162266D01*
X-98501Y-162435D01*
X-98438Y-162605D01*
X-98379Y-162777D01*
X-98324Y-162950D01*
X-98273Y-163125D01*
X-98227Y-163301D01*
X-98185Y-163478D01*
X-98147Y-163655D01*
X-98114Y-163834D01*
X-98085Y-164013D01*
X-98061Y-164194D01*
X-98041Y-164374D01*
X-98025Y-164555D01*
X-98014Y-164737D01*
X-98007Y-164918D01*
X-98005Y-165100D01*
X-98007Y-165282D01*
X-98014Y-165463D01*
X-98025Y-165645D01*
X-98041Y-165826D01*
X-98061Y-166006D01*
X-98085Y-166187D01*
X-98114Y-166366D01*
X-98147Y-166545D01*
X-98185Y-166722D01*
X-98227Y-166899D01*
X-98273Y-167075D01*
X-98324Y-167250D01*
X-98379Y-167423D01*
X-98438Y-167595D01*
X-98501Y-167765D01*
X-98569Y-167934D01*
X-98640Y-168101D01*
X-98716Y-168266D01*
X-98796Y-168429D01*
X-98879Y-168591D01*
X-98967Y-168750D01*
X-99059Y-168907D01*
X-99154Y-169062D01*
X-99253Y-169214D01*
X-99356Y-169364D01*
X-99462Y-169511D01*
X-99572Y-169656D01*
X-99686Y-169798D01*
X-99803Y-169937D01*
X-99923Y-170073D01*
X-100047Y-170206D01*
X-100174Y-170336D01*
X-100304Y-170463D01*
X-100437Y-170587D01*
X-100573Y-170707D01*
X-100712Y-170824D01*
X-100854Y-170938D01*
X-100999Y-171048D01*
X-101146Y-171154D01*
X-101296Y-171257D01*
X-101448Y-171356D01*
X-101603Y-171451D01*
X-101760Y-171543D01*
X-101919Y-171631D01*
X-102081Y-171714D01*
X-102244Y-171794D01*
X-102409Y-171870D01*
X-102576Y-171941D01*
X-102745Y-172009D01*
X-102915Y-172072D01*
X-103087Y-172131D01*
X-103260Y-172186D01*
X-103435Y-172237D01*
X-103611Y-172283D01*
X-103788Y-172325D01*
X-103965Y-172363D01*
X-104144Y-172396D01*
X-104323Y-172425D01*
X-104504Y-172449D01*
X-104684Y-172469D01*
X-104865Y-172485D01*
X-105047Y-172496D01*
X-105228Y-172503D01*
X-105410Y-172505D01*
X-105592Y-172503D01*
X-105773Y-172496D01*
X-105955Y-172485D01*
X-106136Y-172469D01*
X-106316Y-172449D01*
X-106497Y-172425D01*
X-106676Y-172396D01*
X-106855Y-172363D01*
X-107032Y-172325D01*
X-107209Y-172283D01*
X-107385Y-172237D01*
X-107560Y-172186D01*
X-107733Y-172131D01*
X-107905Y-172072D01*
X-108075Y-172009D01*
X-108244Y-171941D01*
X-108411Y-171870D01*
X-108576Y-171794D01*
X-108739Y-171714D01*
X-108901Y-171631D01*
X-109060Y-171543D01*
X-109217Y-171451D01*
X-109372Y-171356D01*
X-109524Y-171257D01*
X-109674Y-171154D01*
X-109821Y-171048D01*
X-109966Y-170938D01*
X-110108Y-170824D01*
X-110247Y-170707D01*
X-110383Y-170587D01*
X-110516Y-170463D01*
X-110646Y-170336D01*
X-110773Y-170206D01*
X-110897Y-170073D01*
X-111017Y-169937D01*
X-111134Y-169798D01*
X-111248Y-169656D01*
X-111358Y-169511D01*
X-111464Y-169364D01*
X-111567Y-169214D01*
X-111666Y-169062D01*
X-111761Y-168907D01*
X-111853Y-168750D01*
X-111941Y-168591D01*
X-112024Y-168429D01*
X-112104Y-168266D01*
X-112180Y-168101D01*
X-112251Y-167934D01*
X-112319Y-167765D01*
X-112382Y-167595D01*
X-112441Y-167423D01*
X-112496Y-167250D01*
X-112547Y-167075D01*
X-112593Y-166899D01*
X-112635Y-166722D01*
X-112673Y-166545D01*
X-112706Y-166366D01*
X-112735Y-166187D01*
X-112759Y-166006D01*
X-112779Y-165826D01*
X-112795Y-165645D01*
X-112806Y-165463D01*
X-112813Y-165282D01*
X-112815Y-165100D01*
X-31535Y-165100D02*
X-31533Y-164918D01*
X-31526Y-164737D01*
X-31515Y-164555D01*
X-31499Y-164374D01*
X-31479Y-164194D01*
X-31455Y-164013D01*
X-31426Y-163834D01*
X-31393Y-163655D01*
X-31355Y-163478D01*
X-31313Y-163301D01*
X-31267Y-163125D01*
X-31216Y-162950D01*
X-31161Y-162777D01*
X-31102Y-162605D01*
X-31039Y-162435D01*
X-30971Y-162266D01*
X-30900Y-162099D01*
X-30824Y-161934D01*
X-30744Y-161771D01*
X-30661Y-161609D01*
X-30573Y-161450D01*
X-30481Y-161293D01*
X-30386Y-161138D01*
X-30287Y-160986D01*
X-30184Y-160836D01*
X-30078Y-160689D01*
X-29968Y-160544D01*
X-29854Y-160402D01*
X-29737Y-160263D01*
X-29617Y-160127D01*
X-29493Y-159994D01*
X-29366Y-159864D01*
X-29236Y-159737D01*
X-29103Y-159613D01*
X-28967Y-159493D01*
X-28828Y-159376D01*
X-28686Y-159262D01*
X-28541Y-159152D01*
X-28394Y-159046D01*
X-28244Y-158943D01*
X-28092Y-158844D01*
X-27937Y-158749D01*
X-27780Y-158657D01*
X-27621Y-158569D01*
X-27459Y-158486D01*
X-27296Y-158406D01*
X-27131Y-158330D01*
X-26964Y-158259D01*
X-26795Y-158191D01*
X-26625Y-158128D01*
X-26453Y-158069D01*
X-26280Y-158014D01*
X-26105Y-157963D01*
X-25929Y-157917D01*
X-25752Y-157875D01*
X-25575Y-157837D01*
X-25396Y-157804D01*
X-25217Y-157775D01*
X-25036Y-157751D01*
X-24856Y-157731D01*
X-24675Y-157715D01*
X-24493Y-157704D01*
X-24312Y-157697D01*
X-24130Y-157695D01*
X-23948Y-157697D01*
X-23767Y-157704D01*
X-23585Y-157715D01*
X-23404Y-157731D01*
X-23224Y-157751D01*
X-23043Y-157775D01*
X-22864Y-157804D01*
X-22685Y-157837D01*
X-22508Y-157875D01*
X-22331Y-157917D01*
X-22155Y-157963D01*
X-21980Y-158014D01*
X-21807Y-158069D01*
X-21635Y-158128D01*
X-21465Y-158191D01*
X-21296Y-158259D01*
X-21129Y-158330D01*
X-20964Y-158406D01*
X-20801Y-158486D01*
X-20639Y-158569D01*
X-20480Y-158657D01*
X-20323Y-158749D01*
X-20168Y-158844D01*
X-20016Y-158943D01*
X-19866Y-159046D01*
X-19719Y-159152D01*
X-19574Y-159262D01*
X-19432Y-159376D01*
X-19293Y-159493D01*
X-19157Y-159613D01*
X-19024Y-159737D01*
X-18894Y-159864D01*
X-18767Y-159994D01*
X-18643Y-160127D01*
X-18523Y-160263D01*
X-18406Y-160402D01*
X-18292Y-160544D01*
X-18182Y-160689D01*
X-18076Y-160836D01*
X-17973Y-160986D01*
X-17874Y-161138D01*
X-17779Y-161293D01*
X-17687Y-161450D01*
X-17599Y-161609D01*
X-17516Y-161771D01*
X-17436Y-161934D01*
X-17360Y-162099D01*
X-17289Y-162266D01*
X-17221Y-162435D01*
X-17158Y-162605D01*
X-17099Y-162777D01*
X-17044Y-162950D01*
X-16993Y-163125D01*
X-16947Y-163301D01*
X-16905Y-163478D01*
X-16867Y-163655D01*
X-16834Y-163834D01*
X-16805Y-164013D01*
X-16781Y-164194D01*
X-16761Y-164374D01*
X-16745Y-164555D01*
X-16734Y-164737D01*
X-16727Y-164918D01*
X-16725Y-165100D01*
X-16727Y-165282D01*
X-16734Y-165463D01*
X-16745Y-165645D01*
X-16761Y-165826D01*
X-16781Y-166006D01*
X-16805Y-166187D01*
X-16834Y-166366D01*
X-16867Y-166545D01*
X-16905Y-166722D01*
X-16947Y-166899D01*
X-16993Y-167075D01*
X-17044Y-167250D01*
X-17099Y-167423D01*
X-17158Y-167595D01*
X-17221Y-167765D01*
X-17289Y-167934D01*
X-17360Y-168101D01*
X-17436Y-168266D01*
X-17516Y-168429D01*
X-17599Y-168591D01*
X-17687Y-168750D01*
X-17779Y-168907D01*
X-17874Y-169062D01*
X-17973Y-169214D01*
X-18076Y-169364D01*
X-18182Y-169511D01*
X-18292Y-169656D01*
X-18406Y-169798D01*
X-18523Y-169937D01*
X-18643Y-170073D01*
X-18767Y-170206D01*
X-18894Y-170336D01*
X-19024Y-170463D01*
X-19157Y-170587D01*
X-19293Y-170707D01*
X-19432Y-170824D01*
X-19574Y-170938D01*
X-19719Y-171048D01*
X-19866Y-171154D01*
X-20016Y-171257D01*
X-20168Y-171356D01*
X-20323Y-171451D01*
X-20480Y-171543D01*
X-20639Y-171631D01*
X-20801Y-171714D01*
X-20964Y-171794D01*
X-21129Y-171870D01*
X-21296Y-171941D01*
X-21465Y-172009D01*
X-21635Y-172072D01*
X-21807Y-172131D01*
X-21980Y-172186D01*
X-22155Y-172237D01*
X-22331Y-172283D01*
X-22508Y-172325D01*
X-22685Y-172363D01*
X-22864Y-172396D01*
X-23043Y-172425D01*
X-23224Y-172449D01*
X-23404Y-172469D01*
X-23585Y-172485D01*
X-23767Y-172496D01*
X-23948Y-172503D01*
X-24130Y-172505D01*
X-24312Y-172503D01*
X-24493Y-172496D01*
X-24675Y-172485D01*
X-24856Y-172469D01*
X-25036Y-172449D01*
X-25217Y-172425D01*
X-25396Y-172396D01*
X-25575Y-172363D01*
X-25752Y-172325D01*
X-25929Y-172283D01*
X-26105Y-172237D01*
X-26280Y-172186D01*
X-26453Y-172131D01*
X-26625Y-172072D01*
X-26795Y-172009D01*
X-26964Y-171941D01*
X-27131Y-171870D01*
X-27296Y-171794D01*
X-27459Y-171714D01*
X-27621Y-171631D01*
X-27780Y-171543D01*
X-27937Y-171451D01*
X-28092Y-171356D01*
X-28244Y-171257D01*
X-28394Y-171154D01*
X-28541Y-171048D01*
X-28686Y-170938D01*
X-28828Y-170824D01*
X-28967Y-170707D01*
X-29103Y-170587D01*
X-29236Y-170463D01*
X-29366Y-170336D01*
X-29493Y-170206D01*
X-29617Y-170073D01*
X-29737Y-169937D01*
X-29854Y-169798D01*
X-29968Y-169656D01*
X-30078Y-169511D01*
X-30184Y-169364D01*
X-30287Y-169214D01*
X-30386Y-169062D01*
X-30481Y-168907D01*
X-30573Y-168750D01*
X-30661Y-168591D01*
X-30744Y-168429D01*
X-30824Y-168266D01*
X-30900Y-168101D01*
X-30971Y-167934D01*
X-31039Y-167765D01*
X-31102Y-167595D01*
X-31161Y-167423D01*
X-31216Y-167250D01*
X-31267Y-167075D01*
X-31313Y-166899D01*
X-31355Y-166722D01*
X-31393Y-166545D01*
X-31426Y-166366D01*
X-31455Y-166187D01*
X-31479Y-166006D01*
X-31499Y-165826D01*
X-31515Y-165645D01*
X-31526Y-165463D01*
X-31533Y-165282D01*
X-31535Y-165100D01*
M02*
