G04 EAGLE Gerber RS-274X export*
G75*
%MOMM*%
%FSLAX34Y34*%
%LPD*%
%INSilkscreen Top*%
%IPPOS*%
%AMOC8*
5,1,8,0,0,1.08239X$1,22.5*%
G01*
%ADD10C,0.152400*%
%ADD11C,0.127000*%
%ADD12C,0.101600*%
%ADD13R,0.508000X0.381000*%
%ADD14R,0.762000X10.668000*%
%ADD15R,0.508000X1.905000*%
%ADD16R,0.508000X0.762000*%
%ADD17C,0.304800*%
%ADD18C,0.254000*%
%ADD19C,0.177800*%
%ADD20C,0.203200*%


D10*
X-231678Y-356348D02*
X-242524Y-356348D01*
X-242524Y-372618D01*
X-231678Y-372618D01*
X-237101Y-364483D02*
X-242524Y-364483D01*
X-218018Y-356348D02*
X-215306Y-359060D01*
X-218018Y-356348D02*
X-223441Y-356348D01*
X-226153Y-359060D01*
X-226153Y-361771D01*
X-223441Y-364483D01*
X-218018Y-364483D01*
X-215306Y-367195D01*
X-215306Y-369906D01*
X-218018Y-372618D01*
X-223441Y-372618D01*
X-226153Y-369906D01*
X-209781Y-372618D02*
X-209781Y-356348D01*
X-201646Y-356348D01*
X-198935Y-359060D01*
X-198935Y-364483D01*
X-201646Y-367195D01*
X-209781Y-367195D01*
X-193410Y-361771D02*
X-187986Y-356348D01*
X-187986Y-372618D01*
X-182563Y-372618D02*
X-193410Y-372618D01*
X-342900Y-300990D02*
X-546100Y-300990D01*
X-546100Y-359410D02*
X-342900Y-359410D01*
X-342900Y-300990D01*
X-546100Y-300990D02*
X-546100Y-320040D01*
X-546100Y-340360D02*
X-546100Y-359410D01*
X-546100Y-340360D02*
X-545853Y-340357D01*
X-545605Y-340348D01*
X-545358Y-340333D01*
X-545112Y-340312D01*
X-544866Y-340285D01*
X-544621Y-340252D01*
X-544376Y-340213D01*
X-544133Y-340168D01*
X-543891Y-340117D01*
X-543650Y-340060D01*
X-543411Y-339998D01*
X-543173Y-339929D01*
X-542937Y-339855D01*
X-542703Y-339775D01*
X-542471Y-339690D01*
X-542241Y-339598D01*
X-542013Y-339502D01*
X-541788Y-339399D01*
X-541565Y-339292D01*
X-541345Y-339178D01*
X-541128Y-339060D01*
X-540913Y-338936D01*
X-540702Y-338807D01*
X-540494Y-338673D01*
X-540289Y-338534D01*
X-540088Y-338390D01*
X-539890Y-338242D01*
X-539696Y-338088D01*
X-539506Y-337930D01*
X-539320Y-337767D01*
X-539138Y-337600D01*
X-538960Y-337428D01*
X-538786Y-337252D01*
X-538616Y-337072D01*
X-538451Y-336887D01*
X-538291Y-336699D01*
X-538135Y-336507D01*
X-537983Y-336311D01*
X-537837Y-336112D01*
X-537695Y-335909D01*
X-537559Y-335702D01*
X-537427Y-335493D01*
X-537301Y-335280D01*
X-537180Y-335064D01*
X-537064Y-334846D01*
X-536954Y-334624D01*
X-536849Y-334400D01*
X-536749Y-334174D01*
X-536655Y-333945D01*
X-536567Y-333714D01*
X-536484Y-333480D01*
X-536407Y-333245D01*
X-536336Y-333008D01*
X-536270Y-332770D01*
X-536211Y-332530D01*
X-536157Y-332288D01*
X-536109Y-332045D01*
X-536067Y-331802D01*
X-536031Y-331557D01*
X-536001Y-331311D01*
X-535977Y-331065D01*
X-535959Y-330818D01*
X-535947Y-330571D01*
X-535941Y-330324D01*
X-535941Y-330076D01*
X-535947Y-329829D01*
X-535959Y-329582D01*
X-535977Y-329335D01*
X-536001Y-329089D01*
X-536031Y-328843D01*
X-536067Y-328598D01*
X-536109Y-328355D01*
X-536157Y-328112D01*
X-536211Y-327870D01*
X-536270Y-327630D01*
X-536336Y-327392D01*
X-536407Y-327155D01*
X-536484Y-326920D01*
X-536567Y-326686D01*
X-536655Y-326455D01*
X-536749Y-326226D01*
X-536849Y-326000D01*
X-536954Y-325776D01*
X-537064Y-325554D01*
X-537180Y-325336D01*
X-537301Y-325120D01*
X-537427Y-324907D01*
X-537559Y-324698D01*
X-537695Y-324491D01*
X-537837Y-324288D01*
X-537983Y-324089D01*
X-538135Y-323893D01*
X-538291Y-323701D01*
X-538451Y-323513D01*
X-538616Y-323328D01*
X-538786Y-323148D01*
X-538960Y-322972D01*
X-539138Y-322800D01*
X-539320Y-322633D01*
X-539506Y-322470D01*
X-539696Y-322312D01*
X-539890Y-322158D01*
X-540088Y-322010D01*
X-540289Y-321866D01*
X-540494Y-321727D01*
X-540702Y-321593D01*
X-540913Y-321464D01*
X-541128Y-321340D01*
X-541345Y-321222D01*
X-541565Y-321108D01*
X-541788Y-321001D01*
X-542013Y-320898D01*
X-542241Y-320802D01*
X-542471Y-320710D01*
X-542703Y-320625D01*
X-542937Y-320545D01*
X-543173Y-320471D01*
X-543411Y-320402D01*
X-543650Y-320340D01*
X-543891Y-320283D01*
X-544133Y-320232D01*
X-544376Y-320187D01*
X-544621Y-320148D01*
X-544866Y-320115D01*
X-545112Y-320088D01*
X-545358Y-320067D01*
X-545605Y-320052D01*
X-545853Y-320043D01*
X-546100Y-320040D01*
D11*
X-550545Y-354962D02*
X-550545Y-358775D01*
X-550545Y-356868D02*
X-561985Y-356868D01*
X-561985Y-354962D02*
X-561985Y-358775D01*
X-561985Y-345259D02*
X-560078Y-343353D01*
X-561985Y-345259D02*
X-561985Y-349072D01*
X-560078Y-350979D01*
X-552452Y-350979D01*
X-550545Y-349072D01*
X-550545Y-345259D01*
X-552452Y-343353D01*
X-558172Y-339285D02*
X-561985Y-335472D01*
X-550545Y-335472D01*
X-550545Y-339285D02*
X-550545Y-331659D01*
X-25400Y-133350D02*
X-25400Y6350D01*
X-106680Y6350D01*
X-107150Y6400D02*
X-107150Y-79600D01*
X-107150Y6400D02*
X-106150Y6400D01*
X-107150Y-124600D02*
X-107150Y-133600D01*
X-79150Y-133600D01*
X-35150Y-133600D02*
X-25400Y-133600D01*
D12*
X-11981Y-22214D02*
X-10668Y-20900D01*
X-10668Y-19587D01*
X-11981Y-18273D01*
X-18549Y-18273D01*
X-18549Y-16960D02*
X-18549Y-19587D01*
X-15922Y-14028D02*
X-18549Y-11401D01*
X-10668Y-11401D01*
X-10668Y-14028D02*
X-10668Y-8774D01*
D10*
X-637540Y-307340D02*
X-637542Y-307240D01*
X-637548Y-307141D01*
X-637558Y-307041D01*
X-637571Y-306943D01*
X-637589Y-306844D01*
X-637610Y-306747D01*
X-637635Y-306651D01*
X-637664Y-306555D01*
X-637697Y-306461D01*
X-637733Y-306368D01*
X-637773Y-306277D01*
X-637817Y-306187D01*
X-637864Y-306099D01*
X-637914Y-306013D01*
X-637968Y-305929D01*
X-638025Y-305847D01*
X-638085Y-305768D01*
X-638149Y-305690D01*
X-638215Y-305616D01*
X-638284Y-305544D01*
X-638356Y-305475D01*
X-638430Y-305409D01*
X-638508Y-305345D01*
X-638587Y-305285D01*
X-638669Y-305228D01*
X-638753Y-305174D01*
X-638839Y-305124D01*
X-638927Y-305077D01*
X-639017Y-305033D01*
X-639108Y-304993D01*
X-639201Y-304957D01*
X-639295Y-304924D01*
X-639391Y-304895D01*
X-639487Y-304870D01*
X-639584Y-304849D01*
X-639683Y-304831D01*
X-639781Y-304818D01*
X-639881Y-304808D01*
X-639980Y-304802D01*
X-640080Y-304800D01*
X-655320Y-304800D02*
X-655420Y-304802D01*
X-655519Y-304808D01*
X-655619Y-304818D01*
X-655717Y-304831D01*
X-655816Y-304849D01*
X-655913Y-304870D01*
X-656009Y-304895D01*
X-656105Y-304924D01*
X-656199Y-304957D01*
X-656292Y-304993D01*
X-656383Y-305033D01*
X-656473Y-305077D01*
X-656561Y-305124D01*
X-656647Y-305174D01*
X-656731Y-305228D01*
X-656813Y-305285D01*
X-656892Y-305345D01*
X-656970Y-305409D01*
X-657044Y-305475D01*
X-657116Y-305544D01*
X-657185Y-305616D01*
X-657251Y-305690D01*
X-657315Y-305768D01*
X-657375Y-305847D01*
X-657432Y-305929D01*
X-657486Y-306013D01*
X-657536Y-306099D01*
X-657583Y-306187D01*
X-657627Y-306277D01*
X-657667Y-306368D01*
X-657703Y-306461D01*
X-657736Y-306555D01*
X-657765Y-306651D01*
X-657790Y-306747D01*
X-657811Y-306844D01*
X-657829Y-306943D01*
X-657842Y-307041D01*
X-657852Y-307141D01*
X-657858Y-307240D01*
X-657860Y-307340D01*
X-657860Y-353060D02*
X-657858Y-353160D01*
X-657852Y-353259D01*
X-657842Y-353359D01*
X-657829Y-353457D01*
X-657811Y-353556D01*
X-657790Y-353653D01*
X-657765Y-353749D01*
X-657736Y-353845D01*
X-657703Y-353939D01*
X-657667Y-354032D01*
X-657627Y-354123D01*
X-657583Y-354213D01*
X-657536Y-354301D01*
X-657486Y-354387D01*
X-657432Y-354471D01*
X-657375Y-354553D01*
X-657315Y-354632D01*
X-657251Y-354710D01*
X-657185Y-354784D01*
X-657116Y-354856D01*
X-657044Y-354925D01*
X-656970Y-354991D01*
X-656892Y-355055D01*
X-656813Y-355115D01*
X-656731Y-355172D01*
X-656647Y-355226D01*
X-656561Y-355276D01*
X-656473Y-355323D01*
X-656383Y-355367D01*
X-656292Y-355407D01*
X-656199Y-355443D01*
X-656105Y-355476D01*
X-656009Y-355505D01*
X-655913Y-355530D01*
X-655816Y-355551D01*
X-655717Y-355569D01*
X-655619Y-355582D01*
X-655519Y-355592D01*
X-655420Y-355598D01*
X-655320Y-355600D01*
X-640080Y-355600D02*
X-639980Y-355598D01*
X-639881Y-355592D01*
X-639781Y-355582D01*
X-639683Y-355569D01*
X-639584Y-355551D01*
X-639487Y-355530D01*
X-639391Y-355505D01*
X-639295Y-355476D01*
X-639201Y-355443D01*
X-639108Y-355407D01*
X-639017Y-355367D01*
X-638927Y-355323D01*
X-638839Y-355276D01*
X-638753Y-355226D01*
X-638669Y-355172D01*
X-638587Y-355115D01*
X-638508Y-355055D01*
X-638430Y-354991D01*
X-638356Y-354925D01*
X-638284Y-354856D01*
X-638215Y-354784D01*
X-638149Y-354710D01*
X-638085Y-354632D01*
X-638025Y-354553D01*
X-637968Y-354471D01*
X-637914Y-354387D01*
X-637864Y-354301D01*
X-637817Y-354213D01*
X-637773Y-354123D01*
X-637733Y-354032D01*
X-637697Y-353939D01*
X-637664Y-353845D01*
X-637635Y-353749D01*
X-637610Y-353653D01*
X-637589Y-353556D01*
X-637571Y-353457D01*
X-637558Y-353359D01*
X-637548Y-353259D01*
X-637542Y-353160D01*
X-637540Y-353060D01*
X-640080Y-304800D02*
X-655320Y-304800D01*
X-637540Y-307340D02*
X-637540Y-311150D01*
X-638810Y-312420D01*
X-657860Y-311150D02*
X-657860Y-307340D01*
X-657860Y-311150D02*
X-656590Y-312420D01*
X-638810Y-347980D02*
X-637540Y-349250D01*
X-638810Y-347980D02*
X-638810Y-312420D01*
X-656590Y-347980D02*
X-657860Y-349250D01*
X-656590Y-347980D02*
X-656590Y-312420D01*
X-637540Y-349250D02*
X-637540Y-353060D01*
X-657860Y-353060D02*
X-657860Y-349250D01*
X-655320Y-355600D02*
X-640080Y-355600D01*
D13*
X-647700Y-357505D03*
X-647700Y-302895D03*
D11*
X-634118Y-322408D02*
X-625475Y-322408D01*
X-634118Y-322408D02*
X-634118Y-318086D01*
X-632678Y-316645D01*
X-629797Y-316645D01*
X-628356Y-318086D01*
X-628356Y-322408D01*
X-628356Y-319527D02*
X-625475Y-316645D01*
X-631237Y-313286D02*
X-634118Y-310405D01*
X-625475Y-310405D01*
X-625475Y-313286D02*
X-625475Y-307524D01*
D10*
X-662940Y-307340D02*
X-662942Y-307240D01*
X-662948Y-307141D01*
X-662958Y-307041D01*
X-662971Y-306943D01*
X-662989Y-306844D01*
X-663010Y-306747D01*
X-663035Y-306651D01*
X-663064Y-306555D01*
X-663097Y-306461D01*
X-663133Y-306368D01*
X-663173Y-306277D01*
X-663217Y-306187D01*
X-663264Y-306099D01*
X-663314Y-306013D01*
X-663368Y-305929D01*
X-663425Y-305847D01*
X-663485Y-305768D01*
X-663549Y-305690D01*
X-663615Y-305616D01*
X-663684Y-305544D01*
X-663756Y-305475D01*
X-663830Y-305409D01*
X-663908Y-305345D01*
X-663987Y-305285D01*
X-664069Y-305228D01*
X-664153Y-305174D01*
X-664239Y-305124D01*
X-664327Y-305077D01*
X-664417Y-305033D01*
X-664508Y-304993D01*
X-664601Y-304957D01*
X-664695Y-304924D01*
X-664791Y-304895D01*
X-664887Y-304870D01*
X-664984Y-304849D01*
X-665083Y-304831D01*
X-665181Y-304818D01*
X-665281Y-304808D01*
X-665380Y-304802D01*
X-665480Y-304800D01*
X-680720Y-304800D02*
X-680820Y-304802D01*
X-680919Y-304808D01*
X-681019Y-304818D01*
X-681117Y-304831D01*
X-681216Y-304849D01*
X-681313Y-304870D01*
X-681409Y-304895D01*
X-681505Y-304924D01*
X-681599Y-304957D01*
X-681692Y-304993D01*
X-681783Y-305033D01*
X-681873Y-305077D01*
X-681961Y-305124D01*
X-682047Y-305174D01*
X-682131Y-305228D01*
X-682213Y-305285D01*
X-682292Y-305345D01*
X-682370Y-305409D01*
X-682444Y-305475D01*
X-682516Y-305544D01*
X-682585Y-305616D01*
X-682651Y-305690D01*
X-682715Y-305768D01*
X-682775Y-305847D01*
X-682832Y-305929D01*
X-682886Y-306013D01*
X-682936Y-306099D01*
X-682983Y-306187D01*
X-683027Y-306277D01*
X-683067Y-306368D01*
X-683103Y-306461D01*
X-683136Y-306555D01*
X-683165Y-306651D01*
X-683190Y-306747D01*
X-683211Y-306844D01*
X-683229Y-306943D01*
X-683242Y-307041D01*
X-683252Y-307141D01*
X-683258Y-307240D01*
X-683260Y-307340D01*
X-683260Y-353060D02*
X-683258Y-353160D01*
X-683252Y-353259D01*
X-683242Y-353359D01*
X-683229Y-353457D01*
X-683211Y-353556D01*
X-683190Y-353653D01*
X-683165Y-353749D01*
X-683136Y-353845D01*
X-683103Y-353939D01*
X-683067Y-354032D01*
X-683027Y-354123D01*
X-682983Y-354213D01*
X-682936Y-354301D01*
X-682886Y-354387D01*
X-682832Y-354471D01*
X-682775Y-354553D01*
X-682715Y-354632D01*
X-682651Y-354710D01*
X-682585Y-354784D01*
X-682516Y-354856D01*
X-682444Y-354925D01*
X-682370Y-354991D01*
X-682292Y-355055D01*
X-682213Y-355115D01*
X-682131Y-355172D01*
X-682047Y-355226D01*
X-681961Y-355276D01*
X-681873Y-355323D01*
X-681783Y-355367D01*
X-681692Y-355407D01*
X-681599Y-355443D01*
X-681505Y-355476D01*
X-681409Y-355505D01*
X-681313Y-355530D01*
X-681216Y-355551D01*
X-681117Y-355569D01*
X-681019Y-355582D01*
X-680919Y-355592D01*
X-680820Y-355598D01*
X-680720Y-355600D01*
X-665480Y-355600D02*
X-665380Y-355598D01*
X-665281Y-355592D01*
X-665181Y-355582D01*
X-665083Y-355569D01*
X-664984Y-355551D01*
X-664887Y-355530D01*
X-664791Y-355505D01*
X-664695Y-355476D01*
X-664601Y-355443D01*
X-664508Y-355407D01*
X-664417Y-355367D01*
X-664327Y-355323D01*
X-664239Y-355276D01*
X-664153Y-355226D01*
X-664069Y-355172D01*
X-663987Y-355115D01*
X-663908Y-355055D01*
X-663830Y-354991D01*
X-663756Y-354925D01*
X-663684Y-354856D01*
X-663615Y-354784D01*
X-663549Y-354710D01*
X-663485Y-354632D01*
X-663425Y-354553D01*
X-663368Y-354471D01*
X-663314Y-354387D01*
X-663264Y-354301D01*
X-663217Y-354213D01*
X-663173Y-354123D01*
X-663133Y-354032D01*
X-663097Y-353939D01*
X-663064Y-353845D01*
X-663035Y-353749D01*
X-663010Y-353653D01*
X-662989Y-353556D01*
X-662971Y-353457D01*
X-662958Y-353359D01*
X-662948Y-353259D01*
X-662942Y-353160D01*
X-662940Y-353060D01*
X-665480Y-304800D02*
X-680720Y-304800D01*
X-662940Y-307340D02*
X-662940Y-311150D01*
X-664210Y-312420D01*
X-683260Y-311150D02*
X-683260Y-307340D01*
X-683260Y-311150D02*
X-681990Y-312420D01*
X-664210Y-347980D02*
X-662940Y-349250D01*
X-664210Y-347980D02*
X-664210Y-312420D01*
X-681990Y-347980D02*
X-683260Y-349250D01*
X-681990Y-347980D02*
X-681990Y-312420D01*
X-662940Y-349250D02*
X-662940Y-353060D01*
X-683260Y-353060D02*
X-683260Y-349250D01*
X-680720Y-355600D02*
X-665480Y-355600D01*
D13*
X-673100Y-357505D03*
X-673100Y-302895D03*
D11*
X-659518Y-322408D02*
X-650875Y-322408D01*
X-659518Y-322408D02*
X-659518Y-318086D01*
X-658078Y-316645D01*
X-655197Y-316645D01*
X-653756Y-318086D01*
X-653756Y-322408D01*
X-653756Y-319527D02*
X-650875Y-316645D01*
X-659518Y-313286D02*
X-659518Y-307524D01*
X-659518Y-313286D02*
X-655197Y-313286D01*
X-656637Y-310405D01*
X-656637Y-308965D01*
X-655197Y-307524D01*
X-652316Y-307524D01*
X-650875Y-308965D01*
X-650875Y-311846D01*
X-652316Y-313286D01*
X-72390Y-367030D02*
X-43180Y-368300D01*
X-72390Y-367030D02*
X-74930Y-364490D01*
X-74930Y-270510D01*
X-72390Y-267970D01*
X-43180Y-266700D01*
X-71374Y-272542D02*
X-71372Y-272442D01*
X-71366Y-272341D01*
X-71356Y-272242D01*
X-71342Y-272142D01*
X-71325Y-272043D01*
X-71303Y-271945D01*
X-71277Y-271848D01*
X-71248Y-271752D01*
X-71215Y-271658D01*
X-71178Y-271564D01*
X-71138Y-271472D01*
X-71094Y-271382D01*
X-71046Y-271294D01*
X-70995Y-271207D01*
X-70941Y-271123D01*
X-70883Y-271041D01*
X-70822Y-270961D01*
X-70758Y-270884D01*
X-70691Y-270809D01*
X-70621Y-270737D01*
X-70548Y-270668D01*
X-70473Y-270602D01*
X-70395Y-270538D01*
X-70315Y-270478D01*
X-70232Y-270421D01*
X-70147Y-270368D01*
X-70060Y-270318D01*
X-69971Y-270271D01*
X-69881Y-270228D01*
X-69789Y-270188D01*
X-69695Y-270152D01*
X-69600Y-270120D01*
X-69504Y-270092D01*
X-69406Y-270067D01*
X-69308Y-270047D01*
X-69209Y-270030D01*
X-69109Y-270017D01*
X-69010Y-270008D01*
X-68909Y-270003D01*
X-68809Y-270002D01*
X-68709Y-270005D01*
X-68608Y-270012D01*
X-68509Y-270023D01*
X-68409Y-270038D01*
X-68311Y-270056D01*
X-68213Y-270079D01*
X-68116Y-270106D01*
X-68021Y-270136D01*
X-67926Y-270170D01*
X-67833Y-270208D01*
X-67742Y-270249D01*
X-67652Y-270294D01*
X-67564Y-270342D01*
X-67478Y-270394D01*
X-67394Y-270449D01*
X-67313Y-270508D01*
X-67234Y-270570D01*
X-67157Y-270634D01*
X-67083Y-270702D01*
X-67012Y-270773D01*
X-66943Y-270846D01*
X-66878Y-270922D01*
X-66815Y-271001D01*
X-66756Y-271082D01*
X-66700Y-271165D01*
X-66647Y-271250D01*
X-66598Y-271338D01*
X-66552Y-271427D01*
X-66510Y-271518D01*
X-66471Y-271611D01*
X-66436Y-271705D01*
X-66405Y-271800D01*
X-66377Y-271897D01*
X-66354Y-271994D01*
X-66334Y-272093D01*
X-66318Y-272192D01*
X-66306Y-272291D01*
X-66298Y-272392D01*
X-66294Y-272492D01*
X-66294Y-272592D01*
X-66298Y-272692D01*
X-66306Y-272793D01*
X-66318Y-272892D01*
X-66334Y-272991D01*
X-66354Y-273090D01*
X-66377Y-273187D01*
X-66405Y-273284D01*
X-66436Y-273379D01*
X-66471Y-273473D01*
X-66510Y-273566D01*
X-66552Y-273657D01*
X-66598Y-273746D01*
X-66647Y-273834D01*
X-66700Y-273919D01*
X-66756Y-274002D01*
X-66815Y-274083D01*
X-66878Y-274162D01*
X-66943Y-274238D01*
X-67012Y-274311D01*
X-67083Y-274382D01*
X-67157Y-274450D01*
X-67234Y-274514D01*
X-67313Y-274576D01*
X-67394Y-274635D01*
X-67478Y-274690D01*
X-67564Y-274742D01*
X-67652Y-274790D01*
X-67742Y-274835D01*
X-67833Y-274876D01*
X-67926Y-274914D01*
X-68021Y-274948D01*
X-68116Y-274978D01*
X-68213Y-275005D01*
X-68311Y-275028D01*
X-68409Y-275046D01*
X-68509Y-275061D01*
X-68608Y-275072D01*
X-68709Y-275079D01*
X-68809Y-275082D01*
X-68909Y-275081D01*
X-69010Y-275076D01*
X-69109Y-275067D01*
X-69209Y-275054D01*
X-69308Y-275037D01*
X-69406Y-275017D01*
X-69504Y-274992D01*
X-69600Y-274964D01*
X-69695Y-274932D01*
X-69789Y-274896D01*
X-69881Y-274856D01*
X-69971Y-274813D01*
X-70060Y-274766D01*
X-70147Y-274716D01*
X-70232Y-274663D01*
X-70315Y-274606D01*
X-70395Y-274546D01*
X-70473Y-274482D01*
X-70548Y-274416D01*
X-70621Y-274347D01*
X-70691Y-274275D01*
X-70758Y-274200D01*
X-70822Y-274123D01*
X-70883Y-274043D01*
X-70941Y-273961D01*
X-70995Y-273877D01*
X-71046Y-273790D01*
X-71094Y-273702D01*
X-71138Y-273612D01*
X-71178Y-273520D01*
X-71215Y-273426D01*
X-71248Y-273332D01*
X-71277Y-273236D01*
X-71303Y-273139D01*
X-71325Y-273041D01*
X-71342Y-272942D01*
X-71356Y-272842D01*
X-71366Y-272743D01*
X-71372Y-272642D01*
X-71374Y-272542D01*
D14*
X-35560Y-317500D03*
D15*
X-41910Y-273685D03*
D16*
X-41910Y-304800D03*
X-41910Y-330200D03*
D15*
X-41910Y-361315D03*
D11*
X-80137Y-297249D02*
X-80137Y-293436D01*
X-80137Y-295342D02*
X-91577Y-295342D01*
X-91577Y-293436D02*
X-91577Y-297249D01*
X-91577Y-283733D02*
X-89670Y-281827D01*
X-91577Y-283733D02*
X-91577Y-287546D01*
X-89670Y-289453D01*
X-82044Y-289453D01*
X-80137Y-287546D01*
X-80137Y-283733D01*
X-82044Y-281827D01*
X-80137Y-277759D02*
X-80137Y-270133D01*
X-80137Y-277759D02*
X-87764Y-270133D01*
X-89670Y-270133D01*
X-91577Y-272039D01*
X-91577Y-275852D01*
X-89670Y-277759D01*
X-82550Y-234950D02*
X-31750Y-234950D01*
X-31750Y-260350D02*
X-82550Y-260350D01*
X-82859Y-260346D01*
X-83168Y-260335D01*
X-83477Y-260316D01*
X-83785Y-260290D01*
X-84093Y-260256D01*
X-84399Y-260215D01*
X-84705Y-260166D01*
X-85009Y-260110D01*
X-85311Y-260046D01*
X-85612Y-259975D01*
X-85912Y-259897D01*
X-86209Y-259812D01*
X-86504Y-259719D01*
X-86797Y-259619D01*
X-87087Y-259512D01*
X-87374Y-259398D01*
X-87659Y-259277D01*
X-87941Y-259149D01*
X-88219Y-259015D01*
X-88494Y-258873D01*
X-88766Y-258725D01*
X-89033Y-258570D01*
X-89297Y-258409D01*
X-89557Y-258242D01*
X-89813Y-258068D01*
X-90065Y-257888D01*
X-90312Y-257702D01*
X-90554Y-257510D01*
X-90792Y-257312D01*
X-91025Y-257109D01*
X-91253Y-256899D01*
X-91475Y-256685D01*
X-91693Y-256465D01*
X-91905Y-256239D01*
X-92111Y-256009D01*
X-92312Y-255774D01*
X-92507Y-255534D01*
X-92696Y-255289D01*
X-92879Y-255040D01*
X-93056Y-254786D01*
X-93226Y-254528D01*
X-93391Y-254266D01*
X-93549Y-254000D01*
X-93700Y-253730D01*
X-93845Y-253457D01*
X-93983Y-253180D01*
X-94114Y-252900D01*
X-94238Y-252617D01*
X-94356Y-252331D01*
X-94466Y-252042D01*
X-94570Y-251751D01*
X-94666Y-251457D01*
X-94755Y-251161D01*
X-94837Y-250862D01*
X-94912Y-250562D01*
X-94979Y-250260D01*
X-95039Y-249957D01*
X-95091Y-249652D01*
X-95136Y-249346D01*
X-95174Y-249039D01*
X-95204Y-248731D01*
X-95226Y-248423D01*
X-95242Y-248114D01*
X-95249Y-247805D01*
X-95249Y-247495D01*
X-95242Y-247186D01*
X-95226Y-246877D01*
X-95204Y-246569D01*
X-95174Y-246261D01*
X-95136Y-245954D01*
X-95091Y-245648D01*
X-95039Y-245343D01*
X-94979Y-245040D01*
X-94912Y-244738D01*
X-94837Y-244438D01*
X-94755Y-244139D01*
X-94666Y-243843D01*
X-94570Y-243549D01*
X-94466Y-243258D01*
X-94356Y-242969D01*
X-94238Y-242683D01*
X-94114Y-242400D01*
X-93983Y-242120D01*
X-93845Y-241843D01*
X-93700Y-241570D01*
X-93549Y-241300D01*
X-93391Y-241034D01*
X-93226Y-240772D01*
X-93056Y-240514D01*
X-92879Y-240260D01*
X-92696Y-240011D01*
X-92507Y-239766D01*
X-92312Y-239526D01*
X-92111Y-239291D01*
X-91905Y-239061D01*
X-91693Y-238835D01*
X-91475Y-238615D01*
X-91253Y-238401D01*
X-91025Y-238191D01*
X-90792Y-237988D01*
X-90554Y-237790D01*
X-90312Y-237598D01*
X-90065Y-237412D01*
X-89813Y-237232D01*
X-89557Y-237058D01*
X-89297Y-236891D01*
X-89033Y-236730D01*
X-88766Y-236575D01*
X-88494Y-236427D01*
X-88219Y-236285D01*
X-87941Y-236151D01*
X-87659Y-236023D01*
X-87374Y-235902D01*
X-87087Y-235788D01*
X-86797Y-235681D01*
X-86504Y-235581D01*
X-86209Y-235488D01*
X-85912Y-235403D01*
X-85612Y-235325D01*
X-85311Y-235254D01*
X-85009Y-235190D01*
X-84705Y-235134D01*
X-84399Y-235085D01*
X-84093Y-235044D01*
X-83785Y-235010D01*
X-83477Y-234984D01*
X-83168Y-234965D01*
X-82859Y-234954D01*
X-82550Y-234950D01*
X-31750Y-234950D02*
X-31441Y-234954D01*
X-31132Y-234965D01*
X-30823Y-234984D01*
X-30515Y-235010D01*
X-30207Y-235044D01*
X-29901Y-235085D01*
X-29595Y-235134D01*
X-29291Y-235190D01*
X-28989Y-235254D01*
X-28688Y-235325D01*
X-28388Y-235403D01*
X-28091Y-235488D01*
X-27796Y-235581D01*
X-27503Y-235681D01*
X-27213Y-235788D01*
X-26926Y-235902D01*
X-26641Y-236023D01*
X-26359Y-236151D01*
X-26081Y-236285D01*
X-25806Y-236427D01*
X-25534Y-236575D01*
X-25267Y-236730D01*
X-25003Y-236891D01*
X-24743Y-237058D01*
X-24487Y-237232D01*
X-24235Y-237412D01*
X-23988Y-237598D01*
X-23746Y-237790D01*
X-23508Y-237988D01*
X-23275Y-238191D01*
X-23047Y-238401D01*
X-22825Y-238615D01*
X-22607Y-238835D01*
X-22395Y-239061D01*
X-22189Y-239291D01*
X-21988Y-239526D01*
X-21793Y-239766D01*
X-21604Y-240011D01*
X-21421Y-240260D01*
X-21244Y-240514D01*
X-21074Y-240772D01*
X-20909Y-241034D01*
X-20751Y-241300D01*
X-20600Y-241570D01*
X-20455Y-241843D01*
X-20317Y-242120D01*
X-20186Y-242400D01*
X-20062Y-242683D01*
X-19944Y-242969D01*
X-19834Y-243258D01*
X-19730Y-243549D01*
X-19634Y-243843D01*
X-19545Y-244139D01*
X-19463Y-244438D01*
X-19388Y-244738D01*
X-19321Y-245040D01*
X-19261Y-245343D01*
X-19209Y-245648D01*
X-19164Y-245954D01*
X-19126Y-246261D01*
X-19096Y-246569D01*
X-19074Y-246877D01*
X-19058Y-247186D01*
X-19051Y-247495D01*
X-19051Y-247805D01*
X-19058Y-248114D01*
X-19074Y-248423D01*
X-19096Y-248731D01*
X-19126Y-249039D01*
X-19164Y-249346D01*
X-19209Y-249652D01*
X-19261Y-249957D01*
X-19321Y-250260D01*
X-19388Y-250562D01*
X-19463Y-250862D01*
X-19545Y-251161D01*
X-19634Y-251457D01*
X-19730Y-251751D01*
X-19834Y-252042D01*
X-19944Y-252331D01*
X-20062Y-252617D01*
X-20186Y-252900D01*
X-20317Y-253180D01*
X-20455Y-253457D01*
X-20600Y-253730D01*
X-20751Y-254000D01*
X-20909Y-254266D01*
X-21074Y-254528D01*
X-21244Y-254786D01*
X-21421Y-255040D01*
X-21604Y-255289D01*
X-21793Y-255534D01*
X-21988Y-255774D01*
X-22189Y-256009D01*
X-22395Y-256239D01*
X-22607Y-256465D01*
X-22825Y-256685D01*
X-23047Y-256899D01*
X-23275Y-257109D01*
X-23508Y-257312D01*
X-23746Y-257510D01*
X-23988Y-257702D01*
X-24235Y-257888D01*
X-24487Y-258068D01*
X-24743Y-258242D01*
X-25003Y-258409D01*
X-25267Y-258570D01*
X-25534Y-258725D01*
X-25806Y-258873D01*
X-26081Y-259015D01*
X-26359Y-259149D01*
X-26641Y-259277D01*
X-26926Y-259398D01*
X-27213Y-259512D01*
X-27503Y-259619D01*
X-27796Y-259719D01*
X-28091Y-259812D01*
X-28388Y-259897D01*
X-28688Y-259975D01*
X-28989Y-260046D01*
X-29291Y-260110D01*
X-29595Y-260166D01*
X-29901Y-260215D01*
X-30207Y-260256D01*
X-30515Y-260290D01*
X-30823Y-260316D01*
X-31132Y-260335D01*
X-31441Y-260346D01*
X-31750Y-260350D01*
D17*
X-60325Y-247650D02*
X-60325Y-244475D01*
X-60325Y-247650D02*
X-60325Y-250825D01*
X-53975Y-250825D02*
X-53975Y-247650D01*
X-53975Y-244475D01*
D11*
X-60325Y-247650D02*
X-66675Y-247650D01*
X-53975Y-247650D02*
X-47625Y-247650D01*
D12*
X-86946Y-221522D02*
X-88895Y-219573D01*
X-92793Y-219573D01*
X-94742Y-221522D01*
X-94742Y-229318D01*
X-92793Y-231267D01*
X-88895Y-231267D01*
X-86946Y-229318D01*
X-83048Y-223471D02*
X-79150Y-219573D01*
X-79150Y-231267D01*
X-83048Y-231267D02*
X-75252Y-231267D01*
D11*
X-82550Y-374650D02*
X-31750Y-374650D01*
X-31750Y-400050D02*
X-82550Y-400050D01*
X-82859Y-400046D01*
X-83168Y-400035D01*
X-83477Y-400016D01*
X-83785Y-399990D01*
X-84093Y-399956D01*
X-84399Y-399915D01*
X-84705Y-399866D01*
X-85009Y-399810D01*
X-85311Y-399746D01*
X-85612Y-399675D01*
X-85912Y-399597D01*
X-86209Y-399512D01*
X-86504Y-399419D01*
X-86797Y-399319D01*
X-87087Y-399212D01*
X-87374Y-399098D01*
X-87659Y-398977D01*
X-87941Y-398849D01*
X-88219Y-398715D01*
X-88494Y-398573D01*
X-88766Y-398425D01*
X-89033Y-398270D01*
X-89297Y-398109D01*
X-89557Y-397942D01*
X-89813Y-397768D01*
X-90065Y-397588D01*
X-90312Y-397402D01*
X-90554Y-397210D01*
X-90792Y-397012D01*
X-91025Y-396809D01*
X-91253Y-396599D01*
X-91475Y-396385D01*
X-91693Y-396165D01*
X-91905Y-395939D01*
X-92111Y-395709D01*
X-92312Y-395474D01*
X-92507Y-395234D01*
X-92696Y-394989D01*
X-92879Y-394740D01*
X-93056Y-394486D01*
X-93226Y-394228D01*
X-93391Y-393966D01*
X-93549Y-393700D01*
X-93700Y-393430D01*
X-93845Y-393157D01*
X-93983Y-392880D01*
X-94114Y-392600D01*
X-94238Y-392317D01*
X-94356Y-392031D01*
X-94466Y-391742D01*
X-94570Y-391451D01*
X-94666Y-391157D01*
X-94755Y-390861D01*
X-94837Y-390562D01*
X-94912Y-390262D01*
X-94979Y-389960D01*
X-95039Y-389657D01*
X-95091Y-389352D01*
X-95136Y-389046D01*
X-95174Y-388739D01*
X-95204Y-388431D01*
X-95226Y-388123D01*
X-95242Y-387814D01*
X-95249Y-387505D01*
X-95249Y-387195D01*
X-95242Y-386886D01*
X-95226Y-386577D01*
X-95204Y-386269D01*
X-95174Y-385961D01*
X-95136Y-385654D01*
X-95091Y-385348D01*
X-95039Y-385043D01*
X-94979Y-384740D01*
X-94912Y-384438D01*
X-94837Y-384138D01*
X-94755Y-383839D01*
X-94666Y-383543D01*
X-94570Y-383249D01*
X-94466Y-382958D01*
X-94356Y-382669D01*
X-94238Y-382383D01*
X-94114Y-382100D01*
X-93983Y-381820D01*
X-93845Y-381543D01*
X-93700Y-381270D01*
X-93549Y-381000D01*
X-93391Y-380734D01*
X-93226Y-380472D01*
X-93056Y-380214D01*
X-92879Y-379960D01*
X-92696Y-379711D01*
X-92507Y-379466D01*
X-92312Y-379226D01*
X-92111Y-378991D01*
X-91905Y-378761D01*
X-91693Y-378535D01*
X-91475Y-378315D01*
X-91253Y-378101D01*
X-91025Y-377891D01*
X-90792Y-377688D01*
X-90554Y-377490D01*
X-90312Y-377298D01*
X-90065Y-377112D01*
X-89813Y-376932D01*
X-89557Y-376758D01*
X-89297Y-376591D01*
X-89033Y-376430D01*
X-88766Y-376275D01*
X-88494Y-376127D01*
X-88219Y-375985D01*
X-87941Y-375851D01*
X-87659Y-375723D01*
X-87374Y-375602D01*
X-87087Y-375488D01*
X-86797Y-375381D01*
X-86504Y-375281D01*
X-86209Y-375188D01*
X-85912Y-375103D01*
X-85612Y-375025D01*
X-85311Y-374954D01*
X-85009Y-374890D01*
X-84705Y-374834D01*
X-84399Y-374785D01*
X-84093Y-374744D01*
X-83785Y-374710D01*
X-83477Y-374684D01*
X-83168Y-374665D01*
X-82859Y-374654D01*
X-82550Y-374650D01*
X-31750Y-374650D02*
X-31441Y-374654D01*
X-31132Y-374665D01*
X-30823Y-374684D01*
X-30515Y-374710D01*
X-30207Y-374744D01*
X-29901Y-374785D01*
X-29595Y-374834D01*
X-29291Y-374890D01*
X-28989Y-374954D01*
X-28688Y-375025D01*
X-28388Y-375103D01*
X-28091Y-375188D01*
X-27796Y-375281D01*
X-27503Y-375381D01*
X-27213Y-375488D01*
X-26926Y-375602D01*
X-26641Y-375723D01*
X-26359Y-375851D01*
X-26081Y-375985D01*
X-25806Y-376127D01*
X-25534Y-376275D01*
X-25267Y-376430D01*
X-25003Y-376591D01*
X-24743Y-376758D01*
X-24487Y-376932D01*
X-24235Y-377112D01*
X-23988Y-377298D01*
X-23746Y-377490D01*
X-23508Y-377688D01*
X-23275Y-377891D01*
X-23047Y-378101D01*
X-22825Y-378315D01*
X-22607Y-378535D01*
X-22395Y-378761D01*
X-22189Y-378991D01*
X-21988Y-379226D01*
X-21793Y-379466D01*
X-21604Y-379711D01*
X-21421Y-379960D01*
X-21244Y-380214D01*
X-21074Y-380472D01*
X-20909Y-380734D01*
X-20751Y-381000D01*
X-20600Y-381270D01*
X-20455Y-381543D01*
X-20317Y-381820D01*
X-20186Y-382100D01*
X-20062Y-382383D01*
X-19944Y-382669D01*
X-19834Y-382958D01*
X-19730Y-383249D01*
X-19634Y-383543D01*
X-19545Y-383839D01*
X-19463Y-384138D01*
X-19388Y-384438D01*
X-19321Y-384740D01*
X-19261Y-385043D01*
X-19209Y-385348D01*
X-19164Y-385654D01*
X-19126Y-385961D01*
X-19096Y-386269D01*
X-19074Y-386577D01*
X-19058Y-386886D01*
X-19051Y-387195D01*
X-19051Y-387505D01*
X-19058Y-387814D01*
X-19074Y-388123D01*
X-19096Y-388431D01*
X-19126Y-388739D01*
X-19164Y-389046D01*
X-19209Y-389352D01*
X-19261Y-389657D01*
X-19321Y-389960D01*
X-19388Y-390262D01*
X-19463Y-390562D01*
X-19545Y-390861D01*
X-19634Y-391157D01*
X-19730Y-391451D01*
X-19834Y-391742D01*
X-19944Y-392031D01*
X-20062Y-392317D01*
X-20186Y-392600D01*
X-20317Y-392880D01*
X-20455Y-393157D01*
X-20600Y-393430D01*
X-20751Y-393700D01*
X-20909Y-393966D01*
X-21074Y-394228D01*
X-21244Y-394486D01*
X-21421Y-394740D01*
X-21604Y-394989D01*
X-21793Y-395234D01*
X-21988Y-395474D01*
X-22189Y-395709D01*
X-22395Y-395939D01*
X-22607Y-396165D01*
X-22825Y-396385D01*
X-23047Y-396599D01*
X-23275Y-396809D01*
X-23508Y-397012D01*
X-23746Y-397210D01*
X-23988Y-397402D01*
X-24235Y-397588D01*
X-24487Y-397768D01*
X-24743Y-397942D01*
X-25003Y-398109D01*
X-25267Y-398270D01*
X-25534Y-398425D01*
X-25806Y-398573D01*
X-26081Y-398715D01*
X-26359Y-398849D01*
X-26641Y-398977D01*
X-26926Y-399098D01*
X-27213Y-399212D01*
X-27503Y-399319D01*
X-27796Y-399419D01*
X-28091Y-399512D01*
X-28388Y-399597D01*
X-28688Y-399675D01*
X-28989Y-399746D01*
X-29291Y-399810D01*
X-29595Y-399866D01*
X-29901Y-399915D01*
X-30207Y-399956D01*
X-30515Y-399990D01*
X-30823Y-400016D01*
X-31132Y-400035D01*
X-31441Y-400046D01*
X-31750Y-400050D01*
D17*
X-60325Y-387350D02*
X-60325Y-384175D01*
X-60325Y-387350D02*
X-60325Y-390525D01*
X-53975Y-390525D02*
X-53975Y-387350D01*
X-53975Y-384175D01*
D11*
X-60325Y-387350D02*
X-66675Y-387350D01*
X-53975Y-387350D02*
X-47625Y-387350D01*
D12*
X-86946Y-361222D02*
X-88895Y-359273D01*
X-92793Y-359273D01*
X-94742Y-361222D01*
X-94742Y-369018D01*
X-92793Y-370967D01*
X-88895Y-370967D01*
X-86946Y-369018D01*
X-83048Y-370967D02*
X-75252Y-370967D01*
X-83048Y-370967D02*
X-75252Y-363171D01*
X-75252Y-361222D01*
X-77201Y-359273D01*
X-81099Y-359273D01*
X-83048Y-361222D01*
D18*
X-635000Y-95250D02*
X-635000Y-63500D01*
X-635000Y-95250D02*
X-628650Y-95250D01*
X-628650Y-88900D01*
X-615950Y-88900D01*
X-615950Y-95250D01*
X-603250Y-95250D01*
X-603250Y-88900D01*
X-590550Y-88900D01*
X-590550Y-95250D01*
X-577850Y-95250D01*
X-577850Y-88900D01*
X-565150Y-88900D01*
X-565150Y-95250D01*
X-552450Y-95250D01*
X-552450Y-88900D01*
X-539750Y-88900D01*
X-539750Y-95250D01*
X-533400Y-95250D01*
X-533400Y-63500D01*
X-542290Y-63500D01*
X-622300Y-63500D01*
X-635000Y-63500D01*
X-622300Y-63500D02*
X-622300Y16510D01*
X-619760Y21590D01*
X-583692Y21590D01*
X-546100Y16510D02*
X-546100Y-63500D01*
X-546100Y16510D02*
X-548640Y21590D01*
X-584708Y21590D01*
X-542290Y-1270D02*
X-542290Y-63500D01*
X-542290Y-1270D02*
X-545592Y2286D01*
X-626110Y-1270D02*
X-626110Y-63500D01*
X-626110Y-1270D02*
X-622808Y2286D01*
D19*
X-629279Y-75746D02*
X-625636Y-79390D01*
X-629279Y-75746D02*
X-618348Y-75746D01*
X-618348Y-79390D02*
X-618348Y-72102D01*
X-553587Y-75194D02*
X-542656Y-75194D01*
X-548122Y-80660D02*
X-553587Y-75194D01*
X-548122Y-73372D02*
X-548122Y-80660D01*
D12*
X-633968Y-143271D02*
X-635493Y-141746D01*
X-633968Y-143271D02*
X-632442Y-143271D01*
X-630917Y-141746D01*
X-630917Y-134119D01*
X-632442Y-134119D02*
X-629392Y-134119D01*
X-626138Y-135645D02*
X-624613Y-134119D01*
X-621562Y-134119D01*
X-620037Y-135645D01*
X-620037Y-137170D01*
X-621562Y-138695D01*
X-623087Y-138695D01*
X-621562Y-138695D02*
X-620037Y-140220D01*
X-620037Y-141746D01*
X-621562Y-143271D01*
X-624613Y-143271D01*
X-626138Y-141746D01*
D18*
X-730250Y-330200D02*
X-762000Y-330200D01*
X-730250Y-330200D02*
X-730250Y-323850D01*
X-736600Y-323850D01*
X-736600Y-311150D01*
X-730250Y-311150D01*
X-730250Y-298450D01*
X-736600Y-298450D01*
X-736600Y-285750D01*
X-730250Y-285750D01*
X-730250Y-273050D01*
X-736600Y-273050D01*
X-736600Y-260350D01*
X-730250Y-260350D01*
X-730250Y-254000D01*
X-762000Y-254000D01*
X-762000Y-262890D01*
D11*
X-762000Y-317500D01*
D18*
X-762000Y-330200D01*
X-762000Y-317500D02*
X-842010Y-317500D01*
X-847090Y-314960D01*
X-847090Y-278892D01*
X-842010Y-266700D02*
X-762000Y-266700D01*
X-842010Y-266700D02*
X-847090Y-269240D01*
X-847090Y-279908D01*
X-824230Y-262890D02*
X-762000Y-262890D01*
X-824230Y-262890D02*
X-827786Y-266192D01*
X-824230Y-321310D02*
X-762000Y-321310D01*
X-824230Y-321310D02*
X-827786Y-318008D01*
D19*
X-756026Y-317182D02*
X-752382Y-313539D01*
X-752382Y-324470D01*
X-756026Y-324470D02*
X-748738Y-324470D01*
X-754756Y-265069D02*
X-752934Y-263247D01*
X-749290Y-263247D01*
X-747468Y-265069D01*
X-747468Y-266890D01*
X-749290Y-268712D01*
X-751112Y-268712D01*
X-749290Y-268712D02*
X-747468Y-270534D01*
X-747468Y-272356D01*
X-749290Y-274178D01*
X-752934Y-274178D01*
X-754756Y-272356D01*
D12*
X-683754Y-330693D02*
X-682229Y-329168D01*
X-682229Y-327642D01*
X-683754Y-326117D01*
X-691381Y-326117D01*
X-691381Y-327642D02*
X-691381Y-324592D01*
X-691381Y-316762D02*
X-682229Y-316762D01*
X-686805Y-321338D02*
X-691381Y-316762D01*
X-686805Y-315237D02*
X-686805Y-321338D01*
D18*
X-730250Y-241300D02*
X-762000Y-241300D01*
X-730250Y-241300D02*
X-730250Y-234950D01*
X-736600Y-234950D01*
X-736600Y-222250D01*
X-730250Y-222250D01*
X-730250Y-209550D01*
X-736600Y-209550D01*
X-736600Y-196850D01*
X-730250Y-196850D01*
X-730250Y-184150D01*
X-736600Y-184150D01*
X-736600Y-171450D01*
X-730250Y-171450D01*
X-730250Y-165100D01*
X-762000Y-165100D01*
X-762000Y-173990D01*
D11*
X-762000Y-228600D01*
D18*
X-762000Y-241300D01*
X-762000Y-228600D02*
X-842010Y-228600D01*
X-847090Y-226060D01*
X-847090Y-189992D01*
X-842010Y-177800D02*
X-762000Y-177800D01*
X-842010Y-177800D02*
X-847090Y-180340D01*
X-847090Y-191008D01*
X-824230Y-173990D02*
X-762000Y-173990D01*
X-824230Y-173990D02*
X-827786Y-177292D01*
X-824230Y-232410D02*
X-762000Y-232410D01*
X-824230Y-232410D02*
X-827786Y-229108D01*
D19*
X-756026Y-228282D02*
X-752382Y-224639D01*
X-752382Y-235570D01*
X-756026Y-235570D02*
X-748738Y-235570D01*
X-754756Y-176169D02*
X-752934Y-174347D01*
X-749290Y-174347D01*
X-747468Y-176169D01*
X-747468Y-177990D01*
X-749290Y-179812D01*
X-751112Y-179812D01*
X-749290Y-179812D02*
X-747468Y-181634D01*
X-747468Y-183456D01*
X-749290Y-185278D01*
X-752934Y-185278D01*
X-754756Y-183456D01*
D12*
X-683754Y-241793D02*
X-682229Y-240268D01*
X-682229Y-238742D01*
X-683754Y-237217D01*
X-691381Y-237217D01*
X-691381Y-238742D02*
X-691381Y-235692D01*
X-691381Y-232438D02*
X-691381Y-226337D01*
X-691381Y-232438D02*
X-686805Y-232438D01*
X-688330Y-229387D01*
X-688330Y-227862D01*
X-686805Y-226337D01*
X-683754Y-226337D01*
X-682229Y-227862D01*
X-682229Y-230913D01*
X-683754Y-232438D01*
D11*
X-440690Y-84450D02*
X-440690Y-42550D01*
X-468559Y-39370D02*
X-469143Y-39653D01*
X-469719Y-39951D01*
X-470288Y-40262D01*
X-470849Y-40587D01*
X-471402Y-40926D01*
X-471947Y-41278D01*
X-472483Y-41643D01*
X-473010Y-42021D01*
X-473527Y-42412D01*
X-474035Y-42815D01*
X-474533Y-43231D01*
X-475021Y-43658D01*
X-475498Y-44097D01*
X-475965Y-44548D01*
X-476420Y-45010D01*
X-476864Y-45483D01*
X-477296Y-45966D01*
X-477717Y-46460D01*
X-478125Y-46964D01*
X-478521Y-47478D01*
X-478904Y-48001D01*
X-479275Y-48533D01*
X-479632Y-49075D01*
X-479976Y-49624D01*
X-480307Y-50182D01*
X-480624Y-50748D01*
X-480927Y-51321D01*
X-481216Y-51902D01*
X-481491Y-52489D01*
X-481752Y-53083D01*
X-481998Y-53683D01*
X-482229Y-54289D01*
X-482446Y-54901D01*
X-482647Y-55517D01*
X-482834Y-56138D01*
X-483005Y-56764D01*
X-483161Y-57393D01*
X-483302Y-58026D01*
X-483428Y-58663D01*
X-483537Y-59302D01*
X-483632Y-59943D01*
X-483710Y-60587D01*
X-483773Y-61233D01*
X-483821Y-61880D01*
X-483852Y-62527D01*
X-483868Y-63176D01*
X-483868Y-63824D01*
X-483852Y-64473D01*
X-483821Y-65120D01*
X-483773Y-65767D01*
X-483710Y-66413D01*
X-483632Y-67057D01*
X-483537Y-67698D01*
X-483428Y-68337D01*
X-483302Y-68974D01*
X-483161Y-69607D01*
X-483005Y-70236D01*
X-482834Y-70862D01*
X-482647Y-71483D01*
X-482446Y-72099D01*
X-482229Y-72711D01*
X-481998Y-73317D01*
X-481752Y-73917D01*
X-481491Y-74511D01*
X-481216Y-75098D01*
X-480927Y-75679D01*
X-480624Y-76252D01*
X-480307Y-76818D01*
X-479976Y-77376D01*
X-479632Y-77925D01*
X-479275Y-78467D01*
X-478904Y-78999D01*
X-478521Y-79522D01*
X-478125Y-80036D01*
X-477717Y-80540D01*
X-477296Y-81034D01*
X-476864Y-81517D01*
X-476420Y-81990D01*
X-475965Y-82452D01*
X-475498Y-82903D01*
X-475021Y-83342D01*
X-474533Y-83769D01*
X-474035Y-84185D01*
X-473527Y-84588D01*
X-473010Y-84979D01*
X-472483Y-85357D01*
X-471947Y-85722D01*
X-471402Y-86074D01*
X-470849Y-86413D01*
X-470288Y-86738D01*
X-469719Y-87049D01*
X-469143Y-87347D01*
X-468559Y-87630D01*
X-445841Y-87635D02*
X-445295Y-87370D01*
X-444755Y-87093D01*
X-444222Y-86804D01*
X-443695Y-86502D01*
X-443175Y-86189D01*
X-442662Y-85864D01*
X-442157Y-85527D01*
X-441660Y-85179D01*
X-441171Y-84820D01*
X-440690Y-84450D01*
X-455930Y-77540D02*
X-455930Y-74860D01*
X-455930Y-52140D02*
X-455930Y-49460D01*
X-446082Y-39253D02*
X-445509Y-39524D01*
X-444943Y-39809D01*
X-444384Y-40106D01*
X-443832Y-40417D01*
X-443288Y-40742D01*
X-442752Y-41078D01*
X-442223Y-41428D01*
X-441703Y-41790D01*
X-441192Y-42164D01*
X-440690Y-42550D01*
X-490222Y-88265D02*
X-497848Y-88265D01*
X-499755Y-86358D01*
X-499755Y-82545D01*
X-497848Y-80639D01*
X-490222Y-80639D01*
X-488315Y-82545D01*
X-488315Y-86358D01*
X-490222Y-88265D01*
X-492128Y-84452D02*
X-488315Y-80639D01*
X-495942Y-76571D02*
X-499755Y-72758D01*
X-488315Y-72758D01*
X-488315Y-76571D02*
X-488315Y-68945D01*
X-295910Y-84450D02*
X-295910Y-42550D01*
X-268041Y-39370D02*
X-267457Y-39653D01*
X-266881Y-39951D01*
X-266312Y-40262D01*
X-265751Y-40587D01*
X-265198Y-40926D01*
X-264653Y-41278D01*
X-264117Y-41643D01*
X-263590Y-42021D01*
X-263073Y-42412D01*
X-262565Y-42815D01*
X-262067Y-43231D01*
X-261579Y-43658D01*
X-261102Y-44097D01*
X-260635Y-44548D01*
X-260180Y-45010D01*
X-259736Y-45483D01*
X-259304Y-45966D01*
X-258883Y-46460D01*
X-258475Y-46964D01*
X-258079Y-47478D01*
X-257696Y-48001D01*
X-257325Y-48533D01*
X-256968Y-49075D01*
X-256624Y-49624D01*
X-256293Y-50182D01*
X-255976Y-50748D01*
X-255673Y-51321D01*
X-255384Y-51902D01*
X-255109Y-52489D01*
X-254848Y-53083D01*
X-254602Y-53683D01*
X-254371Y-54289D01*
X-254154Y-54901D01*
X-253953Y-55517D01*
X-253766Y-56138D01*
X-253595Y-56764D01*
X-253439Y-57393D01*
X-253298Y-58026D01*
X-253172Y-58663D01*
X-253063Y-59302D01*
X-252968Y-59943D01*
X-252890Y-60587D01*
X-252827Y-61233D01*
X-252779Y-61880D01*
X-252748Y-62527D01*
X-252732Y-63176D01*
X-252732Y-63824D01*
X-252748Y-64473D01*
X-252779Y-65120D01*
X-252827Y-65767D01*
X-252890Y-66413D01*
X-252968Y-67057D01*
X-253063Y-67698D01*
X-253172Y-68337D01*
X-253298Y-68974D01*
X-253439Y-69607D01*
X-253595Y-70236D01*
X-253766Y-70862D01*
X-253953Y-71483D01*
X-254154Y-72099D01*
X-254371Y-72711D01*
X-254602Y-73317D01*
X-254848Y-73917D01*
X-255109Y-74511D01*
X-255384Y-75098D01*
X-255673Y-75679D01*
X-255976Y-76252D01*
X-256293Y-76818D01*
X-256624Y-77376D01*
X-256968Y-77925D01*
X-257325Y-78467D01*
X-257696Y-78999D01*
X-258079Y-79522D01*
X-258475Y-80036D01*
X-258883Y-80540D01*
X-259304Y-81034D01*
X-259736Y-81517D01*
X-260180Y-81990D01*
X-260635Y-82452D01*
X-261102Y-82903D01*
X-261579Y-83342D01*
X-262067Y-83769D01*
X-262565Y-84185D01*
X-263073Y-84588D01*
X-263590Y-84979D01*
X-264117Y-85357D01*
X-264653Y-85722D01*
X-265198Y-86074D01*
X-265751Y-86413D01*
X-266312Y-86738D01*
X-266881Y-87049D01*
X-267457Y-87347D01*
X-268041Y-87630D01*
X-295910Y-42550D02*
X-295429Y-42180D01*
X-294940Y-41821D01*
X-294443Y-41473D01*
X-293938Y-41136D01*
X-293425Y-40811D01*
X-292905Y-40498D01*
X-292378Y-40196D01*
X-291845Y-39907D01*
X-291305Y-39630D01*
X-290759Y-39365D01*
X-280670Y-49460D02*
X-280670Y-52140D01*
X-280670Y-74860D02*
X-280670Y-77540D01*
X-290518Y-87747D02*
X-291091Y-87476D01*
X-291657Y-87191D01*
X-292216Y-86894D01*
X-292768Y-86583D01*
X-293312Y-86258D01*
X-293848Y-85922D01*
X-294377Y-85572D01*
X-294897Y-85210D01*
X-295408Y-84836D01*
X-295910Y-84450D01*
X-246388Y-60853D02*
X-238762Y-60853D01*
X-246388Y-60853D02*
X-248295Y-58946D01*
X-248295Y-55133D01*
X-246388Y-53226D01*
X-238762Y-53226D01*
X-236855Y-55133D01*
X-236855Y-58946D01*
X-238762Y-60853D01*
X-240668Y-57040D02*
X-236855Y-53226D01*
X-236855Y-49159D02*
X-236855Y-41533D01*
X-236855Y-49159D02*
X-244482Y-41533D01*
X-246388Y-41533D01*
X-248295Y-43439D01*
X-248295Y-47252D01*
X-246388Y-49159D01*
D10*
X-515620Y-127000D02*
X-515720Y-126998D01*
X-515819Y-126992D01*
X-515919Y-126982D01*
X-516017Y-126969D01*
X-516116Y-126951D01*
X-516213Y-126930D01*
X-516309Y-126905D01*
X-516405Y-126876D01*
X-516499Y-126843D01*
X-516592Y-126807D01*
X-516683Y-126767D01*
X-516773Y-126723D01*
X-516861Y-126676D01*
X-516947Y-126626D01*
X-517031Y-126572D01*
X-517113Y-126515D01*
X-517192Y-126455D01*
X-517270Y-126391D01*
X-517344Y-126325D01*
X-517416Y-126256D01*
X-517485Y-126184D01*
X-517551Y-126110D01*
X-517615Y-126032D01*
X-517675Y-125953D01*
X-517732Y-125871D01*
X-517786Y-125787D01*
X-517836Y-125701D01*
X-517883Y-125613D01*
X-517927Y-125523D01*
X-517967Y-125432D01*
X-518003Y-125339D01*
X-518036Y-125245D01*
X-518065Y-125149D01*
X-518090Y-125053D01*
X-518111Y-124956D01*
X-518129Y-124857D01*
X-518142Y-124759D01*
X-518152Y-124659D01*
X-518158Y-124560D01*
X-518160Y-124460D01*
X-500380Y-127000D02*
X-500280Y-126998D01*
X-500181Y-126992D01*
X-500081Y-126982D01*
X-499983Y-126969D01*
X-499884Y-126951D01*
X-499787Y-126930D01*
X-499691Y-126905D01*
X-499595Y-126876D01*
X-499501Y-126843D01*
X-499408Y-126807D01*
X-499317Y-126767D01*
X-499227Y-126723D01*
X-499139Y-126676D01*
X-499053Y-126626D01*
X-498969Y-126572D01*
X-498887Y-126515D01*
X-498808Y-126455D01*
X-498730Y-126391D01*
X-498656Y-126325D01*
X-498584Y-126256D01*
X-498515Y-126184D01*
X-498449Y-126110D01*
X-498385Y-126032D01*
X-498325Y-125953D01*
X-498268Y-125871D01*
X-498214Y-125787D01*
X-498164Y-125701D01*
X-498117Y-125613D01*
X-498073Y-125523D01*
X-498033Y-125432D01*
X-497997Y-125339D01*
X-497964Y-125245D01*
X-497935Y-125149D01*
X-497910Y-125053D01*
X-497889Y-124956D01*
X-497871Y-124857D01*
X-497858Y-124759D01*
X-497848Y-124659D01*
X-497842Y-124560D01*
X-497840Y-124460D01*
X-497840Y-78740D02*
X-497842Y-78640D01*
X-497848Y-78541D01*
X-497858Y-78441D01*
X-497871Y-78343D01*
X-497889Y-78244D01*
X-497910Y-78147D01*
X-497935Y-78051D01*
X-497964Y-77955D01*
X-497997Y-77861D01*
X-498033Y-77768D01*
X-498073Y-77677D01*
X-498117Y-77587D01*
X-498164Y-77499D01*
X-498214Y-77413D01*
X-498268Y-77329D01*
X-498325Y-77247D01*
X-498385Y-77168D01*
X-498449Y-77090D01*
X-498515Y-77016D01*
X-498584Y-76944D01*
X-498656Y-76875D01*
X-498730Y-76809D01*
X-498808Y-76745D01*
X-498887Y-76685D01*
X-498969Y-76628D01*
X-499053Y-76574D01*
X-499139Y-76524D01*
X-499227Y-76477D01*
X-499317Y-76433D01*
X-499408Y-76393D01*
X-499501Y-76357D01*
X-499595Y-76324D01*
X-499691Y-76295D01*
X-499787Y-76270D01*
X-499884Y-76249D01*
X-499983Y-76231D01*
X-500081Y-76218D01*
X-500181Y-76208D01*
X-500280Y-76202D01*
X-500380Y-76200D01*
X-515620Y-76200D02*
X-515720Y-76202D01*
X-515819Y-76208D01*
X-515919Y-76218D01*
X-516017Y-76231D01*
X-516116Y-76249D01*
X-516213Y-76270D01*
X-516309Y-76295D01*
X-516405Y-76324D01*
X-516499Y-76357D01*
X-516592Y-76393D01*
X-516683Y-76433D01*
X-516773Y-76477D01*
X-516861Y-76524D01*
X-516947Y-76574D01*
X-517031Y-76628D01*
X-517113Y-76685D01*
X-517192Y-76745D01*
X-517270Y-76809D01*
X-517344Y-76875D01*
X-517416Y-76944D01*
X-517485Y-77016D01*
X-517551Y-77090D01*
X-517615Y-77168D01*
X-517675Y-77247D01*
X-517732Y-77329D01*
X-517786Y-77413D01*
X-517836Y-77499D01*
X-517883Y-77587D01*
X-517927Y-77677D01*
X-517967Y-77768D01*
X-518003Y-77861D01*
X-518036Y-77955D01*
X-518065Y-78051D01*
X-518090Y-78147D01*
X-518111Y-78244D01*
X-518129Y-78343D01*
X-518142Y-78441D01*
X-518152Y-78541D01*
X-518158Y-78640D01*
X-518160Y-78740D01*
X-515620Y-127000D02*
X-500380Y-127000D01*
X-518160Y-124460D02*
X-518160Y-120650D01*
X-516890Y-119380D01*
X-497840Y-120650D02*
X-497840Y-124460D01*
X-497840Y-120650D02*
X-499110Y-119380D01*
X-516890Y-83820D02*
X-518160Y-82550D01*
X-516890Y-83820D02*
X-516890Y-119380D01*
X-499110Y-83820D02*
X-497840Y-82550D01*
X-499110Y-83820D02*
X-499110Y-119380D01*
X-518160Y-82550D02*
X-518160Y-78740D01*
X-497840Y-78740D02*
X-497840Y-82550D01*
X-500380Y-76200D02*
X-515620Y-76200D01*
D13*
X-508000Y-74295D03*
X-508000Y-128905D03*
D11*
X-521589Y-126365D02*
X-530232Y-126365D01*
X-530232Y-122043D01*
X-528792Y-120603D01*
X-525911Y-120603D01*
X-524470Y-122043D01*
X-524470Y-126365D01*
X-524470Y-123484D02*
X-521589Y-120603D01*
X-528792Y-114363D02*
X-530232Y-111481D01*
X-528792Y-114363D02*
X-525911Y-117244D01*
X-523030Y-117244D01*
X-521589Y-115803D01*
X-521589Y-112922D01*
X-523030Y-111481D01*
X-524470Y-111481D01*
X-525911Y-112922D01*
X-525911Y-117244D01*
D10*
X-340360Y-124460D02*
X-340358Y-124560D01*
X-340352Y-124659D01*
X-340342Y-124759D01*
X-340329Y-124857D01*
X-340311Y-124956D01*
X-340290Y-125053D01*
X-340265Y-125149D01*
X-340236Y-125245D01*
X-340203Y-125339D01*
X-340167Y-125432D01*
X-340127Y-125523D01*
X-340083Y-125613D01*
X-340036Y-125701D01*
X-339986Y-125787D01*
X-339932Y-125871D01*
X-339875Y-125953D01*
X-339815Y-126032D01*
X-339751Y-126110D01*
X-339685Y-126184D01*
X-339616Y-126256D01*
X-339544Y-126325D01*
X-339470Y-126391D01*
X-339392Y-126455D01*
X-339313Y-126515D01*
X-339231Y-126572D01*
X-339147Y-126626D01*
X-339061Y-126676D01*
X-338973Y-126723D01*
X-338883Y-126767D01*
X-338792Y-126807D01*
X-338699Y-126843D01*
X-338605Y-126876D01*
X-338509Y-126905D01*
X-338413Y-126930D01*
X-338316Y-126951D01*
X-338217Y-126969D01*
X-338119Y-126982D01*
X-338019Y-126992D01*
X-337920Y-126998D01*
X-337820Y-127000D01*
X-322580Y-127000D02*
X-322480Y-126998D01*
X-322381Y-126992D01*
X-322281Y-126982D01*
X-322183Y-126969D01*
X-322084Y-126951D01*
X-321987Y-126930D01*
X-321891Y-126905D01*
X-321795Y-126876D01*
X-321701Y-126843D01*
X-321608Y-126807D01*
X-321517Y-126767D01*
X-321427Y-126723D01*
X-321339Y-126676D01*
X-321253Y-126626D01*
X-321169Y-126572D01*
X-321087Y-126515D01*
X-321008Y-126455D01*
X-320930Y-126391D01*
X-320856Y-126325D01*
X-320784Y-126256D01*
X-320715Y-126184D01*
X-320649Y-126110D01*
X-320585Y-126032D01*
X-320525Y-125953D01*
X-320468Y-125871D01*
X-320414Y-125787D01*
X-320364Y-125701D01*
X-320317Y-125613D01*
X-320273Y-125523D01*
X-320233Y-125432D01*
X-320197Y-125339D01*
X-320164Y-125245D01*
X-320135Y-125149D01*
X-320110Y-125053D01*
X-320089Y-124956D01*
X-320071Y-124857D01*
X-320058Y-124759D01*
X-320048Y-124659D01*
X-320042Y-124560D01*
X-320040Y-124460D01*
X-320040Y-78740D02*
X-320042Y-78640D01*
X-320048Y-78541D01*
X-320058Y-78441D01*
X-320071Y-78343D01*
X-320089Y-78244D01*
X-320110Y-78147D01*
X-320135Y-78051D01*
X-320164Y-77955D01*
X-320197Y-77861D01*
X-320233Y-77768D01*
X-320273Y-77677D01*
X-320317Y-77587D01*
X-320364Y-77499D01*
X-320414Y-77413D01*
X-320468Y-77329D01*
X-320525Y-77247D01*
X-320585Y-77168D01*
X-320649Y-77090D01*
X-320715Y-77016D01*
X-320784Y-76944D01*
X-320856Y-76875D01*
X-320930Y-76809D01*
X-321008Y-76745D01*
X-321087Y-76685D01*
X-321169Y-76628D01*
X-321253Y-76574D01*
X-321339Y-76524D01*
X-321427Y-76477D01*
X-321517Y-76433D01*
X-321608Y-76393D01*
X-321701Y-76357D01*
X-321795Y-76324D01*
X-321891Y-76295D01*
X-321987Y-76270D01*
X-322084Y-76249D01*
X-322183Y-76231D01*
X-322281Y-76218D01*
X-322381Y-76208D01*
X-322480Y-76202D01*
X-322580Y-76200D01*
X-337820Y-76200D02*
X-337920Y-76202D01*
X-338019Y-76208D01*
X-338119Y-76218D01*
X-338217Y-76231D01*
X-338316Y-76249D01*
X-338413Y-76270D01*
X-338509Y-76295D01*
X-338605Y-76324D01*
X-338699Y-76357D01*
X-338792Y-76393D01*
X-338883Y-76433D01*
X-338973Y-76477D01*
X-339061Y-76524D01*
X-339147Y-76574D01*
X-339231Y-76628D01*
X-339313Y-76685D01*
X-339392Y-76745D01*
X-339470Y-76809D01*
X-339544Y-76875D01*
X-339616Y-76944D01*
X-339685Y-77016D01*
X-339751Y-77090D01*
X-339815Y-77168D01*
X-339875Y-77247D01*
X-339932Y-77329D01*
X-339986Y-77413D01*
X-340036Y-77499D01*
X-340083Y-77587D01*
X-340127Y-77677D01*
X-340167Y-77768D01*
X-340203Y-77861D01*
X-340236Y-77955D01*
X-340265Y-78051D01*
X-340290Y-78147D01*
X-340311Y-78244D01*
X-340329Y-78343D01*
X-340342Y-78441D01*
X-340352Y-78541D01*
X-340358Y-78640D01*
X-340360Y-78740D01*
X-337820Y-127000D02*
X-322580Y-127000D01*
X-340360Y-124460D02*
X-340360Y-120650D01*
X-339090Y-119380D01*
X-320040Y-120650D02*
X-320040Y-124460D01*
X-320040Y-120650D02*
X-321310Y-119380D01*
X-339090Y-83820D02*
X-340360Y-82550D01*
X-339090Y-83820D02*
X-339090Y-119380D01*
X-321310Y-83820D02*
X-320040Y-82550D01*
X-321310Y-83820D02*
X-321310Y-119380D01*
X-340360Y-82550D02*
X-340360Y-78740D01*
X-320040Y-78740D02*
X-320040Y-82550D01*
X-322580Y-76200D02*
X-337820Y-76200D01*
D13*
X-330200Y-74295D03*
X-330200Y-128905D03*
D11*
X-343789Y-126365D02*
X-352432Y-126365D01*
X-352432Y-122043D01*
X-350992Y-120603D01*
X-348111Y-120603D01*
X-346670Y-122043D01*
X-346670Y-126365D01*
X-346670Y-123484D02*
X-343789Y-120603D01*
X-352432Y-117244D02*
X-352432Y-111481D01*
X-350992Y-111481D01*
X-345230Y-117244D01*
X-343789Y-117244D01*
D20*
X-349250Y-1300D02*
X-367250Y-1300D01*
X-407200Y-1300D01*
X-425200Y-1300D01*
X-425200Y-99050D01*
X-349250Y-99050D01*
X-349250Y-1300D01*
X-367250Y-25550D02*
X-407200Y-25550D01*
X-367250Y-25550D02*
X-367250Y-1300D01*
X-407200Y-1300D02*
X-407200Y-25550D01*
D12*
X-432658Y-94742D02*
X-444352Y-94742D01*
X-436556Y-90844D02*
X-432658Y-94742D01*
X-436556Y-90844D02*
X-432658Y-86946D01*
X-444352Y-86946D01*
X-440454Y-83048D02*
X-432658Y-83048D01*
X-440454Y-83048D02*
X-444352Y-79150D01*
X-440454Y-75252D01*
X-432658Y-75252D01*
X-438505Y-75252D02*
X-438505Y-83048D01*
X-432658Y-67456D02*
X-444352Y-67456D01*
X-444352Y-71354D02*
X-444352Y-63558D01*
X-444352Y-59660D02*
X-444352Y-51864D01*
X-444352Y-59660D02*
X-432658Y-59660D01*
X-432658Y-51864D01*
X-438505Y-55762D02*
X-438505Y-59660D01*
X-432658Y-47966D02*
X-444352Y-47966D01*
X-444352Y-42119D01*
X-442403Y-40170D01*
X-438505Y-40170D01*
X-436556Y-42119D01*
X-436556Y-47966D01*
X-436556Y-44068D02*
X-432658Y-40170D01*
D20*
X-189450Y-1300D02*
X-171450Y-1300D01*
X-189450Y-1300D02*
X-229400Y-1300D01*
X-247400Y-1300D01*
X-247400Y-99050D01*
X-171450Y-99050D01*
X-171450Y-1300D01*
X-189450Y-25550D02*
X-229400Y-25550D01*
X-189450Y-25550D02*
X-189450Y-1300D01*
X-229400Y-1300D02*
X-229400Y-25550D01*
D12*
X-264603Y-86946D02*
X-266552Y-88895D01*
X-266552Y-92793D01*
X-264603Y-94742D01*
X-256807Y-94742D01*
X-254858Y-92793D01*
X-254858Y-88895D01*
X-256807Y-86946D01*
X-260705Y-86946D01*
X-260705Y-90844D01*
X-254858Y-83048D02*
X-266552Y-83048D01*
X-266552Y-77201D01*
X-264603Y-75252D01*
X-260705Y-75252D01*
X-258756Y-77201D01*
X-258756Y-83048D01*
X-258756Y-79150D02*
X-254858Y-75252D01*
X-266552Y-69405D02*
X-266552Y-65507D01*
X-266552Y-69405D02*
X-264603Y-71354D01*
X-256807Y-71354D01*
X-254858Y-69405D01*
X-254858Y-65507D01*
X-256807Y-63558D01*
X-264603Y-63558D01*
X-266552Y-65507D01*
X-266552Y-59660D02*
X-254858Y-59660D01*
X-258756Y-55762D01*
X-254858Y-51864D01*
X-266552Y-51864D01*
D10*
X-655320Y-177800D02*
X-655420Y-177798D01*
X-655519Y-177792D01*
X-655619Y-177782D01*
X-655717Y-177769D01*
X-655816Y-177751D01*
X-655913Y-177730D01*
X-656009Y-177705D01*
X-656105Y-177676D01*
X-656199Y-177643D01*
X-656292Y-177607D01*
X-656383Y-177567D01*
X-656473Y-177523D01*
X-656561Y-177476D01*
X-656647Y-177426D01*
X-656731Y-177372D01*
X-656813Y-177315D01*
X-656892Y-177255D01*
X-656970Y-177191D01*
X-657044Y-177125D01*
X-657116Y-177056D01*
X-657185Y-176984D01*
X-657251Y-176910D01*
X-657315Y-176832D01*
X-657375Y-176753D01*
X-657432Y-176671D01*
X-657486Y-176587D01*
X-657536Y-176501D01*
X-657583Y-176413D01*
X-657627Y-176323D01*
X-657667Y-176232D01*
X-657703Y-176139D01*
X-657736Y-176045D01*
X-657765Y-175949D01*
X-657790Y-175853D01*
X-657811Y-175756D01*
X-657829Y-175657D01*
X-657842Y-175559D01*
X-657852Y-175459D01*
X-657858Y-175360D01*
X-657860Y-175260D01*
X-640080Y-177800D02*
X-639980Y-177798D01*
X-639881Y-177792D01*
X-639781Y-177782D01*
X-639683Y-177769D01*
X-639584Y-177751D01*
X-639487Y-177730D01*
X-639391Y-177705D01*
X-639295Y-177676D01*
X-639201Y-177643D01*
X-639108Y-177607D01*
X-639017Y-177567D01*
X-638927Y-177523D01*
X-638839Y-177476D01*
X-638753Y-177426D01*
X-638669Y-177372D01*
X-638587Y-177315D01*
X-638508Y-177255D01*
X-638430Y-177191D01*
X-638356Y-177125D01*
X-638284Y-177056D01*
X-638215Y-176984D01*
X-638149Y-176910D01*
X-638085Y-176832D01*
X-638025Y-176753D01*
X-637968Y-176671D01*
X-637914Y-176587D01*
X-637864Y-176501D01*
X-637817Y-176413D01*
X-637773Y-176323D01*
X-637733Y-176232D01*
X-637697Y-176139D01*
X-637664Y-176045D01*
X-637635Y-175949D01*
X-637610Y-175853D01*
X-637589Y-175756D01*
X-637571Y-175657D01*
X-637558Y-175559D01*
X-637548Y-175459D01*
X-637542Y-175360D01*
X-637540Y-175260D01*
X-637540Y-129540D02*
X-637542Y-129440D01*
X-637548Y-129341D01*
X-637558Y-129241D01*
X-637571Y-129143D01*
X-637589Y-129044D01*
X-637610Y-128947D01*
X-637635Y-128851D01*
X-637664Y-128755D01*
X-637697Y-128661D01*
X-637733Y-128568D01*
X-637773Y-128477D01*
X-637817Y-128387D01*
X-637864Y-128299D01*
X-637914Y-128213D01*
X-637968Y-128129D01*
X-638025Y-128047D01*
X-638085Y-127968D01*
X-638149Y-127890D01*
X-638215Y-127816D01*
X-638284Y-127744D01*
X-638356Y-127675D01*
X-638430Y-127609D01*
X-638508Y-127545D01*
X-638587Y-127485D01*
X-638669Y-127428D01*
X-638753Y-127374D01*
X-638839Y-127324D01*
X-638927Y-127277D01*
X-639017Y-127233D01*
X-639108Y-127193D01*
X-639201Y-127157D01*
X-639295Y-127124D01*
X-639391Y-127095D01*
X-639487Y-127070D01*
X-639584Y-127049D01*
X-639683Y-127031D01*
X-639781Y-127018D01*
X-639881Y-127008D01*
X-639980Y-127002D01*
X-640080Y-127000D01*
X-655320Y-127000D02*
X-655420Y-127002D01*
X-655519Y-127008D01*
X-655619Y-127018D01*
X-655717Y-127031D01*
X-655816Y-127049D01*
X-655913Y-127070D01*
X-656009Y-127095D01*
X-656105Y-127124D01*
X-656199Y-127157D01*
X-656292Y-127193D01*
X-656383Y-127233D01*
X-656473Y-127277D01*
X-656561Y-127324D01*
X-656647Y-127374D01*
X-656731Y-127428D01*
X-656813Y-127485D01*
X-656892Y-127545D01*
X-656970Y-127609D01*
X-657044Y-127675D01*
X-657116Y-127744D01*
X-657185Y-127816D01*
X-657251Y-127890D01*
X-657315Y-127968D01*
X-657375Y-128047D01*
X-657432Y-128129D01*
X-657486Y-128213D01*
X-657536Y-128299D01*
X-657583Y-128387D01*
X-657627Y-128477D01*
X-657667Y-128568D01*
X-657703Y-128661D01*
X-657736Y-128755D01*
X-657765Y-128851D01*
X-657790Y-128947D01*
X-657811Y-129044D01*
X-657829Y-129143D01*
X-657842Y-129241D01*
X-657852Y-129341D01*
X-657858Y-129440D01*
X-657860Y-129540D01*
X-655320Y-177800D02*
X-640080Y-177800D01*
X-657860Y-175260D02*
X-657860Y-171450D01*
X-656590Y-170180D01*
X-637540Y-171450D02*
X-637540Y-175260D01*
X-637540Y-171450D02*
X-638810Y-170180D01*
X-656590Y-134620D02*
X-657860Y-133350D01*
X-656590Y-134620D02*
X-656590Y-170180D01*
X-638810Y-134620D02*
X-637540Y-133350D01*
X-638810Y-134620D02*
X-638810Y-170180D01*
X-657860Y-133350D02*
X-657860Y-129540D01*
X-637540Y-129540D02*
X-637540Y-133350D01*
X-640080Y-127000D02*
X-655320Y-127000D01*
D13*
X-647700Y-125095D03*
X-647700Y-179705D03*
D11*
X-661289Y-177165D02*
X-669932Y-177165D01*
X-669932Y-172843D01*
X-668492Y-171403D01*
X-665611Y-171403D01*
X-664170Y-172843D01*
X-664170Y-177165D01*
X-664170Y-174284D02*
X-661289Y-171403D01*
X-668492Y-168044D02*
X-669932Y-166603D01*
X-669932Y-163722D01*
X-668492Y-162281D01*
X-667051Y-162281D01*
X-665611Y-163722D01*
X-664170Y-162281D01*
X-662730Y-162281D01*
X-661289Y-163722D01*
X-661289Y-166603D01*
X-662730Y-168044D01*
X-664170Y-168044D01*
X-665611Y-166603D01*
X-667051Y-168044D01*
X-668492Y-168044D01*
X-665611Y-166603D02*
X-665611Y-163722D01*
D10*
X-679450Y-469900D02*
X-692150Y-469900D01*
X-679450Y-469900D02*
X-673100Y-476250D01*
X-673100Y-488950D02*
X-679450Y-495300D01*
X-673100Y-476250D02*
X-666750Y-469900D01*
X-654050Y-469900D01*
X-647700Y-476250D01*
X-647700Y-488950D02*
X-654050Y-495300D01*
X-666750Y-495300D01*
X-673100Y-488950D01*
X-698500Y-488950D02*
X-698500Y-476250D01*
X-692150Y-469900D01*
X-698500Y-488950D02*
X-692150Y-495300D01*
X-679450Y-495300D01*
X-647700Y-476250D02*
X-641350Y-469900D01*
X-628650Y-469900D01*
X-622300Y-476250D01*
X-622300Y-488950D02*
X-628650Y-495300D01*
X-641350Y-495300D01*
X-647700Y-488950D01*
X-615950Y-469900D02*
X-603250Y-469900D01*
X-596900Y-476250D01*
X-596900Y-488950D01*
X-603250Y-495300D01*
X-622300Y-476250D02*
X-615950Y-469900D01*
X-622300Y-488950D02*
X-615950Y-495300D01*
X-603250Y-495300D01*
D11*
X-705482Y-476875D02*
X-709295Y-480689D01*
X-705482Y-476875D02*
X-705482Y-488315D01*
X-709295Y-488315D02*
X-701669Y-488315D01*
X-588005Y-488315D02*
X-588005Y-476875D01*
X-593725Y-482595D01*
X-586099Y-482595D01*
X-690239Y-455922D02*
X-692145Y-454015D01*
X-695958Y-454015D01*
X-697865Y-455922D01*
X-697865Y-457829D01*
X-695958Y-459735D01*
X-692145Y-459735D01*
X-690239Y-461642D01*
X-690239Y-463548D01*
X-692145Y-465455D01*
X-695958Y-465455D01*
X-697865Y-463548D01*
X-686171Y-461642D02*
X-686171Y-454015D01*
X-686171Y-461642D02*
X-682358Y-465455D01*
X-678545Y-461642D01*
X-678545Y-454015D01*
X-674477Y-465455D02*
X-666851Y-465455D01*
X-674477Y-465455D02*
X-666851Y-457829D01*
X-666851Y-455922D01*
X-668757Y-454015D01*
X-672570Y-454015D01*
X-674477Y-455922D01*
D18*
X-730250Y-393700D02*
X-762000Y-393700D01*
X-730250Y-393700D02*
X-730250Y-387350D01*
X-736600Y-387350D01*
X-736600Y-374650D01*
X-730250Y-374650D01*
X-730250Y-361950D01*
X-736600Y-361950D01*
X-736600Y-349250D01*
X-730250Y-349250D01*
X-730250Y-342900D01*
X-762000Y-342900D01*
X-762000Y-351790D01*
X-762000Y-381000D01*
X-762000Y-393700D01*
X-762000Y-381000D02*
X-842010Y-381000D01*
X-847090Y-378460D01*
X-847090Y-367792D01*
X-842010Y-355600D02*
X-762000Y-355600D01*
X-842010Y-355600D02*
X-847090Y-358140D01*
X-847090Y-367792D01*
X-847090Y-368808D01*
X-824230Y-351790D02*
X-762000Y-351790D01*
X-824230Y-351790D02*
X-827786Y-355092D01*
X-824230Y-384810D02*
X-762000Y-384810D01*
X-824230Y-384810D02*
X-827786Y-381508D01*
D19*
X-756026Y-380682D02*
X-752382Y-377039D01*
X-752382Y-387970D01*
X-756026Y-387970D02*
X-748738Y-387970D01*
X-747468Y-363078D02*
X-754756Y-363078D01*
X-747468Y-355790D01*
X-747468Y-353969D01*
X-749290Y-352147D01*
X-752934Y-352147D01*
X-754756Y-353969D01*
D12*
X-683754Y-394193D02*
X-682229Y-392668D01*
X-682229Y-391142D01*
X-683754Y-389617D01*
X-691381Y-389617D01*
X-691381Y-391142D02*
X-691381Y-388092D01*
X-682229Y-384838D02*
X-682229Y-378737D01*
X-682229Y-384838D02*
X-688330Y-378737D01*
X-689856Y-378737D01*
X-691381Y-380262D01*
X-691381Y-383313D01*
X-689856Y-384838D01*
D18*
X-730250Y-457200D02*
X-762000Y-457200D01*
X-730250Y-457200D02*
X-730250Y-450850D01*
X-736600Y-450850D01*
X-736600Y-438150D01*
X-730250Y-438150D01*
X-730250Y-425450D01*
X-736600Y-425450D01*
X-736600Y-412750D01*
X-730250Y-412750D01*
X-730250Y-406400D01*
X-762000Y-406400D01*
X-762000Y-415290D01*
X-762000Y-444500D01*
X-762000Y-457200D01*
X-762000Y-444500D02*
X-842010Y-444500D01*
X-847090Y-441960D01*
X-847090Y-431292D01*
X-842010Y-419100D02*
X-762000Y-419100D01*
X-842010Y-419100D02*
X-847090Y-421640D01*
X-847090Y-431292D01*
X-847090Y-432308D01*
X-824230Y-415290D02*
X-762000Y-415290D01*
X-824230Y-415290D02*
X-827786Y-418592D01*
X-824230Y-448310D02*
X-762000Y-448310D01*
X-824230Y-448310D02*
X-827786Y-445008D01*
D19*
X-756026Y-444182D02*
X-752382Y-440539D01*
X-752382Y-451470D01*
X-756026Y-451470D02*
X-748738Y-451470D01*
X-747468Y-426578D02*
X-754756Y-426578D01*
X-747468Y-419290D01*
X-747468Y-417469D01*
X-749290Y-415647D01*
X-752934Y-415647D01*
X-754756Y-417469D01*
D12*
X-683754Y-457693D02*
X-682229Y-456168D01*
X-682229Y-454642D01*
X-683754Y-453117D01*
X-691381Y-453117D01*
X-691381Y-454642D02*
X-691381Y-451592D01*
X-689856Y-445287D02*
X-691381Y-442237D01*
X-689856Y-445287D02*
X-686805Y-448338D01*
X-683754Y-448338D01*
X-682229Y-446813D01*
X-682229Y-443762D01*
X-683754Y-442237D01*
X-685280Y-442237D01*
X-686805Y-443762D01*
X-686805Y-448338D01*
D18*
X-730250Y-152400D02*
X-762000Y-152400D01*
X-730250Y-152400D02*
X-730250Y-146050D01*
X-736600Y-146050D01*
X-736600Y-133350D01*
X-730250Y-133350D01*
X-730250Y-120650D01*
X-736600Y-120650D01*
X-736600Y-107950D01*
X-730250Y-107950D01*
X-730250Y-101600D01*
X-762000Y-101600D01*
X-762000Y-110490D01*
X-762000Y-139700D01*
X-762000Y-152400D01*
X-762000Y-139700D02*
X-842010Y-139700D01*
X-847090Y-137160D01*
X-847090Y-126492D01*
X-842010Y-114300D02*
X-762000Y-114300D01*
X-842010Y-114300D02*
X-847090Y-116840D01*
X-847090Y-126492D01*
X-847090Y-127508D01*
X-824230Y-110490D02*
X-762000Y-110490D01*
X-824230Y-110490D02*
X-827786Y-113792D01*
X-824230Y-143510D02*
X-762000Y-143510D01*
X-824230Y-143510D02*
X-827786Y-140208D01*
D19*
X-756026Y-139382D02*
X-752382Y-135739D01*
X-752382Y-146670D01*
X-756026Y-146670D02*
X-748738Y-146670D01*
X-747468Y-121778D02*
X-754756Y-121778D01*
X-747468Y-114490D01*
X-747468Y-112669D01*
X-749290Y-110847D01*
X-752934Y-110847D01*
X-754756Y-112669D01*
D12*
X-683754Y-152893D02*
X-682229Y-151368D01*
X-682229Y-149842D01*
X-683754Y-148317D01*
X-691381Y-148317D01*
X-691381Y-149842D02*
X-691381Y-146792D01*
X-691381Y-143538D02*
X-691381Y-137437D01*
X-689856Y-137437D01*
X-683754Y-143538D01*
X-682229Y-143538D01*
M02*
