M48
;GenerationSoftware,Autodesk,EAGLE,9.4.2*%
;CreationDate,2020-03-21T00:03:03Z*%
FMAT,2
ICI,OFF
METRIC,TZ,000.000
T4C0.813
T3C1.000
T2C1.016
T1C1.700
%
G90
M71
T1
X-40715Y-5080
X-18975Y-5080
X-36755Y-5080
X-22935Y-5080
T2
X-71120Y-17780
X-71120Y-20320
X-5715Y-29210
X-71120Y-22860
X-71120Y-26670
X-71120Y-29210
X-71120Y-31750
X-54610Y-11430
X-57150Y-11430
X-59690Y-11430
X-71120Y-11430
X-62230Y-11430
X-5715Y-34290
X-5715Y-31750
X-68580Y-48260
X-66040Y-48260
X-63500Y-48260
X-60960Y-48260
X-71120Y-38100
X-71120Y-35560
X-71120Y-44450
X-71120Y-41910
X-71120Y-13970
T3
X-38100Y-44450
X-35560Y-44450
X-30480Y-44450
X-27940Y-44450
X-25400Y-44450
X-22860Y-44450
X-58420Y-16510
X-55880Y-16510
X-53340Y-16510
X-50800Y-16510
X-48260Y-16510
X-45720Y-16510
X-43180Y-16510
X-40640Y-16510
X-38100Y-16510
X-35560Y-16510
X-33020Y-16510
X-30480Y-16510
X-27940Y-16510
X-25400Y-16510
X-22860Y-16510
X-3175Y-38735
X-33020Y-44450
X-8255Y-24765
X-3175Y-24765
X-8255Y-38735
X-60960Y-35560
X-60960Y-29210
X-58420Y-44450
X-55880Y-44450
X-53340Y-44450
X-50800Y-44450
X-48260Y-44450
X-45720Y-44450
X-43180Y-44450
X-40640Y-44450
T4
X-45720Y-29210
X-43180Y-29210
X-40640Y-29210
X-38100Y-29210
X-35560Y-29210
X-43180Y-36830
X-40640Y-36830
X-48260Y-36830
X-35560Y-36830
X-45720Y-8890
X-38100Y-36830
X-45720Y-6350
X-27940Y-3810
X-27940Y-8890
X-27940Y-6350
X-50800Y-13970
X-50800Y-6350
X-33020Y-13970
X-33020Y-6350
X-50800Y-36830
X-53340Y-36830
X-67310Y-29210
X-45720Y-36830
X-64770Y-19050
X-64770Y-11430
X-67310Y-36830
X-5715Y-7112
X-53340Y-29210
X-50800Y-29210
X-10668Y-10160
X-64770Y-29210
X-64770Y-36830
X-5715Y-13335
X-48260Y-29210
X-45720Y-3810
M30