<?xml version="1.0" standalone="no"?>
<!DOCTYPE svg PUBLIC "-//W3C//DTD SVG 20010904//EN"
 "http://www.w3.org/TR/2001/REC-SVG-20010904/DTD/svg10.dtd">
<svg version="1.0" xmlns="http://www.w3.org/2000/svg"
 width="1500.000000pt" height="1500.000000pt" viewBox="0 0 1500.000000 1500.000000"
 preserveAspectRatio="xMidYMid meet">

<g transform="translate(0.000000,1500.000000) scale(0.100000,-0.100000)"
fill="#000000" stroke="none">
<path d="M7830 12860 c-14 -5 -101 -33 -195 -63 -164 -54 -318 -107 -360 -126
-11 -5 -63 -26 -115 -46 -475 -188 -984 -467 -1338 -734 -582 -438 -942 -934
-1076 -1483 -25 -101 -56 -324 -56 -405 0 -39 -4 -75 -10 -78 -5 -3 -32 41
-59 99 -157 335 -411 576 -716 678 -131 44 -178 55 -295 69 -104 12 -130 11
-517 -11 -238 -13 -484 3 -715 48 -41 8 -48 7 -48 -7 0 -9 35 -86 78 -171 334
-664 757 -1114 1207 -1286 181 -69 374 -89 575 -60 89 13 214 48 234 67 5 4
-9 10 -30 14 -229 35 -437 118 -649 260 -225 150 -428 378 -534 598 -18 38
-30 72 -26 75 3 4 9 2 13 -3 4 -6 37 -55 74 -110 169 -252 365 -425 619 -549
217 -105 443 -155 697 -156 138 0 136 2 107 -81 -24 -67 -72 -263 -90 -364
-62 -358 -60 -796 6 -1135 30 -157 115 -439 177 -590 28 -70 124 -264 170
-345 215 -377 565 -752 937 -1002 285 -191 632 -346 945 -421 202 -49 229 -54
460 -82 111 -13 482 -13 585 0 44 6 116 15 160 21 459 59 977 274 1373 571
101 75 348 292 373 326 8 11 49 60 93 108 223 251 411 558 529 865 51 132 108
312 132 414 9 39 18 79 21 90 37 159 64 426 64 638 -1 446 -100 897 -284 1291
-52 111 -72 126 -27 20 208 -497 273 -1055 185 -1604 -28 -181 -108 -457 -182
-635 -107 -255 -371 -695 -418 -695 -5 0 -37 -33 -71 -72 -74 -87 -161 -173
-168 -167 -5 5 25 46 60 83 37 39 102 121 114 144 6 12 18 22 25 22 8 0 17 7
20 16 3 9 6 381 6 827 l-1 812 -278 138 c-153 75 -285 137 -293 137 -8 0 -18
-4 -24 -9 -5 -4 -54 -32 -109 -61 -55 -29 -113 -60 -130 -70 -16 -10 -73 -40
-125 -67 -85 -45 -236 -125 -460 -246 -41 -22 -109 -58 -150 -79 -41 -22 -142
-77 -225 -121 -82 -45 -164 -88 -182 -97 l-32 -15 -3 -965 -3 -965 -314 -3
c-245 -2 -316 1 -323 10 -11 19 -10 3340 2 3358 12 19 -20 39 417 -256 197
-133 446 -300 553 -372 107 -72 201 -136 208 -143 9 -8 13 -34 12 -83 -1 -39
-2 -74 -1 -79 1 -4 18 3 39 16 20 13 45 26 55 30 14 5 17 20 17 99 l0 93 -67
45 c-36 25 -75 53 -86 63 -11 9 -23 17 -27 17 -3 0 -15 8 -26 18 -10 9 -73 55
-139 102 -66 46 -122 87 -125 91 -3 3 -30 23 -60 44 -127 88 -255 179 -260
184 -3 3 -12 11 -21 16 -34 21 -295 210 -313 227 -11 10 -25 18 -31 18 -7 0
-20 9 -29 19 -10 10 -60 48 -111 83 -52 34 -94 67 -95 71 0 5 23 43 50 85 91
138 200 374 261 566 19 59 46 165 68 271 15 70 38 297 51 505 18 289 39 539
55 645 45 302 137 677 234 950 11 32 21 61 21 62 0 6 -35 1 -60 -7z m-890
-1370 c0 -5 -11 -10 -24 -10 -13 0 -29 -7 -36 -15 -7 -8 -21 -15 -31 -15 -29
0 -336 -127 -436 -180 -781 -417 -1306 -1150 -1447 -2020 -22 -136 -36 -277
-36 -365 l0 -75 148 0 c141 1 355 18 472 39 147 26 239 48 385 91 53 16 225
82 296 114 31 13 60 22 63 19 9 -9 7 -591 -1 -596 -5 -3 -23 2 -40 12 -95 47
-274 142 -304 160 -19 11 -61 33 -94 50 -33 17 -92 48 -132 70 l-71 39 -269
-134 c-147 -74 -274 -134 -280 -134 -10 0 -13 -136 -13 -645 0 -423 3 -645 10
-645 6 0 10 -7 10 -15 0 -8 -4 -15 -10 -15 -5 0 -10 4 -10 9 0 5 -8 11 -17 13
-21 6 -144 240 -192 365 -102 267 -165 532 -192 811 -13 131 -7 524 10 637
113 762 483 1414 1074 1891 227 182 568 373 837 466 47 16 94 33 105 38 38 15
102 30 133 30 17 0 34 5 37 10 3 6 17 10 31 10 13 0 24 -4 24 -10z m-620
-2070 c0 -5 -5 -10 -11 -10 -5 0 -7 5 -4 10 3 6 8 10 11 10 2 0 4 -4 4 -10z
m-283 -1020 c124 -60 229 -110 234 -110 19 0 29 -54 29 -157 l0 -105 -30 6
c-17 3 -58 19 -93 35 -105 48 -226 101 -233 101 -2 0 -4 -61 -4 -135 l0 -134
51 -18 c28 -10 108 -40 178 -68 l126 -50 3 -92 c2 -80 1 -93 -13 -93 -9 0 -83
23 -163 51 -81 28 -155 53 -164 56 -17 5 -18 -6 -18 -131 0 -75 1 -136 3 -136
1 0 65 -18 142 -41 77 -23 153 -43 168 -46 37 -7 47 -35 47 -129 0 -90 11 -87
-178 -38 -75 20 -147 38 -159 41 -23 5 -23 5 -23 -130 l0 -135 43 -10 c23 -5
96 -20 162 -32 66 -12 127 -25 135 -29 18 -10 28 -180 10 -191 -5 -3 -43 0
-83 7 -39 7 -101 17 -137 23 -36 6 -80 13 -97 16 l-33 6 0 -134 0 -135 93 -12
c216 -27 252 -33 259 -44 4 -7 8 -78 8 -159 l0 -148 25 -6 c14 -3 25 -10 25
-15 0 -5 9 -9 20 -9 11 0 20 -4 20 -10 0 -5 11 -10 25 -10 15 0 25 -6 25 -14
0 -10 -7 -12 -22 -8 -13 3 -25 8 -28 11 -9 10 -49 31 -61 31 -6 0 -23 8 -37
19 -15 10 -45 21 -66 25 -49 9 -118 44 -216 108 -131 87 -206 146 -218 173 -9
19 -12 296 -12 1063 0 570 0 1040 0 1045 0 18 48 0 257 -103z m3153 -1025 c0
-621 -3 -1140 -6 -1153 -7 -25 -101 -85 -161 -101 -59 -17 -1020 -15 -1024 2
-2 6 -3 418 -1 915 l2 902 338 166 c185 91 445 219 577 284 132 65 248 118
258 117 17 -2 17 -57 17 -1132z m-4004 -270 c9 -19 20 -35 25 -35 5 0 9 -5 9
-11 0 -9 36 -56 95 -125 6 -7 24 -29 40 -50 17 -20 42 -51 57 -68 14 -17 57
-67 94 -111 38 -44 82 -92 99 -107 16 -15 26 -30 22 -35 -8 -8 -186 169 -247
246 -19 24 -50 62 -69 85 -54 66 -151 214 -151 231 0 24 8 18 26 -20z m4442
-514 c-31 -26 -35 -19 -6 14 12 14 24 21 26 15 2 -6 -7 -19 -20 -29z m-71 -66
c-20 -19 -42 -35 -47 -35 -6 0 6 15 27 33 21 17 40 36 42 40 1 5 6 6 9 2 3 -3
-11 -21 -31 -40z m-3897 15 c0 -5 -2 -10 -4 -10 -3 0 -8 5 -11 10 -3 6 -1 10
4 10 6 0 11 -4 11 -10z m60 -50 c0 -5 -7 -7 -15 -4 -8 4 -15 8 -15 10 0 2 7 4
15 4 8 0 15 -4 15 -10z m3765 -30 c-10 -11 -20 -18 -23 -16 -5 6 21 35 32 36
5 0 1 -9 -9 -20z m-100 -80 c-3 -5 -11 -10 -16 -10 -6 0 -7 5 -4 10 3 6 11 10
16 10 6 0 7 -4 4 -10z m-90 -70 c-3 -5 -10 -10 -16 -10 -5 0 -9 5 -9 10 0 6 7
10 16 10 8 0 12 -4 9 -10z m-40 -20 c-3 -5 -12 -10 -18 -10 -7 0 -6 4 3 10 19
12 23 12 15 0z m-390 -230 c-3 -5 -10 -10 -16 -10 -5 0 -9 5 -9 10 0 6 7 10
16 10 8 0 12 -4 9 -10z m-45 -20 c0 -5 -7 -10 -16 -10 -8 0 -12 5 -9 10 3 6
10 10 16 10 5 0 9 -4 9 -10z m-2331 -19 c8 -5 9 -11 3 -15 -14 -8 -43 4 -36
15 7 11 15 11 33 0z m2274 -8 c-7 -2 -19 -2 -25 0 -7 3 -2 5 12 5 14 0 19 -2
13 -5z m-2213 -23 c0 -5 -9 -10 -19 -10 -11 0 -23 5 -26 10 -4 6 5 10 19 10
14 0 26 -4 26 -10z m2160 6 c0 -2 -7 -6 -15 -10 -8 -3 -15 -1 -15 4 0 6 7 10
15 10 8 0 15 -2 15 -4z m-2110 -26 c12 -8 11 -10 -7 -10 -12 0 -25 5 -28 10
-8 13 15 13 35 0z m2055 0 c-3 -5 -13 -10 -21 -10 -8 0 -12 5 -9 10 3 6 13 10
21 10 8 0 12 -4 9 -10z m-1992 -27 c-7 -2 -19 -2 -25 0 -7 3 -2 5 12 5 14 0
19 -2 13 -5z m1920 0 c-7 -2 -19 -2 -25 0 -7 3 -2 5 12 5 14 0 19 -2 13 -5z
m-1850 -20 c-7 -2 -21 -2 -30 0 -10 3 -4 5 12 5 17 0 24 -2 18 -5z m1790 0
c-7 -2 -21 -2 -30 0 -10 3 -4 5 12 5 17 0 24 -2 18 -5z m-1717 -22 c-3 -5 -15
-7 -26 -4 -28 7 -25 13 6 13 14 0 23 -4 20 -9z m1647 2 c-7 -2 -21 -2 -30 0
-10 3 -4 5 12 5 17 0 24 -2 18 -5z m-1553 -23 c11 -7 7 -10 -17 -10 -18 0 -33
5 -33 10 0 13 30 13 50 0z m1470 0 c0 -5 -12 -10 -26 -10 -14 0 -23 4 -19 10
3 6 15 10 26 10 10 0 19 -4 19 -10z m-1377 -21 c30 0 31 -1 10 -11 -25 -12
-73 -3 -73 13 0 6 7 8 16 5 9 -3 30 -6 47 -7z m1285 -6 c-10 -2 -28 -2 -40 0
-13 2 -5 4 17 4 22 1 32 -1 23 -4z m-953 -34 c61 -6 205 -13 322 -17 116 -4
214 -10 218 -13 3 -4 -88 -10 -202 -14 -170 -6 -234 -5 -352 9 -79 10 -155 22
-168 27 -13 5 -41 9 -61 9 -20 0 -44 5 -52 11 -16 12 97 7 295 -12z m835 11
c-19 -5 -41 -4 -50 0 -10 6 1 9 35 9 48 -1 49 -1 15 -9z m-120 -20 c0 -6 -26
-10 -57 -10 -41 0 -54 3 -43 10 20 13 100 13 100 0z"/>
<path d="M8975 8150 c-22 -10 -67 -31 -100 -45 -33 -15 -78 -36 -100 -46 -22
-10 -74 -33 -115 -50 -41 -17 -102 -44 -135 -59 -33 -16 -94 -43 -135 -60 -41
-18 -100 -44 -130 -57 -30 -14 -65 -29 -77 -34 -22 -8 -23 -13 -23 -123 l0
-114 28 13 c25 12 189 75 641 248 l194 75 1 136 c1 75 -1 136 -4 135 -3 0 -23
-9 -45 -19z"/>
<path d="M8995 7681 c-6 -4 -50 -21 -100 -36 -49 -16 -94 -32 -99 -37 -6 -4
-18 -8 -28 -8 -10 0 -26 -5 -36 -10 -9 -6 -75 -30 -147 -55 -71 -24 -195 -67
-274 -94 -79 -28 -146 -51 -147 -51 -2 0 -4 -49 -4 -110 0 -120 1 -121 57 -99
15 6 43 15 61 20 74 20 101 28 187 54 50 15 104 31 120 36 17 4 46 12 65 17
46 13 306 90 345 102 l30 10 0 135 c0 131 -5 150 -30 126z"/>
<path d="M8997 7204 c-3 -4 -23 -10 -44 -14 -21 -4 -117 -28 -213 -53 -96 -25
-238 -62 -315 -81 -77 -20 -156 -40 -175 -45 -19 -6 -47 -13 -62 -16 l-28 -5
0 -114 0 -114 58 13 c31 8 84 19 117 25 33 6 76 15 95 20 40 10 90 20 275 55
72 14 150 29 175 34 25 6 61 13 80 16 69 13 65 2 65 150 0 127 -5 151 -28 129z"/>
<path d="M8960 6719 c-19 -4 -62 -12 -95 -17 -33 -6 -205 -34 -382 -63 l-323
-53 0 -109 0 -110 63 7 c34 3 127 13 207 22 178 19 307 32 425 43 50 5 108 12
130 16 l40 7 0 134 c0 147 4 139 -65 123z"/>
<path d="M7396 8988 l1 -133 153 -87 c85 -49 155 -88 158 -88 2 0 16 -8 30
-18 15 -11 56 -35 92 -54 36 -19 94 -52 130 -73 87 -50 116 -67 173 -98 l47
-27 41 23 41 24 0 64 0 63 -151 96 c-83 52 -199 124 -257 160 -57 36 -140 88
-184 115 -203 128 -255 160 -265 163 -6 2 -10 -44 -9 -130z"/>
<path d="M7399 8526 c-1 -69 -2 -131 -3 -137 -1 -7 6 -16 14 -20 26 -15 352
-169 359 -170 10 0 241 115 240 121 0 3 -23 16 -52 30 -109 53 -523 275 -544
293 -10 7 -13 -17 -14 -117z"/>
<path d="M7399 8044 c-1 -68 -2 -129 -3 -136 -1 -9 194 -94 284 -123 13 -4 15
13 13 122 l-1 128 -59 27 c-32 15 -83 37 -113 50 -30 13 -70 30 -87 39 l-33
17 -1 -124z"/>
<path d="M7400 7689 c0 -2 -1 -65 -1 -139 l-1 -135 143 -42 c79 -24 146 -43
149 -43 4 0 4 202 0 252 0 3 -15 10 -32 13 -18 4 -37 10 -43 14 -5 4 -50 20
-100 36 -49 16 -96 33 -102 38 -7 5 -13 8 -13 6z"/>
<path d="M7400 7203 c-3 -56 0 -266 3 -269 2 -3 29 -9 58 -14 93 -17 203 -38
217 -41 10 -3 13 25 15 124 l2 128 -25 6 c-88 20 -252 63 -260 68 -6 3 -10 3
-10 -2z"/>
<path d="M7400 6724 c-3 -56 0 -267 3 -270 2 -2 55 -9 118 -14 63 -6 128 -13
144 -16 l30 -6 -2 129 -2 128 -73 13 c-40 7 -98 16 -128 21 -30 4 -63 12 -72
16 -10 4 -18 3 -18 -1z"/>
<path d="M6622 4848 c-9 -9 -12 -265 -12 -1090 l0 -1078 26 -12 c23 -11 29
-10 45 11 19 23 19 56 17 1093 -3 937 -5 1070 -18 1078 -21 13 -44 12 -58 -2z"/>
<path d="M7182 4848 c-9 -9 -12 -265 -12 -1089 0 -1178 -3 -1117 55 -1091 l25
12 0 1078 c0 1120 1 1102 -40 1102 -9 0 -21 -5 -28 -12z"/>
<path d="M8594 4599 c-28 -31 -25 -96 5 -120 36 -29 95 -25 120 7 28 36 27 85
-2 112 -31 30 -97 30 -123 1z"/>
<path d="M7867 4592 c-14 -16 -17 -52 -19 -248 l-3 -229 -122 -3 c-111 -2
-124 -5 -133 -23 -6 -11 -8 -29 -5 -39 6 -18 16 -20 120 -20 62 0 120 -3 129
-6 14 -5 16 -59 16 -498 0 -524 6 -605 49 -701 50 -112 143 -164 299 -165 70
0 102 12 102 38 0 30 -22 42 -75 42 -158 0 -249 72 -281 218 -20 95 -21 1044
-1 1061 8 6 79 12 183 13 168 3 169 3 172 26 7 48 -8 52 -178 52 -87 0 -165 3
-174 6 -14 5 -16 36 -16 238 0 232 -3 256 -35 256 -7 0 -19 -8 -28 -18z"/>
<path d="M3880 4116 c-261 -63 -470 -256 -551 -510 -102 -317 23 -665 305
-850 137 -89 257 -126 420 -126 175 0 314 48 464 163 43 33 52 45 50 66 -5 39
-47 40 -90 2 -49 -43 -150 -98 -227 -124 -90 -30 -307 -32 -391 -3 -231 77
-395 247 -465 481 -29 96 -25 258 9 360 79 231 257 403 479 460 72 19 252 19
327 1 86 -21 197 -79 280 -145 31 -26 42 -26 64 -2 25 27 9 48 -83 109 -155
103 -222 124 -401 128 -86 2 -155 -2 -190 -10z"/>
<path d="M11015 4125 c-5 -2 -37 -11 -70 -21 -253 -75 -460 -329 -496 -607
-13 -98 -5 -253 17 -322 66 -212 207 -377 399 -470 117 -56 200 -75 325 -75
126 0 222 21 327 71 86 41 203 130 203 154 0 15 -26 45 -40 45 -4 0 -30 -18
-56 -40 -55 -45 -169 -108 -223 -122 -98 -27 -211 -35 -299 -22 -107 15 -138
25 -216 65 -127 66 -225 164 -298 299 -56 105 -87 271 -52 284 9 3 298 6 644
6 521 0 629 2 639 14 7 9 9 35 6 72 -32 319 -261 597 -547 663 -42 10 -238 14
-263 6z m249 -89 c174 -46 327 -171 412 -338 39 -76 80 -220 69 -239 -9 -14
-1212 -12 -1220 2 -13 20 33 168 76 250 84 157 234 279 398 324 64 17 199 18
265 1z"/>
<path d="M4921 4096 c-9 -11 -11 -138 -8 -508 4 -542 2 -524 69 -650 54 -102
161 -205 261 -252 99 -46 148 -56 270 -56 132 0 192 13 288 62 64 33 194 147
204 178 4 11 13 20 20 20 11 0 15 -23 17 -106 3 -89 6 -109 21 -118 12 -8 22
-8 35 0 16 10 17 57 20 717 2 698 2 706 -18 717 -14 8 -26 8 -40 0 -20 -10
-20 -21 -20 -484 0 -474 0 -474 -24 -545 -50 -147 -137 -247 -270 -310 -172
-82 -337 -76 -501 18 -120 69 -216 201 -244 339 -7 34 -11 216 -11 507 0 399
-2 455 -16 469 -19 20 -38 20 -53 2z"/>
<path d="M8631 4096 c-8 -9 -10 -205 -9 -716 3 -657 4 -704 21 -714 12 -8 22
-8 35 0 16 10 17 57 20 714 1 511 -1 707 -9 716 -6 8 -19 14 -29 14 -10 0 -23
-6 -29 -14z"/>
<path d="M9005 4086 c-16 -24 -17 -21 60 -201 37 -86 172 -412 235 -565 39
-96 82 -197 94 -225 13 -27 56 -131 96 -230 41 -99 78 -186 83 -192 5 -7 22
-13 38 -13 23 0 32 7 43 33 8 17 21 48 29 67 9 19 59 141 112 270 53 129 105
253 115 275 10 22 46 108 80 190 58 142 80 193 101 240 51 115 129 315 129
332 0 12 -9 27 -21 33 -26 15 -45 0 -69 -54 -35 -81 -256 -611 -413 -993 -63
-154 -96 -222 -106 -220 -8 1 -27 34 -43 72 -17 39 -48 113 -69 165 -41 99
-47 112 -72 170 -9 19 -59 141 -112 270 -53 129 -103 249 -110 265 -8 17 -41
95 -74 174 -33 79 -66 148 -73 153 -22 13 -37 9 -53 -16z"/>
</g>
</svg>
