<svg xmlns="http://www.w3.org/2000/svg" width="287.032" height="349.772" viewBox="0 0 287.032 349.772">
  <g id="Group_28" data-name="Group 28" transform="translate(0 0)">
    <path id="Path_223" data-name="Path 223" d="M415.349,330.2v-.9c1.786,0,3.6-.037,5.39-.109l.036.9C418.973,330.164,417.147,330.2,415.349,330.2Zm-5.424-.1c-1.8-.07-3.618-.178-5.416-.319l.071-.9c1.786.141,3.6.248,5.38.318Zm16.266-.331-.072-.9c1.783-.143,3.587-.324,5.362-.538l.108.892c-1.787.216-3.6.4-5.4.542Zm-27.081-.524c-1.791-.215-3.6-.468-5.374-.752l.143-.887c1.762.283,3.558.534,5.338.747Zm37.852-.776-.143-.887c1.762-.285,3.546-.611,5.3-.968l.179.88c-1.768.36-3.564.688-5.338.975Zm-48.565-.944c-1.768-.358-3.55-.757-5.3-1.184l.214-.873c1.734.425,3.5.821,5.26,1.176Zm59.2-1.22-.215-.872c1.74-.428,3.491-.9,5.206-1.394l.25.863c-1.727.5-3.491.972-5.242,1.4Zm-69.736-1.361c-1.732-.5-3.476-1.041-5.182-1.609l.284-.853c1.695.564,3.427,1.1,5.147,1.6Zm80.157-1.657-.285-.852c1.7-.567,3.4-1.176,5.076-1.812l.319.84c-1.684.64-3.4,1.254-5.111,1.824Zm-90.466-1.775c-1.685-.639-3.383-1.321-5.046-2.03l.352-.826c1.652.7,3.338,1.382,5.013,2.016Zm100.6-2.072-.353-.826c1.642-.7,3.291-1.445,4.9-2.21l.386.812c-1.62.77-3.281,1.519-4.934,2.225Zm-110.6-2.19c-1.632-.775-3.268-1.592-4.863-2.431l.418-.795c1.584.832,3.209,1.645,4.83,2.414Zm120.377-2.459-.419-.795c1.582-.833,3.167-1.708,4.711-2.6l.45.777c-1.554.9-3.149,1.78-4.742,2.618Zm-130-2.6c-1.566-.9-3.129-1.852-4.648-2.814l.481-.759c1.508.955,3.062,1.9,4.617,2.8ZM487.3,309.361l-.481-.759c1.506-.954,3.016-1.954,4.489-2.972l.511.739c-1.482,1.025-3,2.032-4.519,2.992Zm-148.552-2.982c-1.486-1.027-2.967-2.1-4.4-3.176l.54-.718c1.428,1.074,2.9,2.135,4.375,3.155ZM496.214,303.2l-.54-.718c1.424-1.071,2.851-2.189,4.239-3.324l.569.7c-1.4,1.142-2.833,2.268-4.267,3.346Zm-166.145-3.345c-1.395-1.14-2.786-2.323-4.134-3.518l.6-.672c1.339,1.187,2.721,2.363,4.107,3.495Zm174.543-3.516-.6-.672c1.338-1.186,2.671-2.416,3.961-3.654l.622.648c-1.3,1.246-2.64,2.484-3.987,3.678Zm-182.666-3.682c-1.3-1.245-2.587-2.536-3.838-3.836l.647-.623c1.242,1.292,2.525,2.574,3.813,3.81Zm190.491-3.832-.647-.623c1.238-1.288,2.469-2.62,3.658-3.96l.672.6C514.923,286.183,513.684,287.525,512.437,288.822Zm-198.009-3.988c-1.2-1.35-2.381-2.74-3.518-4.129l.7-.569c1.128,1.38,2.3,2.761,3.494,4.1ZM519.64,280.7l-.7-.569c1.135-1.388,2.256-2.815,3.33-4.242l.718.54C521.91,277.869,520.782,279.306,519.64,280.7Zm-212.078-4.264c-1.083-1.438-2.151-2.916-3.174-4.395l.739-.511c1.017,1.469,2.077,2.938,3.153,4.366Zm218.609-4.41-.739-.511c1.02-1.476,2.023-2.989,2.98-4.5l.759.481C528.208,269.021,527.2,270.544,526.171,272.029Zm-224.778-4.5c-.963-1.518-1.908-3.076-2.81-4.633l.777-.45c.9,1.546,1.835,3.094,2.791,4.6Zm230.595-4.672-.777-.45c.9-1.554,1.777-3.144,2.609-4.726l.795.418C533.777,259.69,532.893,261.291,531.988,262.855Zm-236.025-4.7c-.837-1.589-1.653-3.218-2.426-4.841l.811-.386c.768,1.612,1.579,3.23,2.41,4.809Zm241.085-4.915-.812-.386c.769-1.618,1.516-3.274,2.22-4.924l.826.353C538.574,249.94,537.822,251.608,537.048,253.237Zm-245.74-4.858c-.708-1.655-1.389-3.343-2.026-5.018l.84-.319c.633,1.663,1.31,3.34,2.013,4.983Zm250.007-5.144-.84-.318c.637-1.681,1.248-3.394,1.814-5.091l.852.284C542.572,239.818,541.957,241.542,541.316,243.234Zm-253.86-4.983c-.572-1.708-1.116-3.451-1.618-5.179l.863-.25c.5,1.717,1.039,3.448,1.607,5.144Zm257.3-5.324-.863-.249c.5-1.714.964-3.466,1.392-5.207l.872.214C545.724,229.438,545.253,231.2,544.754,232.927Zm-260.323-5.1c-.432-1.749-.833-3.53-1.193-5.293l.88-.18c.358,1.751.756,3.52,1.185,5.258Zm262.91-5.44-.881-.179c.355-1.75.68-3.534.965-5.3l.887.143c-.287,1.78-.614,3.576-.971,5.338ZM282.26,217.2c-.288-1.774-.544-3.581-.761-5.372l.892-.108c.216,1.779.47,3.574.757,5.336Zm266.808-5.522-.892-.107c.214-1.778.394-3.583.535-5.363l.9.071c-.143,1.792-.324,3.608-.539,5.4ZM280.954,206.43c-.145-1.794-.256-3.617-.329-5.416l.9-.036c.073,1.788.182,3.6.326,5.38Zm268.975-5.566-.9-.036c.07-1.79.106-3.6.106-5.389v-.3h.9v.3C550.037,197.237,550,199.062,549.93,200.864Zm-268.519-5.276h-.9v-.151c0-1.753.034-3.527.1-5.273l.9.035c-.067,1.734-.1,3.5-.1,5.24Zm267.608-5.834c-.074-1.784-.186-3.594-.332-5.38l.9-.073c.147,1.8.259,3.62.334,5.416Zm-267.193-4.936-.9-.07c.141-1.8.321-3.616.533-5.4l.892.106C282.145,181.227,281.967,183.032,281.826,184.819Zm266.314-5.806c-.217-1.772-.473-3.567-.762-5.335l.887-.145c.291,1.78.549,3.587.767,5.371Zm-265.041-4.9-.887-.142c.285-1.779.61-3.575.966-5.339l.88.178c-.354,1.752-.676,3.537-.959,5.3Zm263.3-5.74c-.361-1.756-.761-3.524-1.191-5.256l.872-.216c.433,1.744.836,3.525,1.2,5.292Zm-261.169-4.824-.873-.213c.427-1.749.9-3.513,1.395-5.244l.863.249C286.122,160.064,285.656,161.816,285.232,163.553Zm258.576-5.637c-.5-1.716-1.042-3.446-1.613-5.143l.852-.286c.574,1.708,1.12,3.45,1.623,5.178ZM288.213,153.2l-.853-.283c.569-1.711,1.181-3.436,1.82-5.127l.841.318C289.386,149.783,288.778,151.5,288.213,153.2Zm252.162-5.5c-.638-1.671-1.317-3.347-2.018-4.982l.826-.354c.706,1.645,1.39,3.333,2.032,5.015Zm-248.34-4.611-.827-.352c.706-1.66,1.456-3.328,2.229-4.959l.812.385C293.481,139.782,292.736,141.44,292.034,143.089Zm244.1-5.268c-.769-1.61-1.581-3.227-2.415-4.806l.794-.42c.84,1.589,1.658,3.217,2.432,4.839Zm-239.477-4.49-.8-.417c.837-1.6,1.72-3.2,2.622-4.761l.778.449C298.369,130.155,297.492,131.746,296.661,133.331Zm234.454-5.022c-.9-1.547-1.839-3.094-2.8-4.6l.758-.482c.964,1.515,1.911,3.073,2.815,4.63Zm-229.057-4.324-.759-.48c.964-1.524,1.972-3.048,3-4.531l.739.51C304.015,120.956,303.015,122.47,302.057,123.984Zm223.281-4.759c-1.019-1.468-2.082-2.936-3.158-4.362l.717-.541c1.083,1.435,2.153,2.913,3.179,4.391Zm-217.153-4.119-.718-.54c1.083-1.441,2.209-2.879,3.348-4.274l.7.568c-1.131,1.386-2.25,2.815-3.326,4.246ZM518.85,110.63c-1.133-1.382-2.311-2.761-3.5-4.1l.671-.6c1.2,1.345,2.381,2.733,3.522,4.125ZM315,106.751l-.673-.6c1.193-1.348,2.43-2.69,3.678-3.991l.648.622c-1.239,1.292-2.468,2.626-3.654,3.964Zm196.687-4.174c-1.243-1.29-2.527-2.57-3.817-3.806l.622-.649c1.3,1.244,2.591,2.533,3.842,3.832Zm-189.225-3.6-.623-.647c1.3-1.247,2.637-2.486,3.983-3.682l.6.672C325.085,96.5,323.753,97.733,322.465,98.972ZM503.908,95.12c-1.342-1.187-2.726-2.361-4.11-3.49l.568-.7c1.394,1.137,2.786,2.319,4.138,3.514Zm-173.386-3.3-.569-.695c1.394-1.142,2.828-2.269,4.263-3.351l.541.717C333.331,89.564,331.906,90.684,330.522,91.818Zm165.027-3.511c-1.433-1.076-2.907-2.136-4.378-3.151l.51-.74c1.482,1.022,2.965,2.089,4.408,3.172ZM339.121,85.333l-.512-.738c1.481-1.026,3-2.035,4.516-3l.482.758c-1.506.956-3.015,1.957-4.486,2.977Zm147.546-3.151c-1.515-.957-3.069-1.9-4.62-2.79l.449-.778c1.561.9,3.126,1.845,4.651,2.808Zm-138.46-2.619-.451-.777c1.553-.9,3.148-1.783,4.739-2.623l.419.794C351.334,77.791,349.75,78.668,348.207,79.563Zm129.111-2.772c-1.587-.831-3.212-1.642-4.832-2.409l.384-.812c1.631.772,3.268,1.588,4.865,2.425Zm-119.6-2.246-.387-.811c1.62-.772,3.279-1.523,4.932-2.231l.354.826c-1.642.7-3.29,1.449-4.9,2.216Zm109.836-2.374c-1.651-.7-3.338-1.377-5.015-2.01l.318-.84c1.688.637,3.387,1.318,5.048,2.024ZM367.6,70.313l-.32-.84c1.681-.641,3.4-1.256,5.108-1.83l.286.852C370.981,69.065,369.274,69.677,367.6,70.313Zm89.844-1.958c-1.7-.563-3.43-1.1-5.149-1.593l.248-.863c1.731.5,3.474,1.036,5.183,1.6Zm-79.626-1.469-.251-.862c1.728-.5,3.491-.977,5.24-1.41l.216.872C381.289,65.915,379.538,66.387,377.822,66.886ZM447.09,65.38c-1.735-.423-3.5-.817-5.261-1.17l.177-.881c1.768.356,3.55.752,5.3,1.178ZM388.284,64.3l-.18-.88c1.761-.361,3.557-.69,5.337-.981l.145.887C391.817,63.613,390.033,63.94,388.284,64.3Zm48.24-1.045c-1.767-.282-3.563-.531-5.339-.741l.106-.892c1.788.212,3.6.463,5.374.747Zm-37.6-.689-.109-.892c1.787-.218,3.6-.4,5.4-.548l.073.9C402.5,62.166,400.7,62.348,398.921,62.565Zm26.9-.579c-1.781-.139-3.591-.244-5.381-.311l.034-.9c1.8.068,3.623.174,5.416.314Zm-16.159-.294-.037-.9c1.8-.074,3.622-.113,5.425-.116v.9C413.261,61.579,411.448,61.618,409.663,61.691Z" transform="translate(-280.512 -60.678)" fill="#3f3d56"/>
    <path id="Path_224" data-name="Path 224" d="M843.308,202.582V178.127a56.262,56.262,0,0,1-36.322-27.037h0a10.687,10.687,0,0,1-6.388,2.1H781.179A80.206,80.206,0,0,0,843.308,202.582Z" transform="translate(-556.276 -110.476)" fill="#3f3d56"/>
    <path id="Path_225" data-name="Path 225" d="M876.251,163.309V139.816a13.081,13.081,0,0,0-13.085-13.085H844.312V129a10.743,10.743,0,0,1-3.324,7.784A54.937,54.937,0,0,0,876.251,163.309Z" transform="translate(-589.219 -97.059)" fill="#3f3d56"/>
    <path id="Path_226" data-name="Path 226" d="M651.767,139.776H639.625A10.775,10.775,0,0,1,628.853,129v-2.268h-17.69a13.084,13.084,0,0,0-13.085,13.086V430.992a13.063,13.063,0,0,0,13.085,13.076H729.372a12.741,12.741,0,0,0,1.613-.1,13.093,13.093,0,0,0,11.473-12.978V216.643A107.6,107.6,0,0,1,651.767,139.776Z" transform="translate(-455.425 -97.059)" fill="#3f3d56"/>
    <path id="Path_227" data-name="Path 227" d="M746.427,155.771H720.759a106.231,106.231,0,0,0,89.27,75.5V206.553A81.606,81.606,0,0,1,746.427,155.771Z" transform="translate(-522.997 -113.054)" fill="#3f3d56"/>
    <path id="Path_228" data-name="Path 228" d="M691.56,505.395c.326-.324,8.053-8.149,14.6-26.719,6.009-17.036,12.074-46.745,6.834-91.531-9.928-84.844,40.98-138.916,41.5-139.452l-1.507-1.447c-.131.136-13.22,13.9-24.865,38.051a187,187,0,0,0-17.2,103.092c9.911,84.7-20.528,116.218-20.836,116.527Z" transform="translate(-506.103 -162.887)" opacity="0.1"/>
    <circle id="Ellipse_21" data-name="Ellipse 21" cx="13.576" cy="13.576" r="13.576" transform="translate(250.446 56.232)" opacity="0.1"/>
    <circle id="Ellipse_22" data-name="Ellipse 22" cx="13.576" cy="13.576" r="13.576" transform="translate(196.962 94.772)" opacity="0.1"/>
    <circle id="Ellipse_23" data-name="Ellipse 23" cx="13.576" cy="13.576" r="13.576" transform="translate(217.441 134.172)" opacity="0.1"/>
    <circle id="Ellipse_24" data-name="Ellipse 24" cx="13.576" cy="13.576" r="13.576" transform="translate(176.26 153.142)" opacity="0.1"/>
    <circle id="Ellipse_25" data-name="Ellipse 25" cx="13.576" cy="13.576" r="13.576" transform="translate(210.495 206.65)" opacity="0.1"/>
    <path id="Path_229" data-name="Path 229" d="M660.032,742.343s21.115-29.244-12.506-63.253Z" transform="translate(-482.661 -401.295)" opacity="0.1"/>
    <path id="Path_230" data-name="Path 230" d="M711.794,798.1s14.431-33.057,60.816-21.419Z" transform="translate(-518.059 -453.679)" opacity="0.1"/>
    <rect id="Rectangle_36" data-name="Rectangle 36" width="114.098" height="22.46" transform="translate(158 227.269)" fill="#3ea341"/>
    <path id="Path_231" data-name="Path 231" d="M702.632,395.144a34.281,34.281,0,1,1,15.906,12.771,11.089,11.089,0,1,1-15.906-12.771Z" transform="translate(-509.784 -215.478)" fill="#f2f2f2"/>
    <path id="Path_232" data-name="Path 232" d="M771.113,390.7c-.816-.471-3.909,3.308-7.322,8.807-3.413-5.5-6.506-9.279-7.322-8.807-.907.523,1.324,6.1,5.031,12.682-3.707,6.58-5.938,12.159-5.031,12.682.816.471,3.909-3.308,7.322-8.808,3.413,5.5,6.506,9.279,7.322,8.808.907-.523-1.324-6.1-5.031-12.682C769.788,396.8,772.019,391.224,771.113,390.7Z" transform="translate(-542.555 -242.43)" fill="#3ea341"/>
    <path id="Path_233" data-name="Path 233" d="M421.471,520.331s-3.654,15.66-.522,15.66,9.4-7.308,9.4-7.308v-4.176Z" transform="translate(-357.165 -313.851)" fill="#a0616a"/>
    <path id="Path_234" data-name="Path 234" d="M148.483,428.858l-9.4,14.616h6.786Z" transform="translate(-76.608 -236.212)" fill="#d0cde1"/>
    <rect id="Rectangle_37" data-name="Rectangle 37" width="12.528" height="10.44" transform="translate(66.133 320.018)" fill="#a0616a"/>
    <path id="Path_235" data-name="Path 235" d="M236.7,707l2.61,12.006,13.05-3.132-3.132-10.44Z" transform="translate(-130.373 -388.548)" fill="#a0616a"/>
    <path id="Path_236" data-name="Path 236" d="M424.194,527.339s-4.176,2.088-4.7,11.484,1.566,33.931,1.566,33.931-2.088,10.962,0,20.881-2.088,45.937.522,45.937,16.182,1.566,16.7,0,1.044-25.057,1.044-25.057,4.176-12.006,0-19.315c0,0,9.4,7.83,9.4,9.918s9.918,34.453,14.616,34.975,17.749-.522,15.138-5.22-8.874-26.1-8.874-26.1-4.7-15.66-13.05-22.447l4.176-33.409s8.874-22.447,3.654-25.579S424.194,527.339,424.194,527.339Z" transform="translate(-357.018 -316.945)" fill="#2f2e41"/>
    <circle id="Ellipse_26" data-name="Ellipse 26" cx="13.572" cy="13.572" r="13.572" transform="translate(69.265 98.161)" fill="#a0616a"/>
    <path id="Path_237" data-name="Path 237" d="M449.813,323.525s5.22,17.227,3.654,19.315,16.7-11.484,16.7-11.484-6.786-4.7-4.176-11.484Z" transform="translate(-373.762 -203.44)" fill="#a0616a"/>
    <path id="Path_238" data-name="Path 238" d="M456.8,341.951s-6.264,2.088-9.4,5.742-10.44,4.176-10.44,4.176-6.461,3.638-8.874,9.918c-2.573,6.693-1.077,16.116,0,18.271,2.088,4.176,2.088,14.616,2.088,14.616l-2.61,24.013s-9.4,8.874-2.088,9.918,20.359-.522,28.189,0,16.7,1.566,14.094-3.654-5.742-8.874-2.61-19.315c2.451-8.17,2.345-38.716,2.182-51.615a10.385,10.385,0,0,0-5.043-8.776Z" transform="translate(-358.828 -215.601)" fill="#d0cde1"/>
    <path id="Path_239" data-name="Path 239" d="M449.888,519.75s-2.375,5.229-2.61,8.352c-1.827,24.274,11.484,0,11.484,0v-4.176Z" transform="translate(-372.271 -313.531)" fill="#a0616a"/>
    <path id="Path_240" data-name="Path 240" d="M505.157,781.268s-7.83-5.742-7.83-2.61-8.874,15.66-8.874,15.66-14.616,10.44-2.61,10.44,17.227-2.088,17.227-2.088l12.528-8.352s3.132-3.654,2.088-7.83-4.7-9.918-4.7-9.918S508.811,782.312,505.157,781.268Z" transform="translate(-390.999 -454.986)" fill="#2f2e41"/>
    <path id="Path_241" data-name="Path 241" d="M397.01,786.419s-1.044-5.22-4.7-2.61-13.572,10.44-13.572,10.44-18.271,4.176-6.786,9.4,37.585-2.088,37.585-2.088,1.044-16.7,0-16.182S397.532,787.463,397.01,786.419Z" transform="translate(-328.789 -458.571)" fill="#2f2e41"/>
    <path id="Path_242" data-name="Path 242" d="M181.416,317.879l1.566,31.843-15.175,30.734-2.574-.979,15.661-28.711Z" transform="translate(-91.009 -175.086)" opacity="0.1"/>
    <path id="Path_243" data-name="Path 243" d="M476.353,356.1l3.915-.783s11.745,8.613,8.091,25.84-19.837,43.327-19.837,43.327-3.654,4.7-4.7,5.742-3.132,0-2.088,1.566-1.566,2.61-1.566,2.61-11.484,0-10.44-4.176,18.793-33.931,18.793-33.931l-2.61-27.667S463.825,355.054,476.353,356.1Z" transform="translate(-373.68 -222.962)" fill="#d0cde1"/>
    <path id="Path_244" data-name="Path 244" d="M217.845,399.392v-3.654L200.1,424.971Z" transform="translate(-110.212 -217.97)" opacity="0.1"/>
    <path id="Path_245" data-name="Path 245" d="M438.148,271.649l-2.244-.9s4.691-5.165,11.219-4.716l-1.836-2.021s4.488-1.8,8.567,2.919a39.819,39.819,0,0,1,6.173,8.676h2.4l-1,2.208,3.51,2.208-3.6-.4a12.219,12.219,0,0,1-.341,5.719l.1,1.745s-4.176-6.461-4.176-7.36v2.246s-2.244-2.021-2.244-3.369l-1.224,1.572-.612-2.47-7.547,2.47,1.224-2.021-4.692.674,1.836-2.47s-5.3,2.919-5.507,5.39-2.856,5.614-2.856,5.614l-1.224-2.246S432.233,275.018,438.148,271.649Z" transform="translate(-364.942 -172.489)" fill="#2f2e41"/>
  </g>
</svg>
