<svg xmlns="http://www.w3.org/2000/svg" width="256.654" height="283.796" viewBox="0 0 256.654 283.796">
  <g id="Group_61" data-name="Group 61" transform="translate(-20.882 -50.949)">
    <path id="Path_444" data-name="Path 444" d="M230.026,27.962c-1.675,19.109-24.533,34.627-54.018,36.672s-56.93-9.985-64.857-28.427c-.734.017-1.467.036-2.208.036-26.874,0-50.546-11.432-58.13-28.079C32.97,13.222,12.086,9.867,0,0H189c23.219,0,42.019,12.412,41.072,27.386Q230.05,27.674,230.026,27.962Z" transform="matrix(0.995, -0.105, 0.105, 0.995, 33.278, 270.24)" fill="#e6e6e6"/>
    <path id="Path_445" data-name="Path 445" d="M.066,49.281A52.227,52.227,0,0,1,102.537,38.269c.633-.023,1.265-.048,1.9-.048a52.237,52.237,0,0,1,50.108,37.5,36.91,36.91,0,0,1,43.8,10.9H35.434A35.327,35.327,0,0,1,.03,50.051Q.045,49.667.066,49.281Z" transform="matrix(0.995, -0.105, 0.105, 0.995, 27.586, 216.077)" fill="#e6e6e6"/>
    <path id="Path_446" data-name="Path 446" d="M251.924,145.025H123.6L59.433,256.16,123.6,367.294H251.924L316.087,256.16Z" transform="translate(-38.551 -94.076)" fill="#6c6c6c"/>
    <path id="Path_447" data-name="Path 447" d="M299.763,568.444H406.607l53.422-92.529-53.422-92.53H299.763l-53.422,92.53Z" transform="translate(-203.976 -313.831)" fill="#fff"/>
    <rect id="Rectangle_58" data-name="Rectangle 58" width="1.39" height="57.381" transform="translate(107.951 69.417)" fill="#3f3d56"/>
    <circle id="Ellipse_103" data-name="Ellipse 103" cx="3.957" cy="3.957" r="3.957" transform="translate(104.689 126.138)" fill="#3ea341"/>
    <rect id="Rectangle_59" data-name="Rectangle 59" width="1.39" height="57.381" transform="translate(137.631 69.417)" fill="#3f3d56"/>
    <circle id="Ellipse_104" data-name="Ellipse 104" cx="3.957" cy="3.957" r="3.957" transform="translate(134.369 126.138)" fill="#3f3d56"/>
    <rect id="Rectangle_60" data-name="Rectangle 60" width="1.39" height="57.381" transform="translate(189.736 69.417)" fill="#3f3d56"/>
    <circle id="Ellipse_105" data-name="Ellipse 105" cx="3.957" cy="3.957" r="3.957" transform="translate(186.474 126.138)" fill="#3f3d56"/>
    <circle id="Ellipse_106" data-name="Ellipse 106" cx="3.957" cy="3.957" r="3.957" transform="translate(164.708 182.86)" fill="#3f3d56"/>
    <circle id="Ellipse_107" data-name="Ellipse 107" cx="3.957" cy="3.957" r="3.957" transform="translate(84.243 146.584)" fill="#3f3d56"/>
    <path id="Path_463" data-name="Path 463" d="M259.437,304.81h-1.39V235.666H228.4v-1.39h31.035Z" transform="translate(-90.076 -121.292)" fill="#3f3d56"/>
    <circle id="Ellipse_108" data-name="Ellipse 108" cx="3.957" cy="3.957" r="3.957" transform="translate(113.923 207.923)" fill="#3ea341"/>
    <path id="Path_464" data-name="Path 464" d="M186.371,340.869h-1.39V271.724H155.336v-1.39h31.035Z" transform="translate(-67.795 -132.287)" fill="#3f3d56"/>
    <circle id="Ellipse_109" data-name="Ellipse 109" cx="3.957" cy="3.957" r="3.957" transform="translate(205.601 176.924)" fill="#3ea341"/>
    <path id="Path_465" data-name="Path 465" d="M322.9,296.271h-1.39V227.126H302.417v-1.39H322.9Z" transform="translate(-112.645 -118.688)" fill="#3f3d56"/>
    <path id="Path_466" data-name="Path 466" d="M156.675,267.534h-1.39V233.155h21.141v1.39H156.675Z" transform="translate(-67.78 -120.95)" fill="#3f3d56"/>
    <circle id="Ellipse_110" data-name="Ellipse 110" cx="3.957" cy="3.957" r="3.957" transform="translate(134.699 223.422)" fill="#3f3d56"/>
    <path id="Path_467" data-name="Path 467" d="M220.6,378.082h-1.39V345.093H199.46V343.7H220.6Z" transform="translate(-81.25 -154.66)" fill="#3f3d56"/>
    <circle id="Ellipse_111" data-name="Ellipse 111" cx="3.957" cy="3.957" r="3.957" transform="translate(185.155 194.072)" fill="#3f3d56"/>
    <path id="Path_468" data-name="Path 468" d="M301.858,335.856h-1.39V301.477h21.141v1.39H301.858Z" transform="translate(-112.051 -141.784)" fill="#3f3d56"/>
  </g>
</svg>
