<svg xmlns="http://www.w3.org/2000/svg" width="266.577" height="427.768" viewBox="0 0 266.577 427.768">
  <g id="Group_75" data-name="Group 75" transform="translate(-199.504 -191.781)">
    <path id="Path_472" data-name="Path 472" d="M617.5,239.093,452.716,265.627l-.7-160.2L616.806,0Z" transform="translate(-151.424 191.781)" fill="#e6e6e6"/>
    <path id="Path_473" data-name="Path 473" d="M605.47,230.384,463.026,261.107V127.042L605.47,49.73Z" transform="translate(-154.751 176.749)" fill="#fff"/>
    <path id="Path_474" data-name="Path 474" d="M595.135,121.936l-120.1,53.782v-18.87l120.1-59.331Z" transform="translate(-158.381 162.305)" fill="#3f3d56"/>
    <path id="Path_475" data-name="Path 475" d="M595.135,194.129l-120.1,42.36V217.87l120.1-47.835Z" transform="translate(-158.381 140.386)" fill="#3ea341"/>
    <path id="Path_476" data-name="Path 476" d="M695.718,314.027a.45.45,0,0,1,.866-.029l1.945,6.129,2.33,7.342a.45.45,0,0,1-.256.552l-4.5,1.876-3.957,1.649a.45.45,0,0,1-.61-.523l2.164-8.79Z" transform="translate(-332.663 -2.841)" fill="#e6e6e6"/>
    <path id="Path_477" data-name="Path 477" d="M685.53,379.422a.743.743,0,0,1,1.429-.047l1.63,5.137,2.248,7.086a.743.743,0,0,1-.422.91l-4.254,1.773-3.421,1.426a.743.743,0,0,1-1.007-.863l2.025-8.226Z" transform="translate(-329.698 -22.54)" fill="#e6e6e6"/>
    <path id="Path_478" data-name="Path 478" d="M595.135,265.54l-120.1,30.937V276.712l120.1-36.748Z" transform="translate(-158.381 119.249)" fill="#f2f2f2"/>
    <path id="Path_485" data-name="Path 485" d="M701.53,437.468a.743.743,0,0,1,1.429-.047l1.63,5.137,2.248,7.086a.743.743,0,0,1-.422.91l-4.254,1.773-3.421,1.426a.743.743,0,0,1-1.007-.863l2.025-8.226Z" transform="translate(-334.534 -40.085)" fill="#e6e6e6"/>
    <path id="Path_486" data-name="Path 486" d="M660.024,415.4l6.5-5.993s14.706-10.13,9.569-15.7-15.49,7.417-15.49,7.417l-6.425,4.209Z" transform="translate(-321.375 -26.61)" fill="#a0616a"/>
    <path id="Path_487" data-name="Path 487" d="M537.627,422.251l-3.785,5.209s-5.289,20.339,21.475,21.419c0,0,34.181,16.57,42.643,6.189s31.809-35.354,31.809-35.354l-13.734-13.958-27.988,29.253L560.894,421.4S546.908,413.689,537.627,422.251Z" transform="translate(-284.875 -30.67)" fill="#2f2e41"/>
    <path id="Path_488" data-name="Path 488" d="M342.572,424.679,307.135,555.238l4.464.893,37.222-131.452Z" transform="translate(-107.631 63.417)" fill="#e6e6e6"/>
    <path id="Path_489" data-name="Path 489" d="M416.786,424.679l35.436,130.559-4.464.893L410.536,424.679Z" transform="translate(-138.885 63.417)" fill="#e6e6e6"/>
    <path id="Path_490" data-name="Path 490" d="M384.8,420.066l5.943,133.456,5.16.23L389.26,418.28Z" transform="translate(-131.105 65.351)" fill="#e6e6e6"/>
    <path id="Path_491" data-name="Path 491" d="M544.634,558.694c0,3.385-9.266,7.019-21.429,8.186-13.054,1.253-24.359-.781-24.359-4.629s11.306-7.639,24.359-8.414C535.367,553.115,544.634,555.309,544.634,558.694Z" transform="translate(-274.425 -75.388)" fill="#e6e6e6"/>
    <path id="Path_492" data-name="Path 492" d="M581.09,528.053l8.929,6.25s38.393,27.679,34.822,38.393-23.214,53.572-23.214,53.572l-25-8.036L605.2,572.7,590.019,558.41l-8.036-19.643Z" transform="translate(-297.935 -67.636)" fill="#2f2e41"/>
    <path id="Path_493" data-name="Path 493" d="M528.54,503.608s-17.857,27.679-7.143,35.714,41.072,39.286,41.072,39.286l6.25,14.286,22.322,72.322,27.679-14.286-25-56.25s-2.679-20.536-11.607-32.143-12.5-28.572-12.5-28.572l2.679-8.036L556.3,500.349Z" transform="translate(-280.207 -59.262)" fill="#2f2e41"/>
    <path id="Path_494" data-name="Path 494" d="M588.621,659.355l-16.048-4.884s-17.329-.714-16.437,5.536,15.179,47.322,19.643,44.643.893-15.179.893-15.179Z" transform="translate(-291.732 -105.84)" fill="#2f2e41"/>
    <path id="Path_495" data-name="Path 495" d="M391.8,237.21l-8.928,9.821,14.285,23.215,6.25-17.857Z" transform="translate(-130.525 120.082)" fill="#a0616a"/>
    <path id="Path_496" data-name="Path 496" d="M553.773,418.144l-15.858-26.261-5.57,1.261v8.929l-1.786,75,29.464-4.464S561.808,424.394,553.773,418.144Z" transform="translate(-284.01 -26.477)" fill="#3ea341"/>
    <path id="Path_497" data-name="Path 497" d="M527.171,417.8,513.778,393.69l-11.607,5.357-20.536,83.929-12.5,24.107s41.072,20.536,50.893,0,10.714-66.072,10.714-66.072Z" transform="translate(-265.445 -27.023)" fill="#2f2e41"/>
    <path id="Path_498" data-name="Path 498" d="M509.351,404.818l-5.357-3.571s-20.536-4.464-20.536,22.322c0,0-15.179,34.822-4.464,42.857S515.6,496.783,515.6,496.783L528.994,482.5l-30.357-26.786,12.5-27.679S518.279,413.747,509.351,404.818Z" transform="translate(-267.267 -29.223)" fill="#2f2e41"/>
    <path id="Path_499" data-name="Path 499" d="M533.118,526.625l6.25,6.25s10.714,14.286,16.072,8.929-8.036-15.179-8.036-15.179l-4.464-6.25Z" transform="translate(-284.784 -65.315)" fill="#a0616a"/>
    <path id="Path_500" data-name="Path 500" d="M561.787,417.907l15.321,37.567s6.25,18.75,6.25,25.893V501.01l-16.964-22.322S557.18,420.519,561.787,417.907Z" transform="translate(-293.06 -34.343)" fill="#2f2e41"/>
    <path id="Path_501" data-name="Path 501" d="M631.559,722.466s-4.423,17.416,1.382,18.89,54.514,2.722,54.544-5.51-31.612-15.032-31.612-15.032l-11.69-7.5Z" transform="translate(-314.052 -123.633)" fill="#2f2e41"/>
    <circle id="Ellipse_112" data-name="Ellipse 112" cx="16.072" cy="16.072" r="16.072" transform="translate(256.369 341.666)" fill="#a0616a"/>
    <path id="Path_502" data-name="Path 502" d="M576.484,366.385s3.139-13.6,0-16.743v2.093s-2.093-7.325-6.279-5.232c0,0-5.232-4.186-6.279-2.093-6.157-5.567-33.458-.348-20.206,28.878,0,0,2.416-9,2.416-5.857,0,0,6.279-6.279,7.325-8.371S572.3,370.571,576.484,366.385Z" transform="translate(-286.905 -11.533)" fill="#2f2e41"/>
    <path id="Path_479" data-name="Path 479" d="M795.558,292.428c0,4.205-1.884,8.386-4.19,9.331-2.285.937-4.123-1.665-4.123-5.8s1.838-8.3,4.123-9.3C793.674,285.641,795.558,288.223,795.558,292.428Z" transform="translate(-361.597 5.396)" fill="#3f3d56"/>
    <path id="Path_480" data-name="Path 480" d="M793.949,295.854c0,1.4-.626,2.8-1.4,3.124s-1.389-.548-1.389-1.942.621-2.791,1.389-3.121S793.949,294.452,793.949,295.854Z" transform="translate(-362.781 3.156)" fill="#fff"/>
    <path id="Path_481" data-name="Path 481" d="M795.558,362.48c0,4.205-1.884,8.387-4.19,9.332-2.285.937-4.123-1.665-4.123-5.8s1.838-8.3,4.123-9.3C793.674,355.692,795.558,358.275,795.558,362.48Z" transform="translate(-361.597 -15.778)" fill="#3ea341"/>
    <path id="Path_482" data-name="Path 482" d="M793.949,365.905c0,1.4-.626,2.8-1.4,3.124s-1.389-.548-1.389-1.942.621-2.791,1.389-3.121S793.949,364.5,793.949,365.905Z" transform="translate(-362.781 -18.018)" fill="#fff"/>
    <path id="Path_483" data-name="Path 483" d="M795.558,432.531c0,4.205-1.884,8.386-4.19,9.331-2.285.937-4.123-1.665-4.123-5.8s1.838-8.3,4.123-9.3C793.674,425.744,795.558,428.326,795.558,432.531Z" transform="translate(-361.597 -36.951)" fill="#f2f2f2"/>
    <path id="Path_484" data-name="Path 484" d="M793.949,435.957c0,1.4-.626,2.8-1.4,3.124s-1.389-.548-1.389-1.942.621-2.791,1.389-3.121S793.949,434.555,793.949,435.957Z" transform="translate(-362.781 -39.192)" fill="#fff"/>
  </g>
</svg>
