<svg id="Group_59" data-name="Group 59" xmlns="http://www.w3.org/2000/svg" width="191.933" height="159.459" viewBox="0 0 191.933 159.459">
  <path id="Path_416" data-name="Path 416" d="M294.581,789.179c-2,.506-4.091-.085-6.15-.11s-4.462.862-4.967,2.908c-.678,2.748,2.457,4.821,5.141,5.505,10.418,2.658,21.447-.792,32.1.615,4.487.593,8.851,2.043,13.362,2.389,10.327.792,20.416-4.241,30.757-3.674,5.181.284,10.216,1.97,15.4,2.241,12.4.647,24.627-6.811,36.763-4.139,3.427.755,6.644,2.293,10.04,3.184,8.584,2.253,17.622.245,26.263-1.764,1.716-.4,3.785-1.175,4-2.966.233-1.976-1.98-3.214-3.821-3.845-20.135-6.9-41.692-10.557-62.694-7.368-4.779.726-9.545,1.8-14.376,1.733-10.693-.158-20.518-5.874-31.016-7.965-19.891-3.962-39.778,5.281-58.038,14.284" transform="translate(-274.961 -641.113)" fill="#3ea341" opacity="0.1"/>
  <ellipse id="Ellipse_99" data-name="Ellipse 99" cx="39.146" cy="5.957" rx="39.146" ry="5.957" transform="translate(56.257 139.723)" fill="#3f3d56"/>
  <ellipse id="Ellipse_100" data-name="Ellipse 100" cx="39.146" cy="5.957" rx="39.146" ry="5.957" transform="translate(56.257 139.723)" opacity="0.1"/>
  <path id="Path_418" data-name="Path 418" d="M584.641,145.565c-9.875,35.609-43.7,57.662-43.7,57.662s-17.814-35.68-7.939-71.289,43.7-57.662,43.7-57.662S594.516,109.956,584.641,145.565Z" transform="translate(-444.352 -61.756)" fill="#3f3d56"/>
  <path id="Path_419" data-name="Path 419" d="M384.707,145.565c9.875,35.609,43.7,57.662,43.7,57.662s17.814-35.68,7.939-71.289-43.7-57.662-43.7-57.662S374.832,109.956,384.707,145.565Z" transform="translate(-333.062 -61.756)" fill="#3ea341"/>
  <path id="Path_420" data-name="Path 420" d="M254.443,245.121c27.1,26.378,30.407,66.928,30.407,66.928s-40.624-2.218-67.722-28.6-30.407-66.928-30.407-66.928S227.346,218.743,254.443,245.121Z" transform="translate(-186.721 -170.608)" fill="#3f3d56"/>
  <path id="Path_421" data-name="Path 421" d="M598.1,245.121c-27.1,26.378-30.407,66.928-30.407,66.928s40.624-2.218,67.722-28.6,30.407-66.928,30.407-66.928S625.193,218.743,598.1,245.121Z" transform="translate(-473.884 -170.608)" fill="#3f3d56"/>
  <circle id="Ellipse_101" data-name="Ellipse 101" cx="12.481" cy="12.481" r="12.481" transform="translate(83.467)" fill="#3ea341"/>
  <path id="Path_422" data-name="Path 422" d="M276.693,398.649a10.155,10.155,0,0,0,3.96,5.165,8.661,8.661,0,0,0-3.2-11.629A10.154,10.154,0,0,0,276.693,398.649Z" transform="translate(-253.324 -299.805)" fill="#3ea341"/>
  <path id="Path_423" data-name="Path 423" d="M340.874,472.07a10.155,10.155,0,0,0,.618,6.479,8.661,8.661,0,0,0,3.45-11.559A10.155,10.155,0,0,0,340.874,472.07Z" transform="translate(-301.838 -355.755)" fill="#3ea341"/>
  <path id="Path_424" data-name="Path 424" d="M798.436,558.993a10.155,10.155,0,0,0-2.492,6.012,8.661,8.661,0,0,0,8.467-8.592A10.155,10.155,0,0,0,798.436,558.993Z" transform="translate(-642.635 -422.948)" fill="#3ea341"/>
  <path id="Path_443" data-name="Path 443" d="M226.693,518.649a10.155,10.155,0,0,0,3.96,5.165,8.661,8.661,0,0,0-3.2-11.629A10.154,10.154,0,0,0,226.693,518.649Z" transform="translate(-216.203 -389.559)" fill="#3ea341"/>
</svg>
