<svg id="Group_33" data-name="Group 33" xmlns="http://www.w3.org/2000/svg" width="311" height="229.994" viewBox="0 0 311 229.994">
  <path id="Path_249" data-name="Path 249" d="M514.843,531.652s41.3-4.956,55.757-12.8,121.839-11.564,121.839,12.8-123.491,35.106-123.491,35.106L504.1,563.041Z" transform="translate(-382.266 -375.587)" fill="#fbbebe"/>
  <path id="Path_250" data-name="Path 250" d="M514.843,531.652s41.3-4.956,55.757-12.8,121.839-11.564,121.839,12.8-123.491,35.106-123.491,35.106L504.1,563.041Z" transform="translate(-382.266 -375.587)" opacity="0.1"/>
  <path id="Path_251" data-name="Path 251" d="M301.555,529.078l-8.673,25.194L157,555.924V518.752s52.04-11.977,93.341,13.63C250.341,532.382,299.077,526.6,301.555,529.078Z" transform="translate(-157 -377.556)" fill="#3ea341"/>
  <path id="Path_252" data-name="Path 252" d="M301.555,528.962l-8.673,25.194L157,555.808V518.637s52.04-11.977,93.341,13.63C250.341,532.266,299.077,526.484,301.555,528.962Z" transform="translate(-157 -377.481)" opacity="0.1"/>
  <path id="Path_253" data-name="Path 253" d="M812.015,463.819c0,1.408-3.157,2.453-3.467,3.811s1.568,3.395.974,4.681a25.471,25.471,0,0,1-2.166,3.767c-.777,1.113-3.179.951-4.164,1.995a33.1,33.1,0,0,1-3.058,2.659c-1.045.869-2.461,1.051-3.649,1.851-1.13.761-.993,3.551-2.243,4.243-1.194.662-3.022.129-4.318.724-1.243.571-1.9,2.636-3.228,3.141-1.282.487-2.869.277-4.224.7-1.312.408-2.779.342-4.154.686-1.335.334-2.354,2.335-3.743,2.6-1.353.263-2.938-.438-4.337-.239-1.366.194-2.955-1.535-4.36-1.4-1.375.128-2.672.928-4.08.993-1.381.063-2.747.672-4.156.672s-2.863,1.322-4.244,1.258c-1.409-.065-2.684-2.068-4.059-2.2-1.405-.131-3.082,1.962-4.448,1.767-1.4-.2-2.507-2.247-3.859-2.51-1.389-.27-3.183,1.194-4.518.86-1.375-.344-2.191-2.727-3.5-3.135-1.355-.422-3.035.15-4.317-.338-1.33-.505-2.949-.424-4.193-1-1.3-.6-2.225-2-3.419-2.665-1.25-.693-1.826-2.411-2.956-3.171-1.188-.8-3-.7-4.044-1.567-1.1-.918-3.17-.965-4.1-1.953-.985-1.044-1.383-2.8-2.161-3.911-.819-1.173.788-3.651.217-4.891-.593-1.286-3.073-1.809-3.381-3.155a19.812,19.812,0,0,1-.486-4.285c0-1.408,2.121-2.483,2.431-3.841s-1.253-3.281-.66-4.567c.572-1.239.5-3.145,1.318-4.317.777-1.113,2.718-1.55,3.7-2.594.931-.987,2.6-1.262,3.7-2.18,1.045-.869.912-3.49,2.1-4.29,1.13-.761,2.707-1.108,3.957-1.8,1.194-.662,2.884-.55,4.18-1.145,1.243-.571,3.191.554,4.52.049,1.282-.487,2.322-1.552,3.677-1.974,1.312-.408,1.928-3.522,3.3-3.866,1.335-.334,2.977.22,4.366-.049,1.353-.263,3.173,2.194,4.572,1.995,1.366-.194,2.388-3.474,3.793-3.605,1.375-.128,2.926,1.571,4.335,1.506,1.381-.063,2.768.932,4.177.932s2.812-1.366,4.193-1.3c1.409.065,2.651,1.87,4.026,2,1.405.131,3.131-2.615,4.5-2.421,1.4.2,2.48,2.322,3.832,2.584,1.389.27,3.128-1.048,4.463-.714,1.375.344,2.2,2.6,3.514,3.008,1.355.422,2.19,2.013,3.472,2.5,1.33.505,3.8-1.858,5.043-1.287,1.3.595,2.414,1.625,3.609,2.286,1.25.693,3.236.344,4.366,1.105,1.188.8,1.48,2.948,2.525,3.817,1.1.918,2.923,1.194,3.854,2.181.985,1.044,1.122,2.915,1.9,4.028.819,1.173.793,2.8,1.365,4.036.593,1.286,2.177,2.259,2.485,3.605S812.015,462.411,812.015,463.819Z" transform="translate(-512.106 -322.829)" fill="#3f3d56"/>
  <path id="Path_254" data-name="Path 254" d="M580.773,564.971s46.671-23.955,76.821-14.869,72.277-6.608,77.234-1.239,11.977,63.191-47.5,66.5-110.275-9.912-110.275-9.912Z" transform="translate(-429.61 -398.167)" fill="#fbbebe"/>
  <path id="Path_255" data-name="Path 255" d="M297.172,564.026s18.425-1.166,17.6,5.442-1.652,57.822-6.608,59.061-44.193,1.239-60.3,1.239H157v-79.18s64.43-3.836,96.645,12.272C253.645,562.86,292.377,562.3,297.172,564.026Z" transform="translate(-157 -399.774)" fill="#3ea341"/>
  <path id="Path_256" data-name="Path 256" d="M785.8,236.779a9.492,9.492,0,0,0-8.182,5.721c-2.046,4.945.588,10.754,4.543,14.361s9.034,5.668,13.649,8.377c6.2,3.639,11.77,8.691,14.871,15.176s3.432,14.517-.214,20.713c-3.384,5.75-9.538,9.192-15.406,12.366" transform="translate(-559.309 -196.375)" fill="none" stroke="#3f3d56" stroke-miterlimit="10" stroke-width="1"/>
  <path id="Path_257" data-name="Path 257" d="M832.863,150.885a9.492,9.492,0,0,0-8.182,5.721c-2.046,4.945.588,10.754,4.543,14.361s9.034,5.667,13.649,8.377c6.2,3.639,11.77,8.691,14.871,15.176s3.432,14.518-.214,20.713c-3.384,5.75-9.538,9.192-15.406,12.366" transform="translate(-589.853 -140.632)" fill="none" stroke="#3f3d56" stroke-miterlimit="10" stroke-width="1"/>
  <path id="Path_258" data-name="Path 258" d="M930.764,167.551a9.492,9.492,0,0,0-9.972-.485c-4.645,2.658-6.118,8.864-5.2,14.136s3.674,10.012,5.665,14.98c2.674,6.673,3.986,14.077,2.469,21.1s-6.174,13.58-12.849,16.247c-6.2,2.475-13.168,1.429-19.752.346" transform="translate(-633.436 -150.364)" fill="none" stroke="#3f3d56" stroke-miterlimit="10" stroke-width="1"/>
  <ellipse id="Ellipse_35" data-name="Ellipse 35" cx="9.912" cy="4.815" rx="9.912" ry="4.815" transform="translate(239.548 69.886)" fill="#57b894"/>
  <ellipse id="Ellipse_36" data-name="Ellipse 36" cx="9.912" cy="4.815" rx="9.912" ry="4.815" transform="translate(238.309 69.06)" fill="none" stroke="#3f3d56" stroke-miterlimit="10" stroke-width="1"/>
  <ellipse id="Ellipse_37" data-name="Ellipse 37" cx="9.912" cy="4.815" rx="9.912" ry="4.815" transform="translate(261.025 65.756)" fill="#57b894"/>
  <ellipse id="Ellipse_38" data-name="Ellipse 38" cx="9.912" cy="4.815" rx="9.912" ry="4.815" transform="translate(259.786 64.93)" fill="none" stroke="#3f3d56" stroke-miterlimit="10" stroke-width="1"/>
  <ellipse id="Ellipse_39" data-name="Ellipse 39" cx="9.912" cy="4.815" rx="9.912" ry="4.815" transform="translate(264.329 83.929)" fill="#57b894"/>
  <ellipse id="Ellipse_40" data-name="Ellipse 40" cx="9.912" cy="4.815" rx="9.912" ry="4.815" transform="translate(263.09 83.103)" fill="none" stroke="#3f3d56" stroke-miterlimit="10" stroke-width="1"/>
  <ellipse id="Ellipse_41" data-name="Ellipse 41" cx="9.912" cy="4.815" rx="9.912" ry="4.815" transform="translate(262.264 38.497)" fill="#57b894"/>
  <ellipse id="Ellipse_42" data-name="Ellipse 42" cx="9.912" cy="4.815" rx="9.912" ry="4.815" transform="translate(261.025 37.671)" fill="none" stroke="#3f3d56" stroke-miterlimit="10" stroke-width="1"/>
  <ellipse id="Ellipse_43" data-name="Ellipse 43" cx="9.912" cy="4.815" rx="9.912" ry="4.815" transform="translate(237.483 35.606)" fill="#57b894"/>
  <ellipse id="Ellipse_44" data-name="Ellipse 44" cx="9.912" cy="4.815" rx="9.912" ry="4.815" transform="translate(236.244 34.78)" fill="none" stroke="#3f3d56" stroke-miterlimit="10" stroke-width="1"/>
  <ellipse id="Ellipse_45" data-name="Ellipse 45" cx="9.912" cy="4.815" rx="9.912" ry="4.815" transform="translate(248.635 25.281)" fill="#57b894"/>
  <ellipse id="Ellipse_46" data-name="Ellipse 46" cx="9.912" cy="4.815" rx="9.912" ry="4.815" transform="translate(247.396 24.455)" fill="none" stroke="#3f3d56" stroke-miterlimit="10" stroke-width="1"/>
  <ellipse id="Ellipse_47" data-name="Ellipse 47" cx="9.912" cy="4.815" rx="9.912" ry="4.815" transform="translate(273.003 27.346)" fill="#57b894"/>
  <ellipse id="Ellipse_48" data-name="Ellipse 48" cx="9.912" cy="4.815" rx="9.912" ry="4.815" transform="translate(271.764 26.52)" fill="none" stroke="#3f3d56" stroke-miterlimit="10" stroke-width="1"/>
  <ellipse id="Ellipse_49" data-name="Ellipse 49" cx="9.912" cy="4.815" rx="9.912" ry="4.815" transform="translate(291.175 40.975)" fill="#57b894"/>
  <ellipse id="Ellipse_50" data-name="Ellipse 50" cx="9.912" cy="4.815" rx="9.912" ry="4.815" transform="translate(289.936 40.149)" fill="none" stroke="#3f3d56" stroke-miterlimit="10" stroke-width="1"/>
  <ellipse id="Ellipse_51" data-name="Ellipse 51" cx="9.912" cy="4.815" rx="9.912" ry="4.815" transform="translate(227.158 17.021)" fill="#57b894"/>
  <ellipse id="Ellipse_52" data-name="Ellipse 52" cx="9.912" cy="4.815" rx="9.912" ry="4.815" transform="translate(225.919 16.195)" fill="none" stroke="#3f3d56" stroke-miterlimit="10" stroke-width="1"/>
  <ellipse id="Ellipse_53" data-name="Ellipse 53" cx="9.912" cy="4.815" rx="9.912" ry="4.815" transform="translate(233.353 1.326)" fill="#57b894"/>
  <ellipse id="Ellipse_54" data-name="Ellipse 54" cx="9.912" cy="4.815" rx="9.912" ry="4.815" transform="translate(232.114 0.5)" fill="none" stroke="#3f3d56" stroke-miterlimit="10" stroke-width="1"/>
  <ellipse id="Ellipse_55" data-name="Ellipse 55" cx="9.912" cy="4.815" rx="9.912" ry="4.815" transform="translate(290.762 12.89)" fill="#57b894"/>
  <ellipse id="Ellipse_56" data-name="Ellipse 56" cx="9.912" cy="4.815" rx="9.912" ry="4.815" transform="translate(289.523 12.064)" fill="none" stroke="#3f3d56" stroke-miterlimit="10" stroke-width="1"/>
  <ellipse id="Ellipse_57" data-name="Ellipse 57" cx="9.912" cy="4.815" rx="9.912" ry="4.815" transform="translate(199.486 50.888)" fill="#57b894"/>
  <ellipse id="Ellipse_58" data-name="Ellipse 58" cx="9.912" cy="4.815" rx="9.912" ry="4.815" transform="translate(198.247 50.062)" fill="none" stroke="#3f3d56" stroke-miterlimit="10" stroke-width="1"/>
  <ellipse id="Ellipse_59" data-name="Ellipse 59" cx="9.912" cy="4.815" rx="9.912" ry="4.815" transform="translate(233.766 48.41)" fill="#57b894"/>
  <ellipse id="Ellipse_60" data-name="Ellipse 60" cx="9.912" cy="4.815" rx="9.912" ry="4.815" transform="translate(232.527 47.584)" fill="none" stroke="#3f3d56" stroke-miterlimit="10" stroke-width="1"/>
  <ellipse id="Ellipse_61" data-name="Ellipse 61" cx="9.912" cy="4.815" rx="9.912" ry="4.815" transform="translate(278.785 52.127)" fill="#57b894"/>
  <ellipse id="Ellipse_62" data-name="Ellipse 62" cx="9.912" cy="4.815" rx="9.912" ry="4.815" transform="translate(277.546 51.301)" fill="none" stroke="#3f3d56" stroke-miterlimit="10" stroke-width="1"/>
  <ellipse id="Ellipse_63" data-name="Ellipse 63" cx="9.912" cy="4.815" rx="9.912" ry="4.815" transform="translate(254.83 53.779)" fill="#57b894"/>
  <ellipse id="Ellipse_64" data-name="Ellipse 64" cx="9.912" cy="4.815" rx="9.912" ry="4.815" transform="translate(253.591 52.953)" fill="none" stroke="#3f3d56" stroke-miterlimit="10" stroke-width="1"/>
  <ellipse id="Ellipse_65" data-name="Ellipse 65" cx="9.912" cy="4.815" rx="9.912" ry="4.815" transform="translate(256.482 12.477)" fill="#57b894"/>
  <ellipse id="Ellipse_66" data-name="Ellipse 66" cx="9.912" cy="4.815" rx="9.912" ry="4.815" transform="translate(255.243 11.651)" fill="none" stroke="#3f3d56" stroke-miterlimit="10" stroke-width="1"/>
  <ellipse id="Ellipse_67" data-name="Ellipse 67" cx="9.912" cy="4.815" rx="9.912" ry="4.815" transform="translate(213.942 38.084)" fill="#57b894"/>
  <ellipse id="Ellipse_68" data-name="Ellipse 68" cx="9.912" cy="4.815" rx="9.912" ry="4.815" transform="translate(212.703 37.258)" fill="none" stroke="#3f3d56" stroke-miterlimit="10" stroke-width="1"/>
  <ellipse id="Ellipse_69" data-name="Ellipse 69" cx="9.912" cy="4.815" rx="9.912" ry="4.815" transform="translate(219.724 56.67)" fill="#57b894"/>
  <ellipse id="Ellipse_70" data-name="Ellipse 70" cx="9.912" cy="4.815" rx="9.912" ry="4.815" transform="translate(218.485 55.844)" fill="none" stroke="#3f3d56" stroke-miterlimit="10" stroke-width="1"/>
  <g id="Group_30" data-name="Group 30" transform="translate(222.754 87.631)" opacity="0.3">
    <ellipse id="Ellipse_71" data-name="Ellipse 71" cx="5.193" cy="2.249" rx="5.193" ry="2.249" transform="translate(0.654 9.066) rotate(-60.799)" fill="#57b894"/>
    <ellipse id="Ellipse_72" data-name="Ellipse 72" cx="5.193" cy="2.249" rx="5.193" ry="2.249" transform="translate(0 9.445) rotate(-60.799)" fill="none" stroke="#3f3d56" stroke-miterlimit="10" stroke-width="1"/>
  </g>
  <g id="Group_31" data-name="Group 31" transform="translate(272.067 97.038)" opacity="0.3">
    <ellipse id="Ellipse_73" data-name="Ellipse 73" cx="2.249" cy="5.193" rx="2.249" ry="5.193" transform="matrix(0.667, -0.745, 0.745, 0.667, 0.226, 4.072)" fill="#57b894"/>
    <ellipse id="Ellipse_74" data-name="Ellipse 74" cx="2.249" cy="5.193" rx="2.249" ry="5.193" transform="matrix(0.667, -0.745, 0.745, 0.667, 0, 3.352)" fill="none" stroke="#3f3d56" stroke-miterlimit="10" stroke-width="1"/>
  </g>
  <g id="Group_32" data-name="Group 32" transform="translate(225.81 71.018)" opacity="0.3">
    <ellipse id="Ellipse_75" data-name="Ellipse 75" cx="2.249" cy="5.193" rx="2.249" ry="5.193" transform="matrix(0.667, -0.745, 0.745, 0.667, 0.226, 4.072)" fill="#57b894"/>
    <ellipse id="Ellipse_76" data-name="Ellipse 76" cx="2.249" cy="5.193" rx="2.249" ry="5.193" transform="matrix(0.667, -0.745, 0.745, 0.667, 0, 3.352)" fill="none" stroke="#3f3d56" stroke-miterlimit="10" stroke-width="1"/>
  </g>
</svg>
